<?xml version="1.0" standalone="no"?>
<!DOCTYPE svg PUBLIC "-//W3C//DTD SVG 1.1//EN" "http://www.w3.org/Graphics/SVG/1.1/DTD/svg11.dtd" >
<svg xmlns="http://www.w3.org/2000/svg" xmlns:xlink="http://www.w3.org/1999/xlink" version="1.1">
<metadata>
Created by FontForge 20170731 at Thu May 20 01:14:08 2021
 By Aleksey,,,
Copyright (c) 2010 Linotype GmbH, www.linotype.com. All rights reserved. This font software may not be reproduced, modified, disclosed or transferred without the express written approval of Linotype GmbH.
</metadata>
<defs>
<font id="DINNextCYR-UltraLightItalic" horiz-adv-x="1030" >
  <font-face 
    font-family="DIN Next CYR UltraLight"
    font-weight="100"
    font-style="italic"
    font-stretch="normal"
    units-per-em="2048"
    panose-1="2 11 2 3 2 2 3 12 2 3"
    ascent="1602"
    descent="-446"
    x-height="971"
    cap-height="1393"
    bbox="-296.444 -442 1931.41 1864"
    underline-thickness="102"
    underline-position="-307"
    slope="-10"
    unicode-range="U+000D-FB04"
  />
<missing-glyph horiz-adv-x="950" 
d="M930 0h-910q-20 0 -20 20v1352q0 21 20 21h910q20 0 20 -21v-1352q0 -20 -20 -20zM74 57h803q12 0 12 13v1253q0 12 -12 12h-803q-13 0 -13 -12v-1253q0 -13 13 -13zM469 444h-16q-21 0 -21 21v51q0 90 49 148l64 75q54 64 71 102.5t17 90.5q0 74 -47 119t-121 45
q-143 0 -178 -158q-3 -19 -25 -16l-14 2q-20 3 -17 22q17 92 80.5 147.5t153.5 55.5q101 0 163 -61t62 -156q0 -61 -19.5 -106t-70.5 -107l-63 -76q-31 -38 -39.5 -61t-8.5 -66v-51q0 -21 -20 -21zM479 231h-39q-20 0 -20 21v57q0 21 20 21h39q21 0 21 -21v-57
q0 -21 -21 -21z" />
    <glyph glyph-name="IJ" unicode="IJ" horiz-adv-x="1376" 
d="M494 72q-16 12 0 28l10 11q15 15 31 2q106 -80 210 -80q303 0 367 358l172 981q3 21 23 21h18q19 0 16 -21l-174 -987q-71 -405 -428 -405q-136 0 -245 92zM129 20l238 1352q3 21 22 21h19q19 0 16 -21l-238 -1352q-3 -20 -22 -20h-19q-19 0 -16 20z" />
    <glyph glyph-name="ij" unicode="ij" horiz-adv-x="905" 
d="M846 1274h-41q-20 0 -17 20l15 78q3 21 22 21h45q18 0 15 -21l-15 -78q-3 -20 -24 -20zM356 -369h-8q-19 0 -16 21l2 10q3 21 24 21h7q91 0 128 34.5t56 137.5l192 1095q3 21 23 21h16q20 0 17 -21l-193 -1095q-23 -130 -76 -177t-172 -47zM393 1274h-41q-19 0 -16 20
l14 78q3 21 23 21h45q17 0 14 -21l-14 -78q-3 -20 -25 -20zM158 0h-17q-19 0 -16 20l164 930q3 21 22 21h17q19 0 16 -21l-164 -930q-3 -20 -22 -20z" />
    <glyph glyph-name="napostrophe" unicode="&#x22;n" horiz-adv-x="1056" 
d="M774 0h-18q-18 0 -15 20l107 582q31 176 -22 257t-195 81q-114 0 -217 -86q-100 -81 -125 -217l-109 -617q-3 -20 -22 -20h-19q-17 0 -14 20l164 930q3 21 22 21h17q19 0 16 -21l-22 -131h2q111 172 317 172q160 0 228 -95.5t36 -279.5l-108 -596q-3 -20 -23 -20z
M227 1135q-17 0 -14 18l39 219q3 21 22 21h21q19 0 16 -21l-24 -131q-2 -15 -15 -45l-22 -43q-9 -18 -23 -18z" />
    <glyph glyph-name="f_f" unicode="ff" horiz-adv-x="1171" 
d="M188 0h-18q-17 0 -14 20l157 887q3 13 -10 13h-115q-19 0 -16 20l2 10q3 21 25 21h114q12 0 15 12l22 133q27 170 86 223q60 54 199 54h41q19 0 16 -21l-2 -10q-3 -21 -24 -21h-35q-117 0 -158 -38q-41 -41 -65 -173l-27 -147q-3 -12 10 -12h211q19 0 16 -21l-2 -10
q-3 -20 -24 -20h-211q-9 0 -12 -13l-158 -887q-3 -20 -23 -20zM774 0h-18q-18 0 -15 20l158 887q3 13 -10 13h-115q-19 0 -16 20l2 10q3 21 24 21h115q11 0 14 12l23 133q27 170 86 223q60 54 199 54h41q19 0 16 -21l-2 -10q-3 -21 -25 -21h-34q-117 0 -158 -38
q-42 -42 -66 -173l-26 -147q-3 -12 10 -12h211q19 0 16 -21l-2 -10q-3 -20 -24 -20h-211q-10 0 -13 -13l-157 -887q-3 -20 -23 -20z" />
    <glyph glyph-name="fi" unicode="fi" horiz-adv-x="1038" 
d="M188 0h-18q-17 0 -14 20l157 887q3 13 -10 13h-115q-19 0 -16 20l2 10q3 21 25 21h114q12 0 15 12l22 133q27 170 86 223q60 54 199 54h41q19 0 16 -21l-2 -10q-3 -21 -24 -21h-35q-117 0 -158 -38q-41 -41 -65 -173l-27 -147q-3 -12 10 -12h211q19 0 16 -21l-2 -10
q-3 -20 -24 -20h-211q-9 0 -12 -13l-158 -887q-3 -20 -23 -20zM979 1274h-41q-19 0 -16 20l14 78q3 21 22 21h46q17 0 14 -21l-14 -78q-3 -20 -25 -20zM743 0h-16q-19 0 -16 20l163 930q3 21 23 21h16q20 0 17 -21l-164 -930q-3 -20 -23 -20z" />
    <glyph glyph-name="fl" unicode="fl" horiz-adv-x="1071" 
d="M188 0h-18q-17 0 -14 20l157 887q3 13 -10 13h-115q-19 0 -16 20l2 10q3 21 25 21h114q12 0 15 12l22 133q27 170 86 223q60 54 199 54h41q19 0 16 -21l-2 -10q-3 -21 -24 -21h-35q-117 0 -158 -38q-41 -41 -65 -173l-27 -147q-3 -12 10 -12h211q19 0 16 -21l-2 -10
q-3 -20 -24 -20h-211q-9 0 -12 -13l-158 -887q-3 -20 -23 -20zM895 -4h-27q-87 0 -117.5 47t-11.5 152l215 1177q3 21 23 21h16q20 0 17 -21l-215 -1177q-14 -85 3.5 -116.5t78.5 -31.5h28q20 0 17 -20l-2 -11q-3 -20 -25 -20z" />
    <glyph glyph-name="f_f_i" unicode="ffi" horiz-adv-x="1624" 
d="M188 0h-18q-17 0 -14 20l157 887q3 13 -10 13h-115q-19 0 -16 20l2 10q3 21 25 21h114q12 0 15 12l22 133q27 170 86 223q60 54 199 54h41q19 0 16 -21l-2 -10q-3 -21 -24 -21h-35q-117 0 -158 -38q-41 -41 -65 -173l-27 -147q-3 -12 10 -12h211q19 0 16 -21l-2 -10
q-3 -20 -24 -20h-211q-9 0 -12 -13l-158 -887q-3 -20 -23 -20zM774 0h-18q-18 0 -15 20l158 887q3 13 -10 13h-115q-19 0 -16 20l2 10q3 21 24 21h115q11 0 14 12l23 133q27 170 86 223q60 54 199 54h41q19 0 16 -21l-2 -10q-3 -21 -25 -21h-34q-117 0 -158 -38
q-42 -42 -66 -173l-26 -147q-3 -12 10 -12h211q19 0 16 -21l-2 -10q-3 -20 -24 -20h-211q-10 0 -13 -13l-157 -887q-3 -20 -23 -20zM1565 1274h-41q-20 0 -17 20l15 78q3 21 22 21h45q18 0 15 -21l-15 -78q-3 -20 -24 -20zM1329 0h-16q-20 0 -17 20l164 930q3 21 23 21h16
q20 0 17 -21l-164 -930q-3 -20 -23 -20z" />
    <glyph glyph-name="f_f_l" unicode="ffl" horiz-adv-x="1656" 
d="M188 0h-18q-17 0 -14 20l157 887q3 13 -10 13h-115q-19 0 -16 20l2 10q3 21 25 21h114q12 0 15 12l22 133q27 170 86 223q60 54 199 54h41q19 0 16 -21l-2 -10q-3 -21 -24 -21h-35q-117 0 -158 -38q-41 -41 -65 -173l-27 -147q-3 -12 10 -12h211q19 0 16 -21l-2 -10
q-3 -20 -24 -20h-211q-9 0 -12 -13l-158 -887q-3 -20 -23 -20zM774 0h-18q-18 0 -15 20l158 887q3 13 -10 13h-115q-19 0 -16 20l2 10q3 21 24 21h115q11 0 14 12l23 133q27 170 86 223q60 54 199 54h41q19 0 16 -21l-2 -10q-3 -21 -25 -21h-34q-117 0 -158 -38
q-42 -42 -66 -173l-26 -147q-3 -12 10 -12h211q19 0 16 -21l-2 -10q-3 -20 -24 -20h-211q-10 0 -13 -13l-157 -887q-3 -20 -23 -20zM1481 -4h-27q-87 0 -117.5 47t-11.5 152l215 1177q3 21 23 21h16q19 0 16 -21l-215 -1177q-14 -85 3.5 -116.5t78.5 -31.5h29q19 0 16 -20
l-2 -11q-3 -20 -24 -20z" />
    <glyph glyph-name=".notdef" horiz-adv-x="950" 
d="M930 0h-910q-20 0 -20 20v1352q0 21 20 21h910q20 0 20 -21v-1352q0 -20 -20 -20zM74 57h803q12 0 12 13v1253q0 12 -12 12h-803q-13 0 -13 -12v-1253q0 -13 13 -13zM469 444h-16q-21 0 -21 21v51q0 90 49 148l64 75q54 64 71 102.5t17 90.5q0 74 -47 119t-121 45
q-143 0 -178 -158q-3 -19 -25 -16l-14 2q-20 3 -17 22q17 92 80.5 147.5t153.5 55.5q101 0 163 -61t62 -156q0 -61 -19.5 -106t-70.5 -107l-63 -76q-31 -38 -39.5 -61t-8.5 -66v-51q0 -21 -20 -21zM479 231h-39q-20 0 -20 21v57q0 21 20 21h39q21 0 21 -21v-57
q0 -21 -21 -21z" />
    <glyph glyph-name=".null" horiz-adv-x="0" 
 />
    <glyph glyph-name="nonmarkingreturn" horiz-adv-x="682" 
 />
    <glyph glyph-name="NULL" horiz-adv-x="1024" 
 />
    <glyph glyph-name="NULL" horiz-adv-x="1024" 
 />
    <glyph glyph-name="CR" unicode="&#xd;" horiz-adv-x="0" 
 />
    <glyph glyph-name="space" unicode=" " horiz-adv-x="491" 
 />
    <glyph glyph-name="exclam" unicode="!" horiz-adv-x="485" 
d="M236 346h-13q-19 0 -16 21l174 1005q3 21 22 21h21q19 0 16 -21l-182 -1005q-3 -21 -22 -21zM125 20l18 99q3 20 23 20h51q19 0 16 -20l-16 -99q-6 -20 -24 -20h-52q-19 0 -16 20z" />
    <glyph glyph-name="quotedbl" unicode="&#x22;" horiz-adv-x="587" 
d="M528 1102h-16q-19 0 -16 20l43 250q3 21 22 21h17q19 0 16 -21l-43 -250q-3 -20 -23 -20zM313 1102h-16q-19 0 -16 20l43 250q3 21 22 21h16q20 0 17 -21l-43 -250q-3 -20 -23 -20z" />
    <glyph glyph-name="numbersign" unicode="#" horiz-adv-x="1017" 
d="M125 20l135 443h-176q-19 0 -16 20l2 9q3 20 24 20h182l125 408h-188q-19 0 -16 20l2 8q3 21 24 21h193l125 403q6 21 24 21h15q20 0 14 -21l-125 -403h328l123 403q6 21 24 21h14q21 0 15 -21l-125 -403h186q20 0 17 -21l-2 -8q-3 -20 -25 -20h-190l-125 -408h198
q20 0 17 -20l-2 -9q-3 -20 -25 -20h-203l-135 -443q-6 -20 -24 -20h-15q-20 0 -14 20l135 443h-328l-135 -443q-6 -20 -24 -20h-15q-20 0 -14 20zM455 920l-125 -408h325l125 408h-325z" />
    <glyph glyph-name="dollar" unicode="$" 
d="M72 90q-12 12 2 27l10 10q12 12 29 2q130 -93 311 -96l115 647q-285 46 -285 297q0 185 117 305q122 122 299 131l18 105q3 20 23 20h12q19 0 16 -20l-18 -107q145 -6 264 -84q15 -9 2 -29l-6 -8q-10 -16 -31 -4q-118 68 -239 74l-111 -633h2q297 -43 297 -293
q0 -187 -117 -313q-115 -124 -313 -139l-18 -107q-3 -20 -25 -20h-12q-20 0 -17 20l19 105q-97 2 -193.5 32.5t-150.5 77.5zM549 735l110 625q-149 -9 -251 -117q-99 -108 -99 -262q0 -106 55.5 -164.5t184.5 -81.5zM590 674l-113 -641q161 12 264 121t103 274
q0 107 -59 166.5t-193 79.5h-2z" />
    <glyph glyph-name="percent" unicode="%" horiz-adv-x="1499" 
d="M268 0l1018 1393q14 20 31 20h18q22 0 8 -20l-1015 -1393q-17 -20 -33 -20h-19q-22 0 -8 20zM467 676q-85 0 -132.5 48.5t-47.5 135.5q0 76 26 209q26 134 56 195q71 145 217 145q85 0 132.5 -48.5t47.5 -135.5q0 -61 -29 -209q-28 -144 -53 -195q-71 -145 -217 -145z
M471 723q105 0 164 108q30 64 53 187q27 129 27 205q0 139 -133 139q-105 0 -164 -109q-30 -66 -56 -188q-24 -126 -24 -203q0 -139 133 -139zM848 168q0 76 26 209q26 132 56 194q71 146 217 146q85 0 132.5 -48.5t47.5 -136.5q0 -60 -29 -208q-28 -144 -53 -195
q-71 -145 -217 -145q-85 0 -132.5 48.5t-47.5 135.5zM899 170q0 -139 133 -139q106 0 164 108q30 64 53 187q27 129 27 204q0 140 -133 140q-105 0 -164 -109q-29 -62 -55 -188q-25 -131 -25 -203z" />
    <glyph glyph-name="ampersand" unicode="&#x26;" horiz-adv-x="1189" 
d="M102 258q0 138 88 258t285 266q-87 164 -106 209q-27 68 -27 121q0 129 86 215q89 86 223 86q98 0 159.5 -60t61.5 -157q0 -98 -69 -190q-69 -97 -260 -236l256 -475l184 201q13 13 29 4l12 -11q12 -12 -4 -28l-195 -213l78 -146q26 -51 78 -51h31q19 0 16 -20l-2 -11
q-3 -20 -22 -20h-21q-84 0 -119 66l-78 141q-217 -227 -413 -227q-124 0 -197.5 76.5t-73.5 201.5zM518 813q166 124 232.5 210t66.5 167q0 82 -46 127t-130 45q-104 0 -176 -72q-68 -71 -68 -174q0 -76 121 -303zM158 264q0 -111 58 -172t163 -61q90 0 179.5 53.5
t203.5 171.5l-262 481q-174 -128 -258 -240.5t-84 -232.5z" />
    <glyph glyph-name="quotesingle" unicode="'" horiz-adv-x="372" 
d="M313 1102h-16q-19 0 -16 20l43 250q3 21 22 21h16q20 0 17 -21l-43 -250q-3 -20 -23 -20z" />
    <glyph glyph-name="parenleft" unicode="(" horiz-adv-x="557" 
d="M287 -152q-82 253 -82 527q0 564 370 1120q15 21 31 21h15q25 0 10 -21q-371 -564 -371 -1116q0 -277 80 -531q6 -20 -16 -20h-13q-18 0 -24 20z" />
    <glyph glyph-name="parenright" unicode=")" horiz-adv-x="557" 
d="M10 -152q371 564 371 1117q0 276 -80 530q-6 21 16 21h13q18 0 24 -21q82 -253 82 -526q0 -565 -370 -1121q-14 -20 -31 -20h-15q-24 0 -10 20z" />
    <glyph glyph-name="asterisk" unicode="*" horiz-adv-x="702" 
d="M426 836h-8q-20 0 -17 20l37 211l-196 -104q-23 -13 -29 6l-2 8q-7 17 14 29l199 108l-158 109q-17 10 -4 26l6 8q9 16 27 5l158 -107l39 217q3 21 24 21h8q20 0 17 -21l-39 -215l198 107q22 13 29 -7l2 -8q7 -16 -14 -28l-197 -109l160 -106q17 -10 4 -27l-6 -8
q-9 -15 -27 -4l-164 104l-36 -215q-3 -20 -25 -20z" />
    <glyph glyph-name="plus" unicode="+" 
d="M498 195v333q0 13 -13 13h-329q-21 0 -21 20v10q0 21 21 21h329q13 0 13 12v334q0 20 20 20h14q21 0 21 -20v-334q0 -12 12 -12h330q20 0 20 -21v-10q0 -20 -20 -20h-330q-12 0 -12 -13v-333q0 -21 -21 -21h-14q-20 0 -20 21z" />
    <glyph glyph-name="comma" unicode="," horiz-adv-x="399" 
d="M156 -43l-64 -150q-6 -16 -20 -16q-18 0 -15 19l54 309q3 20 22 20h41q19 0 16 -20l-20 -115q-2 -16 -14 -47z" />
    <glyph glyph-name="hyphen" unicode="-" horiz-adv-x="722" 
d="M618 522h-483q-19 0 -16 21l2 12q3 16 22 16h484q19 0 16 -20l-2 -12q-3 -17 -23 -17z" />
    <glyph glyph-name="period" unicode="." horiz-adv-x="399" 
d="M84 20l16 99q3 20 23 20h51q19 0 16 -20l-16 -99q-3 -20 -22 -20h-52q-19 0 -16 20z" />
    <glyph glyph-name="slash" unicode="/" horiz-adv-x="786" 
d="M76 0l680 1393q9 20 30 20h17q19 0 10 -20l-680 -1393q-9 -20 -31 -20h-16q-19 0 -10 20z" />
    <glyph glyph-name="zero" unicode="0" 
d="M147 270q0 144 62 475q66 335 110 429q114 239 367 239q134 0 210.5 -78.5t76.5 -212.5q0 -149 -64 -475q-62 -329 -108 -428q-114 -239 -367 -239q-134 0 -210.5 78t-76.5 212zM203 279q0 -118 61 -183t178 -65q205 0 308 207q48 103 106 421q62 325 62 455
q0 118 -61.5 183t-178.5 65q-204 0 -307 -207q-48 -102 -109 -422q-59 -325 -59 -454z" />
    <glyph glyph-name="one" unicode="1" 
d="M438 20l228 1295h-4l-291 -197q-8 -6 -15 -2t-6 14l4 27q3 17 17 25l297 198q19 13 30 13h15q21 0 18 -21l-237 -1352q-3 -20 -23 -20h-16q-20 0 -17 20z" />
    <glyph glyph-name="two" unicode="2" 
d="M78 18v5q0 12 14 26l621 703q98 110 141 193.5t43 168.5q0 111 -67 179.5t-177 68.5q-117 0 -206 -74t-132 -203q-5 -19 -24 -16l-15 2q-16 3 -10 25q44 141 149 229t244 88q130 0 210.5 -82.5t80.5 -212.5q0 -103 -47.5 -194.5t-159.5 -216.5l-579 -654v-2h581
q20 0 17 -20l-2 -11q-3 -20 -25 -20h-641q-16 0 -16 18z" />
    <glyph glyph-name="three" unicode="3" 
d="M113 260q-3 19 14 25l14 4q20 7 23 -15q34 -243 268 -243q157 0 264 119t107 288q0 120 -68.5 193.5t-185.5 73.5h-62q-17 0 -14 20l2 12q3 19 21 19h61q141 0 242 104q102 108 102 254q0 114 -65 181t-179 67q-118 0 -202 -64.5t-121 -167.5q-6 -19 -25 -16l-14 2
q-16 3 -10 25q35 112 135 190q101 82 246 82q133 0 210.5 -80.5t77.5 -212.5q0 -136 -70 -237.5t-192 -153.5v-4q76 -31 121 -105t45 -171q0 -198 -121 -334q-120 -135 -311 -135q-153 0 -227 83q-71 83 -86 197z" />
    <glyph glyph-name="four" unicode="4" 
d="M621 313h-510q-20 0 -17 19l2 10q1 5 4 11.5t4 8.5l617 1014q10 17 29 17h20q20 0 10 -19l-614 -1007v-2h463q11 0 14 12l70 401q3 21 22 21h17q19 0 16 -21l-70 -401q-3 -12 11 -12h168q19 0 16 -21l-2 -12q-3 -19 -25 -19h-168q-11 0 -14 -12l-49 -281q-3 -20 -23 -20
h-16q-19 0 -16 20l51 281q3 12 -10 12z" />
    <glyph glyph-name="five" unicode="5" 
d="M147 276q0 22 19 25l14 2q21 3 21 -18q0 -120 63 -187t185 -67q195 0 286 186q40 78 60 193q24 120 24 200q0 248 -219 248q-102 0 -184.5 -58.5t-120.5 -148.5q-9 -20 -25 -20h-14q-19 0 -16 20l127 721q3 21 22 21h590q21 0 18 -21l-2 -10q-3 -21 -24 -21h-545
q-11 0 -14 -12l-101 -573h2q40 66 118.5 109.5t174.5 43.5q130 0 199 -73t69 -213q0 -88 -24 -217q-24 -125 -66 -211q-108 -215 -344 -215q-143 0 -218 79.5t-75 216.5z" />
    <glyph glyph-name="six" unicode="6" 
d="M127 311q0 175 143 391l449 674q10 17 29 17h22q26 0 10 -19l-418 -626l5 -3q76 64 211 64q145 0 229 -88.5t84 -237.5q0 -200 -125 -352q-127 -151 -324 -151q-147 0 -231 88t-84 243zM182 311q0 -128 70.5 -204t191.5 -76q167 0 279 133q113 134 113 313
q0 128 -71.5 204.5t-193.5 76.5q-167 0 -278 -135q-111 -132 -111 -312z" />
    <glyph glyph-name="seven" unicode="7" 
d="M233 23l732 1314v4h-555q-12 0 -15 -12l-37 -211q-3 -20 -24 -20h-15q-19 0 -16 20l45 254q3 21 23 21h643q19 0 16 -21l-4 -22q-3 -14 -10 -25l-725 -1307q-9 -18 -29 -18h-20q-22 0 -9 23z" />
    <glyph glyph-name="eight" unicode="8" 
d="M121 291q0 150 82.5 271.5t222.5 176.5v4q-143 70 -143 250q0 170 110 295q113 125 293 125q129 0 207 -77.5t78 -205.5q0 -135 -71 -243t-189 -152v-4q83 -37 129.5 -110.5t46.5 -171.5q0 -196 -129 -334q-129 -135 -324 -135q-141 0 -227 85.5t-86 225.5zM575 760
q146 0 244 104q99 108 99 258q0 106 -66 173t-174 67q-146 0 -244 -107q-98 -104 -98 -256q0 -106 65.5 -172.5t173.5 -66.5zM174 301q0 -122 73 -196t197 -74q162 0 275 119q115 121 115 288q0 122 -73.5 196.5t-197.5 74.5q-156 0 -274 -121q-115 -121 -115 -287z" />
    <glyph glyph-name="nine" unicode="9" 
d="M338 18l418 627l-4 2q-75 -63 -211 -63q-145 0 -229.5 88t-84.5 237q0 202 125 351q126 153 324 153q147 0 231 -88.5t84 -243.5q0 -175 -143 -391l-449 -674q-10 -16 -28 -16h-23q-25 0 -10 18zM547 635q166 0 278 133q111 135 111 313q0 128 -70.5 204.5t-191.5 76.5
q-167 0 -281 -135q-110 -131 -110 -312q0 -128 71 -204t193 -76z" />
    <glyph glyph-name="colon" unicode=":" horiz-adv-x="399" 
d="M299 831h-51q-20 0 -17 21l17 98q3 21 22 21h52q19 0 16 -21l-16 -98q-3 -21 -23 -21zM84 20l16 99q3 20 23 20h51q19 0 16 -20l-16 -99q-3 -20 -22 -20h-52q-19 0 -16 20z" />
    <glyph glyph-name="semicolon" unicode=";" horiz-adv-x="399" 
d="M299 831h-51q-20 0 -17 21l17 98q3 21 22 21h52q19 0 16 -21l-16 -98q-3 -21 -23 -21zM152 -43l-64 -150q-6 -16 -20 -16q-18 0 -15 19l53 309q3 20 23 20h41q19 0 16 -20l-20 -115q-2 -16 -14 -47z" />
    <glyph glyph-name="less" unicode="&#x3c;" 
d="M879 238l-740 299q-20 9 -20 24v8q0 16 20 25l740 299q20 6 20 -14v-15q0 -17 -20 -26l-680 -271v-4l680 -270q20 -9 20 -27v-14q0 -20 -20 -14z" />
    <glyph glyph-name="equal" unicode="=" 
d="M885 735h-740q-20 0 -20 21v10q0 20 20 20h740q20 0 20 -20v-10q0 -21 -20 -21zM885 344h-740q-20 0 -20 21v10q0 20 20 20h740q20 0 20 -20v-10q0 -21 -20 -21z" />
    <glyph glyph-name="greater" unicode="&#x3e;" 
d="M891 537l-739 -299q-21 -6 -21 14v14q0 18 21 27l679 270v4l-679 271q-21 9 -21 26v15q0 20 21 14l739 -299q20 -9 20 -25v-8q0 -15 -20 -24z" />
    <glyph glyph-name="question" unicode="?" horiz-adv-x="862" 
d="M406 338h-17q-19 0 -16 20l16 82q24 123 107 213l108 115q115 121 160 202t45 167q0 104 -62 164.5t-163 60.5q-110 0 -195.5 -70.5t-128.5 -195.5q-7 -20 -24 -17l-17 4q-17 3 -10 23q44 143 145.5 225t237.5 82q126 0 198 -74t72 -198q0 -173 -196 -381l-109 -117
q-63 -69 -80 -100q-18 -34 -33 -103l-16 -82q-3 -20 -22 -20zM305 20l17 99q3 20 22 20h51q20 0 17 -20l-17 -99q-3 -20 -22 -20h-51q-20 0 -17 20z" />
    <glyph glyph-name="at" unicode="@" horiz-adv-x="1816" 
d="M123 391q0 422 250 690q251 269 657 269q297 0 479 -176q185 -176 185 -476q0 -146 -35 -274t-121 -217q-90 -90 -219 -90q-76 0 -132.5 49.5t-66.5 128.5h-2q-102 -178 -309 -178q-112 2 -177 70t-65 190q0 201 78 368q103 207 309 207q177 0 230 -139h4l16 100
q3 21 25 21h14q20 0 17 -21l-89 -501q-20 -113 24.5 -178.5t129.5 -65.5q112 0 186 92q127 156 127 430q0 291 -168 449q-166 159 -450 159q-369 0 -606 -249q-236 -248 -236 -650q0 -282 168 -444q170 -164 451 -164q223 0 432 105q15 9 22 -7l9 -16q6 -15 -13 -25
q-205 -108 -461 -108q-301 0 -483 176q-180 174 -180 475zM623 381q0 -213 192 -213q185 0 264 166q76 155 76 354q0 101 -48.5 157t-143.5 56q-186 0 -265 -166q-75 -153 -75 -354z" />
    <glyph glyph-name="A" unicode="A" horiz-adv-x="1161" 
d="M49 0h-24q-20 0 -11 20l711 1352q9 21 25 21h20q15 0 18 -21l230 -1352q3 -20 -19 -20h-16q-19 0 -22 20l-64 383h-618l-201 -383q-9 -20 -29 -20zM743 1290l-436 -833h580l-139 833h-5z" />
    <glyph glyph-name="B" unicode="B" horiz-adv-x="1193" 
d="M129 20l238 1352q3 21 22 21h422q155 0 240.5 -76t85.5 -213q0 -152 -79 -257t-214 -136v-4q82 -19 139 -90t57 -183q0 -202 -121 -318t-337 -116h-437q-19 0 -16 20zM324 737h381q174 0 275 99t101 260q0 118 -68.5 180.5t-201.5 62.5h-381q-11 0 -14 -12l-101 -577
q-3 -13 9 -13zM301 672l-106 -606q-3 -13 10 -13h387q183 0 288 102.5t105 272.5q0 120 -73 188t-210 68h-387q-11 0 -14 -12z" />
    <glyph glyph-name="C" unicode="C" horiz-adv-x="1087" 
d="M137 365q0 150 45 385q46 238 105 360q75 157 182 230t262 73q121 0 212.5 -65t131.5 -187q6 -16 -10 -22l-16 -6q-19 -10 -23 8q-77 219 -299 219q-259 0 -385 -262q-54 -110 -102 -353q-45 -226 -45 -370q0 -165 80.5 -253.5t234.5 -88.5q222 0 369 215q9 12 22 6
l19 -10q11 -8 2 -27q-150 -237 -420 -237q-172 0 -268.5 101t-96.5 284z" />
    <glyph glyph-name="D" unicode="D" horiz-adv-x="1239" 
d="M129 20l238 1352q3 21 22 21h395q375 0 375 -355q0 -145 -49 -397q-50 -258 -106 -373q-68 -141 -179 -204.5t-284 -63.5h-396q-19 0 -16 20zM416 1327l-221 -1261q-3 -13 8 -13h342q293 0 407 234q57 117 103 358q47 249 47 387q0 158 -80 232.5t-248 74.5h-344
q-11 0 -14 -12z" />
    <glyph glyph-name="E" unicode="E" horiz-adv-x="1085" 
d="M129 20l238 1352q3 21 22 21h735q20 0 17 -21l-2 -12q-3 -21 -25 -21h-684q-11 0 -14 -12l-101 -577q-3 -15 13 -15h587q20 0 17 -20l-2 -13q-3 -20 -25 -20h-590q-11 0 -14 -12l-106 -604q-3 -13 10 -13h684q19 0 16 -20l-2 -13q-3 -20 -24 -20h-734q-19 0 -16 20z" />
    <glyph glyph-name="F" unicode="F" horiz-adv-x="1073" 
d="M129 20l238 1352q3 21 22 21h735q20 0 17 -21l-2 -12q-3 -21 -25 -21h-684q-11 0 -14 -12l-103 -592q-3 -14 13 -14h587q20 0 17 -21l-2 -12q-3 -20 -25 -20h-590q-11 0 -14 -13l-113 -635q-3 -20 -22 -20h-19q-19 0 -16 20z" />
    <glyph glyph-name="G" unicode="G" horiz-adv-x="1181" 
d="M139 365q0 150 45 385q46 238 105 360q146 303 469 303q126 0 222 -62t136 -180q6 -16 -10 -22l-16 -6q-19 -10 -23 8q-77 209 -319 209q-278 0 -404 -262q-54 -110 -102 -353q-45 -226 -45 -370q0 -166 81 -254t236 -88q276 0 408 266q65 128 92 313q3 13 -10 13h-345
q-17 0 -14 20l2 14q3 19 21 19h393q17 0 14 -21l-10 -67q-29 -179 -90 -307q-75 -157 -188.5 -230t-280.5 -73q-174 0 -270.5 101t-96.5 284z" />
    <glyph glyph-name="H" unicode="H" horiz-adv-x="1273" 
d="M129 20l238 1352q3 21 22 21h19q19 0 16 -21l-111 -624q-3 -13 11 -13h731q11 0 14 13l111 624q3 21 22 21h19q19 0 16 -21l-238 -1352q-3 -20 -22 -20h-19q-19 0 -16 20l113 650q3 12 -8 12h-732q-11 0 -14 -12l-115 -650q-3 -20 -22 -20h-19q-19 0 -16 20z" />
    <glyph glyph-name="I" unicode="I" horiz-adv-x="460" 
d="M129 20l238 1352q3 21 22 21h19q19 0 16 -21l-238 -1352q-3 -20 -22 -20h-19q-19 0 -16 20z" />
    <glyph glyph-name="J" unicode="J" horiz-adv-x="915" 
d="M45 72q-16 12 0 28l10 11q15 15 31 2q106 -80 211 -80q303 0 367 358l172 981q3 21 22 21h19q19 0 16 -21l-174 -987q-71 -405 -428 -405q-137 0 -246 92z" />
    <glyph glyph-name="K" unicode="K" horiz-adv-x="1144" 
d="M129 20l238 1352q3 21 22 21h19q19 0 16 -21l-152 -864l848 864q21 21 39 21h29q8 0 10 -6.5t-4 -14.5l-524 -532l313 -820q9 -20 -14 -20h-23q-15 0 -24 20l-293 777l-373 -379l-70 -398q-3 -20 -22 -20h-19q-19 0 -16 20z" />
    <glyph glyph-name="L" unicode="L" horiz-adv-x="1024" 
d="M129 20l238 1352q3 21 22 21h19q19 0 16 -21l-229 -1306q-3 -13 8 -13h684q19 0 16 -20l-2 -13q-3 -20 -22 -20h-734q-19 0 -16 20z" />
    <glyph glyph-name="M" unicode="M" horiz-adv-x="1482" 
d="M129 20l238 1352q3 21 22 21h19q16 0 22 -21l283 -1081h4l659 1081q12 21 29 21h25q19 0 16 -21l-238 -1352q-3 -20 -22 -20h-19q-19 0 -16 20l215 1221h-4l-619 -1008q-11 -20 -34 -20h-9q-23 0 -30 23l-264 1011h-5l-215 -1227q-3 -20 -22 -20h-19q-19 0 -16 20z" />
    <glyph glyph-name="N" unicode="N" horiz-adv-x="1275" 
d="M129 20l238 1352q3 21 22 21h17q17 0 26 -21l524 -1251h5l221 1251q3 21 22 21h19q19 0 16 -21l-238 -1352q-3 -20 -22 -20h-14q-20 0 -29 20l-524 1258h-4l-222 -1258q-3 -20 -22 -20h-19q-19 0 -16 20z" />
    <glyph glyph-name="O" unicode="O" horiz-adv-x="1187" 
d="M506 -20q-174 0 -270.5 101t-96.5 284q0 150 45 385q46 238 105 360q146 303 467 303q173 0 269.5 -101t96.5 -284q0 -139 -47 -385q-47 -248 -102 -360q-146 -303 -467 -303zM514 33q278 0 404 262q54 111 102 352q45 226 45 371q0 166 -81 254t-236 88
q-278 0 -404 -262q-54 -110 -102 -353q-45 -226 -45 -370q0 -166 81 -254t236 -88z" />
    <glyph glyph-name="P" unicode="P" horiz-adv-x="1136" 
d="M164 0h-19q-19 0 -16 20l238 1352q3 21 22 21h422q163 0 251.5 -76t88.5 -213q0 -216 -131 -338q-129 -123 -340 -123h-373q-11 0 -14 -12l-107 -611q-3 -20 -22 -20zM317 696h365q193 2 303.5 108.5t110.5 295.5q0 239 -293 239h-373q-11 0 -14 -12l-109 -618
q-3 -13 10 -13z" />
    <glyph glyph-name="Q" unicode="Q" horiz-adv-x="1187" 
d="M934 -78l-8 -4q-19 -9 -27 4l-84 154q-125 -96 -309 -96q-174 0 -270.5 101t-96.5 284q0 150 45 385q46 238 105 360q146 303 467 303q173 0 269.5 -101t96.5 -284q0 -139 -47 -385q-47 -248 -102 -360q-50 -103 -119 -172l90 -162q11 -18 -10 -27zM514 33q162 0 274 92
l-114 209q-6 17 10 26l8 5q18 9 27 -5l108 -198q51 54 91 133q54 111 102 352q45 226 45 371q0 166 -81 254t-236 88q-278 0 -404 -262q-54 -110 -102 -353q-45 -226 -45 -370q0 -166 81 -254t236 -88z" />
    <glyph glyph-name="R" unicode="R" horiz-adv-x="1206" 
d="M963 0h-25q-17 0 -23 18l-184 639q-12 -2 -53 -2h-367q-11 0 -14 -12l-111 -623q-3 -20 -22 -20h-19q-19 0 -16 20l238 1352q3 21 22 21h420q164 0 251 -77t87 -220q0 -178 -95 -290.5t-268 -141.5l191 -644q6 -20 -12 -20zM319 709h369q193 0 298.5 102t105.5 281
q0 247 -293 247h-369q-11 0 -14 -12l-107 -606q-3 -12 10 -12z" />
    <glyph glyph-name="S" unicode="S" horiz-adv-x="1177" 
d="M496 -20q-119 0 -226 45q-112 47 -168 106q-9 16 2 27l11 10q15 15 28 2q155 -137 375 -137q202 0 324 104q123 105 123 279q0 118 -65.5 176.5t-229.5 83.5l-58 8q-321 46 -321 307q0 186 123 303q125 119 331 119q212 0 349 -110q15 -9 2 -29l-9 -10q-11 -14 -30 -2
q-143 98 -324 98q-170 0 -278 -105q-107 -101 -107 -256q0 -120 67.5 -180.5t233.5 -85.5l58 -8q168 -24 240.5 -97.5t72.5 -209.5q0 -200 -139.5 -319t-384.5 -119z" />
    <glyph glyph-name="T" unicode="T" horiz-adv-x="1005" 
d="M436 0h-18q-20 0 -17 20l230 1307q3 12 -8 12h-402q-17 0 -14 21l2 12q3 21 22 21h883q17 0 14 -21l-2 -12q-3 -21 -22 -21h-402q-11 0 -14 -12l-229 -1307q-3 -20 -23 -20z" />
    <glyph glyph-name="U" unicode="U" horiz-adv-x="1243" 
d="M233 475l158 897q3 21 23 21h18q20 0 17 -21l-158 -899q-77 -440 315 -440q191 0 295 102t146 338l157 899q3 21 23 21h18q20 0 17 -21l-158 -897q-44 -261 -164 -378t-338 -117q-219 0 -315 125.5t-54 369.5z" />
    <glyph glyph-name="V" unicode="V" horiz-adv-x="1095" 
d="M483 0h-18q-16 0 -19 20l-217 1340q-6 33 19 33h12q22 0 25 -23l204 -1274h3l645 1276q9 21 32 21h15q27 0 10 -33l-684 -1340q-11 -20 -27 -20z" />
    <glyph glyph-name="W" unicode="W" horiz-adv-x="1603" 
d="M1104 0h-17q-17 0 -20 20l-119 1250h-4l-561 -1250q-9 -20 -29 -20h-16q-18 0 -21 20l-73 1350q0 23 20 23h15q22 0 22 -23l68 -1247h4l555 1249q9 21 28 21h17q19 0 22 -21l117 -1249h4l506 1249q9 21 31 21h16q24 0 14 -23l-550 -1350q-9 -20 -29 -20z" />
    <glyph glyph-name="X" unicode="X" horiz-adv-x="1046" 
d="M879 0h-25q-17 0 -23 16l-260 660h-2l-495 -660q-13 -16 -25 -16h-33q-10 0 -12 6t4 14l539 715l-250 637q-9 21 12 21h27q13 0 20 -17l230 -583h2l434 583q14 17 27 17h28q10 0 12 -6.5t-4 -14.5l-475 -639l281 -713q9 -20 -12 -20z" />
    <glyph glyph-name="Y" unicode="Y" horiz-adv-x="995" 
d="M432 0h-18q-20 0 -17 20l97 553l-263 795q-6 25 17 25h12q20 0 29 -21l241 -729h5l499 729q12 21 35 21h16q10 0 13.5 -8.5t-2.5 -16.5l-545 -797l-96 -551q-3 -20 -23 -20z" />
    <glyph glyph-name="Z" unicode="Z" horiz-adv-x="1064" 
d="M856 0h-799q-19 0 -16 20l2 15q4 19 16 31l983 1271v2h-720q-20 0 -17 21l2 12q3 21 23 21h772q19 0 16 -21l-2 -14q-3 -15 -14 -29l-983 -1274v-2h747q20 0 17 -20l-2 -13q-3 -20 -25 -20z" />
    <glyph glyph-name="bracketleft" unicode="[" horiz-adv-x="577" 
d="M352 -172h-188q-20 0 -17 20l291 1647q3 21 23 21h188q20 0 17 -21l-2 -12q-3 -21 -23 -21h-141q-12 0 -15 -12l-274 -1556q-3 -13 10 -13h141q20 0 17 -20l-2 -13q-3 -20 -25 -20z" />
    <glyph glyph-name="backslash" unicode="\" horiz-adv-x="786" 
d="M543 -20h-15q-19 0 -22 20l-189 1393q-3 20 17 20h14q20 0 23 -20l188 -1393q3 -20 -16 -20z" />
    <glyph glyph-name="bracketright" unicode="]" horiz-adv-x="577" 
d="M199 -172h-189q-19 0 -16 20l2 13q3 20 22 20h142q11 0 14 13l275 1556q3 12 -11 12h-141q-19 0 -16 21l2 12q3 21 24 21h189q19 0 16 -21l-291 -1647q-3 -20 -22 -20z" />
    <glyph glyph-name="asciicircum" unicode="^" 
d="M934 600h-10q-18 0 -27 21l-334 708h-4l-332 -708q-9 -21 -26 -21h-11q-23 0 -14 21l352 751q9 21 29 21h10q20 0 29 -21l352 -751q9 -21 -14 -21z" />
    <glyph glyph-name="underscore" unicode="_" horiz-adv-x="870" 
d="M760 -182l-10 -54h-871l10 54h871z" />
    <glyph glyph-name="grave" unicode="`" horiz-adv-x="825" 
d="M711 1147h-4q-20 0 -31 20l-121 246q-5 7 -0.5 14t14.5 7h19q17 0 26 -21l111 -246q9 -20 -14 -20z" />
    <glyph glyph-name="a" unicode="a" horiz-adv-x="999" 
d="M715 0h-17q-19 0 -16 20l20 115h-2q-39 -71 -125 -113t-202 -42q-128 0 -198.5 62t-70.5 169q0 160 101.5 243t296.5 83h258q11 0 14 12l25 131q25 149 -19 204.5t-192 55.5q-159 0 -260 -84q-19 -16 -31 -4l-12 12q-13 12 2 27q109 100 309 100q167 0 227.5 -71
t30.5 -240l-117 -660q-3 -20 -22 -20zM387 31q131 0 225 73q99 73 117 185l33 184q3 12 -8 12h-250q-344 0 -344 -270q0 -87 58 -135.5t169 -48.5z" />
    <glyph glyph-name="b" unicode="b" 
d="M475 -20q-103 0 -172 50.5t-96 137.5h-2l-25 -148q-3 -20 -22 -20h-17q-19 0 -16 20l237 1352q3 21 23 21h16q20 0 17 -21l-99 -559h3q114 178 325 178q138 0 210.5 -81t72.5 -232q0 -126 -33 -258q-36 -143 -68 -209q-111 -231 -354 -231zM479 31q206 0 301 200
q44 83 68 213q26 124 26 232q0 264 -237 264q-207 0 -315 -217q-27 -59 -54 -201q-30 -153 -30 -239q0 -115 63.5 -183.5t177.5 -68.5z" />
    <glyph glyph-name="c" unicode="c" horiz-adv-x="921" 
d="M401 -20q-142 0 -215 83t-73 242q0 244 94 436q61 120 157 185t216 65q217 0 272 -196q6 -17 -10 -27l-15 -6q-18 -9 -24 10q-49 168 -232 168q-92 0 -177 -58t-134 -157q-92 -192 -92 -408q0 -286 242 -286q167 0 295 168q13 16 28 4l10 -8q15 -12 0 -31
q-141 -184 -342 -184z" />
    <glyph glyph-name="d" unicode="d" 
d="M731 0h-16q-20 0 -17 20l25 138h-2q-114 -178 -326 -178q-138 0 -210 81t-72 232q0 130 32 258q36 143 68 209q111 231 354 231q103 0 172.5 -50.5t96.5 -137.5h2l98 569q3 21 22 21h17q19 0 16 -21l-237 -1352q-3 -20 -23 -20zM406 31q207 0 315 217q25 55 53 198
q31 161 31 242q0 114 -64 183t-178 69q-206 0 -301 -201q-40 -77 -69 -213q-25 -134 -25 -231q0 -264 238 -264z" />
    <glyph glyph-name="e" unicode="e" horiz-adv-x="960" 
d="M412 -20q-146 0 -222.5 80.5t-76.5 230.5q0 265 94 457q57 118 153 180.5t218 62.5q132 0 209 -81t77 -228q0 -71 -18 -176q-3 -21 -25 -21h-622q-14 0 -17 -12q-14 -69 -14 -182q0 -125 62.5 -192.5t185.5 -67.5q174 0 307 145q16 16 29 6l12 -10q15 -12 -2 -29
q-138 -163 -350 -163zM209 537h575q12 0 15 12q12 68 12 125q0 266 -238 266q-214 0 -317 -213q-35 -72 -57 -178q-3 -12 10 -12z" />
    <glyph glyph-name="f" unicode="f" horiz-adv-x="585" 
d="M188 0h-18q-17 0 -14 20l157 887q3 13 -10 13h-115q-19 0 -16 20l2 10q3 21 25 21h114q12 0 15 12l22 133q27 170 86 223q60 54 199 54h41q19 0 16 -21l-2 -10q-3 -21 -24 -21h-35q-117 0 -158 -38q-41 -41 -65 -173l-27 -147q-3 -12 10 -12h211q19 0 16 -21l-2 -10
q-3 -20 -24 -20h-211q-9 0 -12 -13l-158 -887q-3 -20 -23 -20z" />
    <glyph glyph-name="g" unicode="g" horiz-adv-x="1015" 
d="M344 -389q-190 0 -270 147q-12 21 8 29l14 6q17 7 27 -10q77 -121 229 -121q284 0 342 346l25 144h-2q-102 -172 -314 -172q-134 0 -206 79.5t-72 221.5q0 107 27 245q26 135 75 234q114 231 348 231q101 0 168 -51.5t91 -136.5h2l24 147q3 21 25 21h14q19 0 16 -21
l-167 -946q-37 -206 -137.5 -299.5t-266.5 -93.5zM414 31q200 0 295 194q37 76 63 226q31 161 31 237q0 113 -62 182.5t-170 69.5q-200 0 -295 -201q-96 -212 -96 -456q0 -120 59 -186t175 -66z" />
    <glyph glyph-name="h" unicode="h" horiz-adv-x="1056" 
d="M774 0h-18q-18 0 -15 20l107 582q31 176 -22 257t-195 81q-114 0 -217 -86q-100 -81 -125 -217l-109 -617q-3 -20 -22 -20h-19q-17 0 -14 20l237 1352q3 21 23 21h16q20 0 17 -21l-96 -553h2q111 172 317 172q160 0 228 -95.5t36 -279.5l-108 -596q-3 -20 -23 -20z" />
    <glyph glyph-name="i" unicode="i" horiz-adv-x="452" 
d="M393 1274h-41q-19 0 -16 20l14 78q3 21 23 21h45q17 0 14 -21l-14 -78q-3 -20 -25 -20zM158 0h-17q-19 0 -16 20l164 930q3 21 22 21h17q19 0 16 -21l-164 -930q-3 -20 -22 -20z" />
    <glyph glyph-name="j" unicode="j" horiz-adv-x="452" 
d="M393 1274h-41q-19 0 -16 20l14 78q3 21 23 21h45q17 0 14 -21l-14 -78q-3 -20 -25 -20zM-96 -369h-8q-20 0 -17 21l2 10q3 21 25 21h6q91 0 128 34.5t56 137.5l193 1095q3 21 22 21h17q19 0 16 -21l-192 -1095q-23 -130 -76 -177t-172 -47z" />
    <glyph glyph-name="k" unicode="k" horiz-adv-x="962" 
d="M780 0h-16q-18 0 -27 20l-227 555l-283 -286l-47 -269q-3 -20 -22 -20h-19q-17 0 -14 20l237 1352q3 21 23 21h16q20 0 17 -21l-176 -997l567 577q19 19 35 19h28q10 0 12.5 -6.5t-5.5 -14.5l-328 -334l246 -596q4 -20 -17 -20z" />
    <glyph glyph-name="l" unicode="l" horiz-adv-x="485" 
d="M324 -4h-27q-87 0 -117.5 47t-11.5 152l215 1177q3 21 23 21h16q19 0 16 -21l-215 -1177q-14 -85 3.5 -116.5t78.5 -31.5h29q19 0 16 -20l-2 -11q-3 -20 -24 -20z" />
    <glyph glyph-name="m" unicode="m" horiz-adv-x="1675" 
d="M1393 0h-15q-21 0 -18 20l106 582q31 176 -22 257t-195 81q-115 0 -219 -84q-102 -82 -123 -221l-108 -615q-3 -20 -23 -20h-16q-20 0 -17 20l103 582q31 173 -21.5 255.5t-193.5 82.5q-114 0 -217 -86q-100 -81 -125 -217l-109 -617q-3 -20 -22 -20h-17q-19 0 -16 20
l164 930q3 21 22 21h17q19 0 16 -21l-22 -131h2q111 172 317 172q241 0 268 -205h2q51 94 142.5 149.5t206.5 55.5q161 0 228.5 -95t35.5 -280l-109 -596q-3 -20 -22 -20z" />
    <glyph glyph-name="n" unicode="n" horiz-adv-x="1056" 
d="M774 0h-18q-18 0 -15 20l107 582q31 176 -22 257t-195 81q-114 0 -217 -86q-100 -81 -125 -217l-109 -617q-3 -20 -22 -20h-19q-17 0 -14 20l164 930q3 21 22 21h17q19 0 16 -21l-22 -131h2q111 172 317 172q160 0 228 -95.5t36 -279.5l-108 -596q-3 -20 -23 -20z" />
    <glyph glyph-name="o" unicode="o" horiz-adv-x="980" 
d="M412 -20q-148 0 -223.5 83t-75.5 238q0 109 30 244q35 141 68 211q113 235 371 235q148 0 223.5 -83t75.5 -238q0 -114 -33 -246q-29 -130 -66 -209q-113 -235 -370 -235zM420 31q211 0 317 213q34 74 58 188q30 129 30 223q0 285 -252 285q-211 0 -317 -213
q-31 -67 -59 -188q-29 -139 -29 -224q0 -284 252 -284z" />
    <glyph glyph-name="p" unicode="p" 
d="M92 -369h-16q-20 0 -17 21l230 1298q3 21 22 21h17q19 0 16 -21l-25 -137h3q114 178 325 178q138 0 210.5 -81t72.5 -232q0 -126 -33 -258q-36 -143 -68 -209q-111 -231 -354 -231q-103 0 -172 50.5t-96 137.5h-2l-90 -516q-3 -21 -23 -21zM479 31q206 0 301 200
q44 83 68 213q26 124 26 232q0 264 -237 264q-207 0 -315 -217q-27 -59 -54 -201q-30 -153 -30 -239q0 -115 63.5 -183.5t177.5 -68.5z" />
    <glyph glyph-name="q" unicode="q" 
d="M666 -369h-17q-19 0 -16 21l88 500h-2q-114 -172 -324 -172q-139 0 -210.5 80t-71.5 233q0 128 32 256q35 139 70 211q111 231 354 231q215 0 267 -184h2l24 143q3 21 23 21h16q20 0 17 -21l-230 -1298q-3 -21 -22 -21zM406 31q207 0 315 217q25 55 53 198q31 161 31 242
q0 115 -63.5 183.5t-178.5 68.5q-204 0 -299 -201q-41 -80 -69 -215q-27 -129 -27 -229q0 -264 238 -264z" />
    <glyph glyph-name="r" unicode="r" horiz-adv-x="757" 
d="M158 0h-17q-19 0 -16 20l164 930q3 21 22 21h17q19 0 16 -21l-25 -143h3q37 86 111.5 135t172.5 49q106 0 176 -61q11 -11 -2 -27l-10 -12q-13 -13 -29 0q-70 49 -147 49q-126 0 -209 -111q-83 -112 -109 -264l-96 -545q-3 -20 -22 -20z" />
    <glyph glyph-name="s" unicode="s" horiz-adv-x="931" 
d="M406 -20q-203 0 -332 129q-12 12 2 26l12 10q15 15 27 0q135 -114 295 -114q149 0 239 75.5t90 200.5q0 74 -44.5 111t-153.5 49l-90 10q-236 27 -236 211q0 132 98 217q100 86 262 86q154 0 279 -82q11 -8 2 -24l-6 -11q-10 -16 -33 -6q-129 72 -248 72
q-130 0 -214.5 -70.5t-84.5 -179.5q0 -74 49.5 -113t161.5 -51l90 -10q224 -24 224 -203q0 -152 -106 -242.5t-283 -90.5z" />
    <glyph glyph-name="t" unicode="t" horiz-adv-x="591" 
d="M416 -4h-33q-126 0 -169 56t-19 194l127 661q3 13 -11 13h-114q-20 0 -17 20l2 10q3 21 25 21h115q11 0 14 12l49 287q3 20 23 20h16q19 0 16 -20l-49 -287q-3 -12 10 -12h195q19 0 16 -21l-2 -10q-3 -20 -24 -20h-195q-11 0 -14 -13l-125 -653q-23 -122 6.5 -164.5
t134.5 -42.5h33q19 0 16 -20l-2 -11q-3 -20 -24 -20z" />
    <glyph glyph-name="u" unicode="u" horiz-adv-x="1044" 
d="M326 971h18q17 0 14 -21l-106 -581q-30 -176 21.5 -257t189.5 -81q109 0 213 84q104 87 125 219l108 616q3 21 23 21h18q18 0 15 -21l-164 -930q-3 -20 -23 -20h-16q-20 0 -17 20l23 132h-2q-51 -82 -133.5 -127t-179.5 -45q-159 0 -224.5 95t-33.5 279l108 596
q3 21 23 21z" />
    <glyph glyph-name="v" unicode="v" horiz-adv-x="903" 
d="M381 0h-21q-13 0 -16 20l-178 930q-3 21 16 21h17q19 0 22 -21l164 -860h2l465 860q9 21 29 21h20q19 0 10 -21l-505 -930q-9 -20 -25 -20z" />
    <glyph glyph-name="w" unicode="w" horiz-adv-x="1431" 
d="M946 0h-12q-18 0 -21 20l-120 863h-2l-426 -863q-11 -20 -29 -20h-12q-18 0 -21 20l-125 930q-3 21 17 21h14q19 0 22 -21l115 -852h2l420 852q9 21 27 21h14q19 0 22 -21l125 -852h2l412 852q9 21 29 21h16q21 0 12 -21l-454 -930q-9 -20 -27 -20z" />
    <glyph glyph-name="x" unicode="x" horiz-adv-x="874" 
d="M717 0h-21q-16 0 -22 14l-211 451h-2l-373 -451q-11 -14 -27 -14h-28q-20 0 -6 20l409 492l-207 438q-9 21 13 21h20q17 0 23 -15l188 -399h2l330 399q12 15 29 15h24q21 0 6 -21l-366 -444l233 -486q9 -20 -14 -20z" />
    <glyph glyph-name="y" unicode="y" horiz-adv-x="903" 
d="M43 -369h-31q-19 0 -16 21l2 10q3 21 25 21h32q68 0 113 45q52 49 121 178l59 108l-180 936q-3 21 16 21h17q19 0 22 -21l164 -860h2l465 860q9 21 29 21h20q19 0 10 -21l-577 -1063q-80 -152 -148 -204q-61 -52 -145 -52z" />
    <glyph glyph-name="z" unicode="z" horiz-adv-x="901" 
d="M692 0h-631q-19 0 -16 20l2 13q3 17 16 30l738 855v2h-553q-20 0 -17 20l2 10q3 21 23 21h606q20 0 17 -21l-2 -12q-3 -12 -19 -31l-737 -854v-2h579q20 0 17 -20l-2 -11q-3 -20 -23 -20z" />
    <glyph glyph-name="braceleft" unicode="{" horiz-adv-x="600" 
d="M381 -172h-41q-85 0 -114.5 46t-10.5 151l78 446q30 169 -68 178q-20 3 -16 21l2 14q3 18 22 18q54 5 84 42.5t48 136.5l79 446q19 103 62.5 146t128.5 43h45q19 0 16 -21l-2 -10q-3 -21 -24 -21h-41q-110 0 -131 -139l-74 -424q-20 -113 -46.5 -159.5t-78.5 -67.5v-4
q80 -48 45 -224l-76 -432q-13 -77 4.5 -106t73.5 -29h45q20 0 17 -20l-2 -11q-3 -20 -25 -20z" />
    <glyph glyph-name="bar" unicode="|" horiz-adv-x="493" 
d="M289 -172h-15q-20 0 -20 20v1647q0 21 20 21h15q20 0 20 -21v-1647q0 -20 -20 -20z" />
    <glyph glyph-name="braceright" unicode="}" horiz-adv-x="600" 
d="M55 -172h-45q-19 0 -16 20l2 11q3 20 24 20h41q111 0 132 139l75 433q20 113 46.5 159.5t78.5 67.5v4q-79 48 -45 223l74 424q13 77 -4.5 106t-73.5 29h-45q-19 0 -16 21l2 10q3 21 24 21h41q85 0 114.5 -46t10.5 -151l-76 -438q-30 -170 68 -179q19 -3 16 -20l-2 -14
q-3 -19 -22 -19q-54 -5 -83.5 -42t-47.5 -136l-82 -455q-19 -102 -62.5 -145t-128.5 -43z" />
    <glyph glyph-name="asciitilde" unicode="~" 
d="M709 463q-85 0 -195 84q-92 69 -160 69q-100 0 -176 -120q-10 -17 -26 -7l-9 5q-15 9 -6 28q77 144 221 144q85 0 195 -84q94 -70 160 -70q99 0 176 121q10 16 26 6l9 -4q16 -9 6 -29q-76 -143 -221 -143z" />
    <glyph glyph-name="uni00A0" unicode="&#xa0;" horiz-adv-x="491" 
 />
    <glyph glyph-name="exclamdown" unicode="&#xa1;" horiz-adv-x="485" 
d="M272 625h13q19 0 16 -21l-174 -1005q-3 -21 -23 -21h-20q-19 0 -16 21l182 1005q3 21 22 21zM383 950l-18 -98q-3 -21 -23 -21h-51q-20 0 -17 21l17 98q6 21 24 21h52q19 0 16 -21z" />
    <glyph glyph-name="cent" unicode="&#xa2;" 
d="M420 -211h-12q-20 0 -17 21l29 172q-256 18 -256 323q0 244 94 436q114 230 340 248l31 172q3 21 22 21h13q19 0 16 -21l-31 -170q210 -9 262 -196q6 -17 -10 -27l-14 -6q-19 -9 -25 10q-49 162 -221 168l-160 -909q158 6 283 168q13 17 29 4l10 -8q15 -12 0 -31
q-138 -178 -332 -184l-29 -170q-3 -21 -22 -21zM219 317q0 -269 211 -284l160 905q-87 -11 -162 -67t-117 -146q-92 -192 -92 -408z" />
    <glyph glyph-name="sterling" unicode="&#xa3;" 
d="M776 0h-614q-20 0 -17 20l2 15q3 9 15 18q54 49 81 101.5t44 140.5l57 328q3 12 -10 12h-98q-20 0 -17 20l2 11q3 20 25 20h98q11 0 14 12l66 373q59 342 321 342q104 0 166 -62t72 -177q0 -22 -16 -25l-15 -4q-20 -6 -20 14q-6 97 -57 150t-132 53q-104 0 -172.5 -74
t-93.5 -215l-65 -375q-3 -12 8 -12h282q20 0 17 -20l-2 -11q-3 -20 -25 -20h-282q-10 0 -13 -12l-57 -330q-27 -173 -119 -240v-2h561q20 0 17 -20l-2 -11q-3 -20 -21 -20z" />
    <glyph glyph-name="currency" unicode="&#xa4;" 
d="M903 248l-10 -8q-17 -17 -27 0l-112 135q-113 -84 -250 -84q-139 0 -221 88l-160 -139q-15 -12 -27 0l-10 12q-12 12 4 27l162 139q-47 77 -47 172q0 198 135 330l-107 135q-12 14 3 26l10 9q16 16 26 0l111 -134q110 82 248 82q137 0 219 -88l162 140q14 12 26 0l11 -13
q11 -11 -5 -26l-161 -142q47 -71 47 -170q0 -195 -135 -327l110 -138q12 -15 -2 -26zM506 342q153 0 262 115t109 276q0 113 -69 183.5t-179 70.5q-153 0 -262 -115t-109 -276q0 -113 69 -183.5t179 -70.5z" />
    <glyph glyph-name="yen" unicode="&#xa5;" 
d="M455 0h-15q-19 0 -16 20l57 320q3 14 -10 14h-268q-20 0 -17 21l2 10q3 21 25 21h268q12 0 15 12l24 151q3 13 -10 13h-268q-20 0 -17 20l2 10q3 21 25 21h254v2l-199 733q-6 25 17 25h16q19 0 25 -21l194 -725h4l445 725q12 21 34 21h13q29 0 10 -29l-451 -729v-2h254
q20 0 17 -21l-2 -10q-3 -20 -25 -20h-270q-12 0 -15 -13l-24 -151q-3 -12 8 -12h272q20 0 17 -21l-2 -10q-3 -21 -25 -21h-272q-9 0 -12 -12l-58 -322q-3 -20 -22 -20z" />
    <glyph glyph-name="brokenbar" unicode="&#xa6;" horiz-adv-x="493" 
d="M289 795h-15q-20 0 -20 20v680q0 21 20 21h15q20 0 20 -21v-680q0 -20 -20 -20zM289 -172h-15q-20 0 -20 20v689q0 20 20 20h15q20 0 20 -20v-689q0 -20 -20 -20z" />
    <glyph glyph-name="section" unicode="&#xa7;" horiz-adv-x="997" 
d="M371 -393q-140 0 -202 80t-42 227q3 22 18 25l19 2q10 1 14 -4t2 -13q-43 -266 201 -266q125 0 204 83t79 216q0 92 -55 139.5t-193 73.5q-213 41 -213 256q0 168 81 288t220 146v2q-69 26 -107.5 81.5t-38.5 127.5q0 153 90 249.5t246 96.5q120 0 182.5 -73t43.5 -199
q-3 -20 -21 -23l-16 -2q-10 -1 -14.5 4t-2.5 13q18 105 -29 167t-153 62q-122 0 -196 -79.5t-74 -205.5q0 -83 54 -133.5t177 -79.5q213 -47 213 -258q0 -163 -77.5 -281.5t-211.5 -150.5v-2q150 -52 150 -211q0 -155 -98 -256q-95 -102 -250 -102zM479 217q147 0 236 111
q88 110 88 274q0 102 -60 159.5t-161 57.5q-148 0 -236 -110t-88 -275q0 -102 60 -159.5t161 -57.5z" />
    <glyph glyph-name="dieresis" unicode="&#xa8;" horiz-adv-x="821" 
d="M780 1274h-45q-19 0 -16 20l14 78q3 21 23 21h45q19 0 16 -21l-14 -78q-3 -20 -23 -20zM385 1274h-45q-19 0 -16 20l14 78q3 21 22 21h46q19 0 16 -21l-14 -78q-3 -20 -23 -20z" />
    <glyph glyph-name="copyright" unicode="&#xa9;" horiz-adv-x="1705" 
d="M1405 184q-204 -204 -510 -204q-308 0 -512 204q-205 205 -205 512q0 305 205 510q207 207 512 207q303 0 510 -207t207 -510q0 -305 -207 -512zM895 31q283 0 471 188q190 190 190 477q0 288 -190 475q-188 191 -471 191q-284 0 -475 -191q-189 -189 -189 -475
q0 -285 189 -477q191 -188 475 -188zM905 295q-213 0 -278 203q-23 77 -23 198q0 122 23 199q65 203 278 203q89 0 158.5 -43t107.5 -115q10 -16 -8 -25l-8 -4q-18 -6 -27 9q-76 129 -223 129q-179 0 -231 -168q-21 -61 -21 -185q0 -122 21 -184q52 -168 231 -168
q147 0 223 129q8 14 27 8l8 -4q17 -9 8 -24q-38 -72 -107.5 -115t-158.5 -43z" />
    <glyph glyph-name="ordfeminine" unicode="&#xaa;" horiz-adv-x="671" 
d="M580 803h-11q-19 0 -16 20l8 47h-2q-61 -79 -203 -79q-78 0 -125 40t-47 107q0 100 70 152.5t192 52.5h150q11 0 14 12l11 57q14 79 -16.5 113.5t-121.5 34.5q-87 0 -161 -51q-22 -16 -29 2l-4 10q-9 19 8 29q75 57 199 57q109 0 150 -49t22 -154l-68 -381
q-3 -20 -20 -20zM373 838q73 0 134.5 41.5t72.5 93.5l18 110q3 13 -10 13h-146q-97 0 -151.5 -39.5t-54.5 -112.5q0 -49 37 -77.5t100 -28.5z" />
    <glyph glyph-name="guillemotleft" unicode="&#xab;" horiz-adv-x="976" 
d="M760 201l-250 325q-13 16 4 29l365 324q6 6 13 2.5t5 -11.5l-4 -30q-3 -19 -19 -35l-290 -260q-7 -7 -4 -17l196 -260q11 -17 8 -35l-4 -26q0 -9 -8.5 -10.5t-11.5 4.5zM387 201l-250 325q-13 16 4 29l365 324q6 6 13 2.5t5 -11.5l-4 -30q-3 -20 -18 -35l-291 -260
q-7 -7 -4 -17l196 -260q11 -19 9 -35l-4 -26q0 -9 -9 -10.5t-12 4.5z" />
    <glyph glyph-name="logicalnot" unicode="&#xac;" 
d="M885 268h-15q-20 0 -20 21v239q0 13 -12 13h-693q-20 0 -20 20v10q0 21 20 21h740q20 0 20 -21v-282q0 -21 -20 -21z" />
    <glyph glyph-name="uni00AD" unicode="&#xad;" horiz-adv-x="722" 
d="M618 522h-483q-19 0 -16 21l2 12q3 16 22 16h484q19 0 16 -20l-2 -12q-3 -17 -23 -17z" />
    <glyph glyph-name="registered" unicode="&#xae;" horiz-adv-x="952" 
d="M850 727q-113 -113 -283 -113q-169 0 -282 113q-111 114 -111 283t111 280q113 113 282 113q170 0 283 -113q113 -110 113 -280t-113 -283zM221 1010q0 -151 98 -252q99 -99 248 -99q150 0 248 101q100 100 100 250t-100 247q-98 101 -248 101t-248 -101
q-98 -98 -98 -247zM457 791h-8q-19 0 -19 18v405q0 19 19 19h153q61 0 96 -34t35 -89q0 -102 -90 -123l88 -176q9 -20 -10 -20h-19q-12 0 -20 14l-90 180h-111q-6 0 -6 -4v-172q0 -18 -18 -18zM481 1028h121q86 0 86 82q0 80 -86 80h-121q-6 0 -6 -4v-154q0 -4 6 -4z" />
    <glyph glyph-name="overscore" unicode="&#xaf;" horiz-adv-x="821" 
d="M795 1305h-461q-20 0 -17 20l2 10q3 21 23 21h461q19 0 16 -21l-2 -10q-3 -20 -22 -20z" />
    <glyph glyph-name="degree" unicode="&#xb0;" horiz-adv-x="858" 
d="M250 1114q0 124 82 206.5t207 82.5q124 0 205 -82t81 -207q0 -123 -82 -205q-79 -82 -204 -82t-207 82t-82 205zM305 1114q0 -100 67 -167.5t167 -67.5t165.5 66.5t65.5 168.5q0 103 -65.5 170.5t-165.5 67.5t-167 -68t-67 -170z" />
    <glyph glyph-name="plusminus" unicode="&#xb1;" 
d="M522 174h-14q-21 0 -21 21v333q0 13 -12 13h-330q-20 0 -20 20v10q0 21 20 21h330q12 0 12 12v334q0 20 21 20h14q21 0 21 -20v-334q0 -12 12 -12h330q20 0 20 -21v-10q0 -20 -20 -20h-330q-12 0 -12 -13v-333q0 -21 -21 -21zM885 0h-740q-20 0 -20 20v11q0 20 20 20h740
q20 0 20 -20v-11q0 -20 -20 -20z" />
    <glyph glyph-name="twosuperior" unicode="&#xb2;" horiz-adv-x="634" 
d="M606 881h-424q-19 0 -16 20l2 8q4 17 16 29l387 395q109 115 109 209q0 61 -37 97t-100 36q-137 0 -195 -143q-6 -19 -24 -16l-13 2q-16 3 -10 24q27 80 93.5 131t152.5 51q84 0 134 -49.5t50 -124.5q0 -124 -123 -250l-364 -368v-2h370q20 0 17 -21l-2 -8
q-3 -20 -23 -20z" />
    <glyph glyph-name="threesuperior" unicode="&#xb3;" horiz-adv-x="634" 
d="M393 868q-84 0 -138 45.5t-65 114.5q-3 22 15 25l12 4q20 7 23 -15q21 -124 159 -124q92 0 154.5 64.5t62.5 158.5q0 67 -41 108t-110 41h-33q-17 0 -14 21l2 10q3 18 22 18h27q80 0 140.5 61t60.5 146q0 58 -37.5 93.5t-102.5 35.5q-131 0 -186 -116q-10 -20 -25 -17
l-12 2q-16 3 -10 25q31 70 92 112.5t148 42.5q86 0 135 -46.5t49 -125.5q0 -162 -150 -235v-2q41 -20 69 -64t28 -102q0 -122 -76.5 -201.5t-198.5 -79.5z" />
    <glyph glyph-name="acute" unicode="&#xb4;" horiz-adv-x="821" 
d="M455 1147h-9q-20 0 -6 20l193 246q15 21 37 21h22q8 0 11 -7t-3 -14l-208 -246q-17 -20 -37 -20z" />
    <glyph glyph-name="mu" unicode="&#xb5;" horiz-adv-x="1067" 
d="M94 -369h-18q-20 0 -17 19l230 1302q3 19 22 19h19q17 0 14 -19l-111 -614q-8 -39 -8 -92q0 -215 228 -215q110 0 213 80q102 82 129 233l106 608q3 19 23 19h20q15 0 12 -19l-131 -747q-10 -72 -10 -94q0 -39 12 -51.5t43 -12.5q20 0 17 -20l-2 -11q-3 -20 -25 -20h-6
q-98 0 -98 110l4 46h-2q-51 -80 -135.5 -126t-180.5 -46q-182 0 -243 147h-2l-82 -477q-3 -19 -21 -19z" />
    <glyph glyph-name="paragraph" unicode="&#xb6;" horiz-adv-x="1036" 
d="M672 -369h-17q-19 0 -16 21l295 1677q3 12 -10 12h-215q-10 0 -13 -12l-295 -1677q-3 -21 -22 -21h-17q-19 0 -16 21l160 905q-147 7 -230 96t-83 232q0 219 143 362q146 146 369 146h276q19 0 16 -21l-303 -1720q-3 -21 -22 -21z" />
    <glyph glyph-name="middot" unicode="&#xb7;" horiz-adv-x="399" 
d="M233 475h-51q-19 0 -16 21l16 98q3 20 23 20h51q19 0 16 -20l-16 -98q-3 -21 -23 -21z" />
    <glyph glyph-name="cedilla" unicode="&#xb8;" horiz-adv-x="821" 
d="M246 -295h-17q-21 0 -12 21l152 274q11 20 28 20h11q21 0 12 -20l-139 -274q-9 -21 -35 -21z" />
    <glyph glyph-name="onesuperior" unicode="&#xb9;" horiz-adv-x="634" 
d="M430 881h-10q-20 0 -17 20l129 741h-2l-157 -100q-19 -6 -19 10l2 17q3 18 19 28l157 103q18 12 33 12h10q22 0 19 -20l-139 -791q-3 -20 -25 -20z" />
    <glyph glyph-name="ordmasculine" unicode="&#xba;" horiz-adv-x="671" 
d="M393 788q-92 0 -142 55t-50 158q0 137 55 250q76 156 242 156q92 0 142 -55t50 -158q0 -137 -55 -250q-77 -156 -242 -156zM399 836q123 0 191 127q49 94 49 227q0 170 -145 170q-125 0 -193 -127q-49 -94 -49 -227q0 -170 147 -170z" />
    <glyph glyph-name="guillemotright" unicode="&#xbb;" horiz-adv-x="976" 
d="M874 524l-364 -323q-6 -6 -13 -3t-5 11l4 31q3 19 18 34l291 261q7 7 4 16l-197 260q-10 17 -8 35l4 26q0 9 9 11t12 -4l250 -326q12 -15 -5 -29zM502 524l-365 -323q-6 -6 -13 -3t-5 11l4 31q3 19 18 34l291 261q7 7 4 16l-196 260q-11 19 -9 35l5 26q0 9 8.5 11
t11.5 -4l250 -326q13 -16 -4 -29z" />
    <glyph glyph-name="onequarter" unicode="&#xbc;" horiz-adv-x="1609" 
d="M1245 0h-14q-17 0 -14 20l24 142q3 12 -10 12h-318q-19 0 -16 21l2 10q5 14 14 28l373 578q11 20 27 20h22q8 0 11 -6.5t-3 -13.5l-378 -586v-2h274q11 0 14 13l39 221q3 20 23 20h14q17 0 14 -20l-36 -221q-3 -13 10 -13h86q19 0 16 -20l-2 -10q-3 -19 -20 -19h-90
q-12 0 -15 -12l-24 -142q-3 -20 -23 -20zM424 561h-10q-20 0 -17 21l129 741h-2l-157 -100q-19 -6 -19 10l2 16q3 20 19 29l157 102q19 13 33 13h10q22 0 19 -21l-139 -790q-3 -21 -25 -21zM346 -20h-18q-23 0 -9 20l1018 1393q14 20 31 20h18q23 0 9 -20l-1016 -1393
q-17 -20 -33 -20z" />
    <glyph glyph-name="onehalf" unicode="&#xbd;" horiz-adv-x="1665" 
d="M1419 0h-424q-19 0 -16 20l2 9q4 16 16 28l387 396q109 115 109 209q0 61 -37 97t-100 36q-136 0 -195 -144q-6 -19 -24 -16l-13 2q-16 3 -10 25q27 80 93.5 131t152.5 51q84 0 134 -49.5t50 -124.5q0 -124 -123 -250l-364 -369v-2h370q20 0 17 -20l-2 -9q-3 -20 -23 -20
zM424 561h-10q-20 0 -17 21l129 741h-2l-157 -100q-19 -6 -19 10l2 16q3 20 19 29l157 102q19 13 33 13h10q22 0 19 -21l-139 -790q-3 -21 -25 -21zM346 -20h-18q-23 0 -9 20l1018 1393q14 20 31 20h18q23 0 9 -20l-1016 -1393q-17 -20 -33 -20z" />
    <glyph glyph-name="threequarters" unicode="&#xbe;" horiz-adv-x="1746" 
d="M1370 0h-14q-18 0 -15 20l25 142q3 12 -10 12h-318q-19 0 -16 21l2 10q5 14 14 28l373 578q11 20 27 20h22q8 0 11 -6.5t-3 -13.5l-378 -586v-2h274q11 0 14 13l39 221q3 20 23 20h14q17 0 14 -20l-36 -221q-3 -13 10 -13h86q19 0 16 -20l-2 -10q-3 -19 -20 -19h-90
q-12 0 -15 -12l-24 -142q-3 -20 -23 -20zM457 549q-84 0 -138 45.5t-65 114.5q-3 21 14 24l13 4q19 6 22 -14q21 -125 160 -125q92 0 154.5 64.5t62.5 158.5q0 67 -42 108.5t-110 41.5h-32q-18 0 -15 20l2 10q3 19 23 19h26q80 0 140.5 61t60.5 146q0 58 -37 93.5t-102 35.5
q-130 0 -186 -117q-10 -19 -25 -16l-12 2q-17 3 -11 24q31 70 92.5 113t147.5 43t135 -46.5t49 -125.5q0 -163 -149 -236v-2q41 -20 68.5 -64t27.5 -102q0 -122 -76 -201t-198 -79zM471 -20h-18q-23 0 -9 20l1018 1393q14 20 31 20h18q23 0 9 -20l-1016 -1393
q-17 -20 -33 -20z" />
    <glyph glyph-name="questiondown" unicode="&#xbf;" horiz-adv-x="862" 
d="M477 633h17q19 0 16 -21l-16 -82q-24 -123 -107 -213l-108 -114q-115 -121 -160 -202t-45 -167q0 -104 62 -164.5t163 -60.5q110 0 195.5 70.5t128.5 195.5q6 19 24 16l17 -4q16 -3 10 -22q-44 -143 -145.5 -225t-237.5 -82q-126 0 -198.5 74t-72.5 198q0 172 197 381
l109 117q61 67 77 98q20 35 35 104l17 82q3 21 22 21zM578 950l-17 -98q-3 -21 -22 -21h-52q-19 0 -16 21l16 98q3 21 23 21h51q20 0 17 -21z" />
    <glyph glyph-name="Agrave" unicode="&#xc0;" horiz-adv-x="1161" 
d="M49 0h-24q-20 0 -11 20l711 1352q9 21 25 21h20q15 0 18 -21l230 -1352q3 -20 -19 -20h-16q-19 0 -22 20l-64 383h-618l-201 -383q-9 -20 -29 -20zM743 1290l-436 -833h580l-139 833h-5zM774 1569h-6q-19 0 -33 20l-131 209q-4 8 -1 14.5t11 6.5h21q19 0 31 -21l118 -209
q14 -20 -10 -20z" />
    <glyph glyph-name="Aacute" unicode="&#xc1;" horiz-adv-x="1161" 
d="M49 0h-24q-20 0 -11 20l711 1352q9 21 25 21h20q15 0 18 -21l230 -1352q3 -20 -19 -20h-16q-19 0 -22 20l-64 383h-618l-201 -383q-9 -20 -29 -20zM743 1290l-436 -833h580l-139 833h-5zM793 1569h-11q-24 0 -2 22l187 207q18 21 39 21h22q10 0 12 -6.5t-6 -14.5
l-203 -209q-20 -20 -38 -20z" />
    <glyph glyph-name="Acircumflex" unicode="&#xc2;" horiz-adv-x="1161" 
d="M49 0h-24q-20 0 -11 20l711 1352q9 21 25 21h20q15 0 18 -21l230 -1352q3 -20 -19 -20h-16q-19 0 -22 20l-64 383h-618l-201 -383q-9 -20 -29 -20zM743 1290l-436 -833h580l-139 833h-5zM991 1548h-8q-19 0 -29 19l-114 213h-4l-193 -213q-16 -19 -35 -19h-10
q-8 0 -9.5 7t5.5 14l211 246q15 18 33 18h10q15 0 24 -18l127 -246q12 -21 -8 -21z" />
    <glyph glyph-name="Atilde" unicode="&#xc3;" horiz-adv-x="1161" 
d="M49 0h-24q-20 0 -11 20l711 1352q9 21 25 21h20q15 0 18 -21l230 -1352q3 -20 -19 -20h-16q-19 0 -22 20l-64 383h-618l-201 -383q-9 -20 -29 -20zM743 1290l-436 -833h580l-139 833h-5zM909 1630q-52 0 -104 43q-46 37 -84 37q-49 0 -119 -70q-6 -6 -12 -3.5t-4 10.5
l4 28q3 17 18 29q59 53 123 53q53 0 105 -43q46 -37 84 -37q48 0 118 70q6 6 12.5 4t4.5 -10l-4 -29q-3 -16 -19 -29q-59 -53 -123 -53z" />
    <glyph glyph-name="Adieresis" unicode="&#xc4;" horiz-adv-x="1161" 
d="M49 0h-24q-20 0 -11 20l711 1352q9 21 25 21h20q15 0 18 -21l230 -1352q3 -20 -19 -20h-16q-19 0 -22 20l-64 383h-618l-201 -383q-9 -20 -29 -20zM743 1290l-436 -833h580l-139 833h-5zM1028 1630h-45q-19 0 -16 21l14 78q3 20 23 20h45q19 0 16 -20l-14 -78
q-3 -21 -23 -21zM633 1630h-45q-20 0 -17 21l15 78q3 20 22 20h45q20 0 17 -20l-15 -78q-3 -21 -22 -21z" />
    <glyph glyph-name="Aring" unicode="&#xc5;" horiz-adv-x="1161" 
d="M49 0h-24q-20 0 -11 20l711 1352q9 21 25 21h20q15 0 18 -21l230 -1352q3 -20 -19 -20h-16q-19 0 -22 20l-64 383h-618l-201 -383q-9 -20 -29 -20zM743 1290l-436 -833h580l-139 833h-5zM791 1532q-60 0 -98 38.5t-38 98.5q0 82 55.5 138.5t139.5 56.5q60 0 97.5 -39
t37.5 -99q0 -82 -55 -138t-139 -56zM801 1577q56 0 95.5 41.5t39.5 101.5q0 43 -26 71t-70 28q-56 0 -95.5 -42t-39.5 -102q0 -43 26 -70.5t70 -27.5z" />
    <glyph glyph-name="AE" unicode="&#xc6;" horiz-adv-x="1878" 
d="M1669 0h-733q-19 0 -16 20l65 371q3 12 -10 12h-586l-309 -383q-14 -20 -33 -20h-31q-10 0 -12 6t4 14l1102 1354q16 19 35 19h770q19 0 16 -21l-2 -12q-3 -21 -24 -21h-684q-12 0 -15 -12l-100 -577q-3 -15 12 -15h588q19 0 16 -20l-2 -13q-3 -20 -24 -20h-590
q-11 0 -14 -12l-107 -604q-3 -13 10 -13h684q20 0 17 -20l-2 -13q-3 -20 -25 -20zM1151 1333h-6l-713 -876h551q11 0 14 12z" />
    <glyph glyph-name="Ccedilla" unicode="&#xc7;" horiz-adv-x="1087" 
d="M338 -295h-16q-22 0 -13 21l142 256q-149 13 -231.5 114t-82.5 269q0 150 45 385q46 238 105 360q75 157 182 230t262 73q121 0 212.5 -65t131.5 -187q6 -16 -10 -22l-16 -6q-19 -10 -23 8q-77 219 -299 219q-259 0 -385 -262q-54 -110 -102 -353q-45 -226 -45 -370
q0 -165 80.5 -253.5t234.5 -88.5q222 0 369 215q9 12 22 6l19 -10q11 -8 2 -27q-150 -237 -420 -237l-129 -254q-9 -21 -35 -21z" />
    <glyph glyph-name="Egrave" unicode="&#xc8;" horiz-adv-x="1085" 
d="M129 20l238 1352q3 21 22 21h735q20 0 17 -21l-2 -12q-3 -21 -25 -21h-684q-11 0 -14 -12l-101 -577q-3 -15 13 -15h587q20 0 17 -20l-2 -13q-3 -20 -25 -20h-590q-11 0 -14 -12l-106 -604q-3 -13 10 -13h684q19 0 16 -20l-2 -13q-3 -20 -24 -20h-734q-19 0 -16 20z
M797 1569h-6q-19 0 -33 20l-131 209q-4 8 -1 14.5t11 6.5h20q19 0 31 -21l119 -209q14 -20 -10 -20z" />
    <glyph glyph-name="Eacute" unicode="&#xc9;" horiz-adv-x="1085" 
d="M129 20l238 1352q3 21 22 21h735q20 0 17 -21l-2 -12q-3 -21 -25 -21h-684q-11 0 -14 -12l-101 -577q-3 -15 13 -15h587q20 0 17 -20l-2 -13q-3 -20 -25 -20h-590q-11 0 -14 -12l-106 -604q-3 -13 10 -13h684q19 0 16 -20l-2 -13q-3 -20 -24 -20h-734q-19 0 -16 20z
M750 1569h-11q-24 0 -2 22l187 207q18 21 39 21h22q10 0 12 -6.5t-6 -14.5l-203 -209q-20 -20 -38 -20z" />
    <glyph glyph-name="Ecircumflex" unicode="&#xca;" horiz-adv-x="1085" 
d="M129 20l238 1352q3 21 22 21h735q20 0 17 -21l-2 -12q-3 -21 -25 -21h-684q-11 0 -14 -12l-101 -577q-3 -15 13 -15h587q20 0 17 -20l-2 -13q-3 -20 -25 -20h-590q-11 0 -14 -12l-106 -604q-3 -13 10 -13h684q19 0 16 -20l-2 -13q-3 -20 -24 -20h-734q-19 0 -16 20z
M973 1548h-8q-19 0 -29 19l-115 213h-4l-192 -213q-16 -19 -35 -19h-10q-8 0 -10 7t5 14l211 246q15 18 33 18h10q16 0 25 -18l127 -246q12 -21 -8 -21z" />
    <glyph glyph-name="Edieresis" unicode="&#xcb;" horiz-adv-x="1085" 
d="M129 20l238 1352q3 21 22 21h735q20 0 17 -21l-2 -12q-3 -21 -25 -21h-684q-11 0 -14 -12l-101 -577q-3 -15 13 -15h587q20 0 17 -20l-2 -13q-3 -20 -25 -20h-590q-11 0 -14 -12l-106 -604q-3 -13 10 -13h684q19 0 16 -20l-2 -13q-3 -20 -24 -20h-734q-19 0 -16 20z
M1016 1630h-45q-20 0 -17 21l15 78q3 20 22 20h45q20 0 17 -20l-15 -78q-3 -21 -22 -21zM621 1630h-46q-19 0 -16 21l14 78q3 20 23 20h45q19 0 16 -20l-14 -78q-3 -21 -22 -21z" />
    <glyph glyph-name="Igrave" unicode="&#xcc;" horiz-adv-x="460" 
d="M426 1569h-6q-19 0 -33 20l-131 209q-4 8 -1 14.5t11 6.5h21q18 0 30 -21l119 -209q14 -20 -10 -20zM129 20l238 1352q3 21 22 21h19q19 0 16 -21l-238 -1352q-3 -20 -22 -20h-19q-19 0 -16 20z" />
    <glyph glyph-name="Iacute" unicode="&#xcd;" horiz-adv-x="460" 
d="M129 20l238 1352q3 21 22 21h19q19 0 16 -21l-238 -1352q-3 -20 -22 -20h-19q-19 0 -16 20zM430 1569h-10q-24 0 -2 22l186 207q18 21 39 21h23q10 0 12 -6.5t-6 -14.5l-203 -209q-20 -20 -39 -20z" />
    <glyph glyph-name="Icircumflex" unicode="&#xce;" horiz-adv-x="460" 
d="M129 20l238 1352q3 21 22 21h19q19 0 16 -21l-238 -1352q-3 -20 -22 -20h-19q-19 0 -16 20zM625 1548h-9q-18 0 -28 19l-115 213h-4l-193 -213q-16 -19 -34 -19h-11q-8 0 -9.5 7t5.5 14l211 246q15 18 33 18h10q16 0 25 -18l127 -246q12 -21 -8 -21z" />
    <glyph glyph-name="Idieresis" unicode="&#xcf;" horiz-adv-x="460" 
d="M676 1630h-45q-20 0 -17 21l15 78q3 20 22 20h45q20 0 17 -20l-15 -78q-3 -21 -22 -21zM281 1630h-45q-20 0 -17 21l14 78q3 20 23 20h45q19 0 16 -20l-14 -78q-3 -21 -22 -21zM129 20l238 1352q3 21 22 21h19q19 0 16 -21l-238 -1352q-3 -20 -22 -20h-19q-19 0 -16 20z
" />
    <glyph glyph-name="Eth" unicode="&#xd0;" horiz-adv-x="1239" 
d="M541 0h-396q-19 0 -16 20l115 652q3 12 -11 12h-90q-19 0 -16 21l2 10q3 20 25 20h88q11 0 14 13l111 624q3 21 22 21h395q375 0 375 -355q0 -145 -49 -397q-50 -258 -106 -373q-68 -141 -179 -204.5t-284 -63.5zM203 53h342q293 0 407 234q57 117 103 358q47 249 47 387
q0 158 -80 232.5t-248 74.5h-344q-11 0 -14 -12l-103 -579q-3 -13 9 -13h286q20 0 17 -20l-2 -10q-3 -21 -25 -21h-283q-11 0 -14 -12l-106 -606q-3 -13 8 -13z" />
    <glyph glyph-name="Ntilde" unicode="&#xd1;" horiz-adv-x="1275" 
d="M129 20l238 1352q3 21 22 21h17q17 0 26 -21l524 -1251h5l221 1251q3 21 22 21h19q19 0 16 -21l-238 -1352q-3 -20 -22 -20h-14q-20 0 -29 20l-524 1258h-4l-222 -1258q-3 -20 -22 -20h-19q-19 0 -16 20zM942 1630q-52 0 -104 43q-46 37 -84 37q-49 0 -119 -70
q-6 -6 -12.5 -3.5t-4.5 10.5l5 28q3 17 18 29q59 53 123 53q52 0 104 -43q46 -37 84 -37q49 0 119 70q6 6 12 4t4 -10l-4 -29q-3 -17 -18 -29q-59 -53 -123 -53z" />
    <glyph glyph-name="Ograve" unicode="&#xd2;" horiz-adv-x="1187" 
d="M506 -20q-174 0 -270.5 101t-96.5 284q0 150 45 385q46 238 105 360q146 303 467 303q173 0 269.5 -101t96.5 -284q0 -139 -47 -385q-47 -248 -102 -360q-146 -303 -467 -303zM514 33q278 0 404 262q54 111 102 352q45 226 45 371q0 166 -81 254t-236 88
q-278 0 -404 -262q-54 -110 -102 -353q-45 -226 -45 -370q0 -166 81 -254t236 -88zM784 1569h-6q-19 0 -33 20l-131 209q-4 8 -0.5 14.5t11.5 6.5h20q19 0 31 -21l119 -209q14 -20 -11 -20z" />
    <glyph glyph-name="Oacute" unicode="&#xd3;" horiz-adv-x="1187" 
d="M506 -20q-174 0 -270.5 101t-96.5 284q0 150 45 385q46 238 105 360q146 303 467 303q173 0 269.5 -101t96.5 -284q0 -139 -47 -385q-47 -248 -102 -360q-146 -303 -467 -303zM514 33q278 0 404 262q54 111 102 352q45 226 45 371q0 166 -81 254t-236 88
q-278 0 -404 -262q-54 -110 -102 -353q-45 -226 -45 -370q0 -166 81 -254t236 -88zM803 1569h-10q-24 0 -2 22l186 207q18 21 39 21h22q10 0 12 -6.5t-6 -14.5l-202 -209q-20 -20 -39 -20z" />
    <glyph glyph-name="Ocircumflex" unicode="&#xd4;" horiz-adv-x="1187" 
d="M991 1571h-8q-20 0 -29 18l-114 213h-4l-193 -213q-15 -18 -35 -18h-10q-8 0 -9.5 6.5t5.5 13.5l211 246q15 18 33 18h10q15 0 24 -18l127 -246q11 -20 -8 -20zM506 -20q-174 0 -270.5 101t-96.5 284q0 150 45 385q46 238 105 360q146 303 467 303q173 0 269.5 -101
t96.5 -284q0 -139 -47 -385q-47 -248 -102 -360q-146 -303 -467 -303zM514 33q278 0 404 262q54 111 102 352q45 226 45 371q0 166 -81 254t-236 88q-278 0 -404 -262q-54 -110 -102 -353q-45 -226 -45 -370q0 -166 81 -254t236 -88z" />
    <glyph glyph-name="Otilde" unicode="&#xd5;" horiz-adv-x="1187" 
d="M506 -20q-174 0 -270.5 101t-96.5 284q0 150 45 385q46 238 105 360q146 303 467 303q173 0 269.5 -101t96.5 -284q0 -139 -47 -385q-47 -248 -102 -360q-146 -303 -467 -303zM514 33q278 0 404 262q54 111 102 352q45 226 45 371q0 166 -81 254t-236 88
q-278 0 -404 -262q-54 -110 -102 -353q-45 -226 -45 -370q0 -166 81 -254t236 -88zM905 1630q-52 0 -104 43q-46 37 -84 37q-49 0 -119 -70q-6 -6 -12 -3.5t-4 10.5l4 28q3 17 18 29q59 53 123 53q52 0 104 -43q46 -37 84 -37q49 0 119 70q6 6 12.5 4t4.5 -10l-4 -29
q-3 -16 -19 -29q-59 -53 -123 -53z" />
    <glyph glyph-name="Odieresis" unicode="&#xd6;" horiz-adv-x="1187" 
d="M1024 1630h-45q-19 0 -16 21l14 78q3 20 22 20h45q20 0 17 -20l-14 -78q-3 -21 -23 -21zM629 1630h-45q-20 0 -17 21l15 78q3 20 22 20h45q20 0 17 -20l-15 -78q-3 -21 -22 -21zM506 -20q-174 0 -270.5 101t-96.5 284q0 150 45 385q46 238 105 360q146 303 467 303
q173 0 269.5 -101t96.5 -284q0 -139 -47 -385q-47 -248 -102 -360q-146 -303 -467 -303zM514 33q278 0 404 262q54 111 102 352q45 226 45 371q0 166 -81 254t-236 88q-278 0 -404 -262q-54 -110 -102 -353q-45 -226 -45 -370q0 -166 81 -254t236 -88z" />
    <glyph glyph-name="multiply" unicode="&#xd7;" 
d="M864 258l-8 -8q-14 -14 -29 0l-272 270q-8 8 -16 0l-271 -270q-14 -14 -28 0l-9 8q-15 14 0 29l273 270q8 8 0 16l-273 271q-14 14 0 28l9 9q14 14 28 0l271 -271q8 -8 16 0l272 271q15 15 29 0l8 -9q14 -14 0 -28l-272 -271q-8 -8 0 -16l272 -270q14 -15 0 -29z" />
    <glyph glyph-name="Oslash" unicode="&#xd8;" horiz-adv-x="1187" 
d="M117 -61h-17q-22 0 -8 20l121 166q-59 89 -59 240q0 150 45 385q46 241 104 360q146 303 467 303q185 0 279 -110l94 131q14 20 33 20h16q22 0 8 -20l-123 -170q60 -97 60 -236t-47 -385q-47 -245 -103 -360q-146 -303 -467 -303q-184 0 -278 110l-92 -131
q-14 -20 -33 -20zM211 375q0 -123 39 -197l764 1073q-83 109 -252 109q-278 0 -404 -262q-54 -110 -102 -353q-45 -226 -45 -370zM528 33q278 0 404 262q54 111 102 352q45 226 45 371q0 115 -41 192l-762 -1071q81 -106 252 -106z" />
    <glyph glyph-name="Ugrave" unicode="&#xd9;" horiz-adv-x="1243" 
d="M233 475l158 897q3 21 23 21h18q20 0 17 -21l-158 -899q-77 -440 315 -440q191 0 295 102t146 338l157 899q3 21 23 21h18q20 0 17 -21l-158 -897q-44 -261 -164 -378t-338 -117q-219 0 -315 125.5t-54 369.5zM883 1569h-6q-19 0 -33 20l-131 209q-4 8 -1 14.5t11 6.5h20
q19 0 31 -21l119 -209q14 -20 -10 -20z" />
    <glyph glyph-name="Uacute" unicode="&#xda;" horiz-adv-x="1243" 
d="M233 475l158 897q3 21 23 21h18q20 0 17 -21l-158 -899q-77 -440 315 -440q191 0 295 102t146 338l157 899q3 21 23 21h18q20 0 17 -21l-158 -897q-44 -261 -164 -378t-338 -117q-219 0 -315 125.5t-54 369.5zM821 1569h-10q-24 0 -2 22l186 207q18 21 39 21h23
q10 0 12 -6.5t-6 -14.5l-203 -209q-20 -20 -39 -20z" />
    <glyph glyph-name="Ucircumflex" unicode="&#xdb;" horiz-adv-x="1243" 
d="M233 475l158 897q3 21 23 21h18q20 0 17 -21l-158 -899q-77 -440 315 -440q191 0 295 102t146 338l157 899q3 21 23 21h18q20 0 17 -21l-158 -897q-44 -261 -164 -378t-338 -117q-219 0 -315 125.5t-54 369.5zM1067 1548h-8q-19 0 -29 19l-115 213h-4l-192 -213
q-16 -19 -35 -19h-10q-8 0 -9.5 7t5.5 14l211 246q15 18 32 18h11q15 0 24 -18l127 -246q12 -21 -8 -21z" />
    <glyph glyph-name="Udieresis" unicode="&#xdc;" horiz-adv-x="1243" 
d="M1104 1630h-45q-20 0 -17 21l15 78q3 20 22 20h45q20 0 17 -20l-15 -78q-3 -21 -22 -21zM709 1630h-45q-20 0 -17 21l15 78q3 20 22 20h45q19 0 16 -20l-14 -78q-3 -21 -22 -21zM233 475l158 897q3 21 23 21h18q20 0 17 -21l-158 -899q-77 -440 315 -440q191 0 295 102
t146 338l157 899q3 21 23 21h18q20 0 17 -21l-158 -897q-44 -261 -164 -378t-338 -117q-219 0 -315 125.5t-54 369.5z" />
    <glyph glyph-name="Yacute" unicode="&#xdd;" horiz-adv-x="995" 
d="M432 0h-18q-20 0 -17 20l97 553l-263 795q-6 25 17 25h12q20 0 29 -21l241 -729h5l499 729q12 21 35 21h16q10 0 13.5 -8.5t-2.5 -16.5l-545 -797l-96 -551q-3 -20 -23 -20zM692 1569h-10q-24 0 -2 22l186 207q18 21 39 21h23q10 0 12 -6.5t-6 -14.5l-203 -209
q-20 -20 -39 -20z" />
    <glyph glyph-name="Thorn" unicode="&#xde;" horiz-adv-x="1136" 
d="M164 0h-19q-19 0 -16 20l238 1352q3 21 22 21h19q19 0 16 -21l-49 -282q-3 -13 10 -13h371q163 0 251.5 -76t88.5 -213q0 -215 -131 -337q-129 -123 -340 -123h-373q-11 0 -14 -13l-52 -295q-3 -20 -22 -20zM262 381h365q193 2 303 108t110 295q0 240 -292 240h-373
q-12 0 -15 -12l-108 -619q-3 -12 10 -12z" />
    <glyph glyph-name="germandbls" unicode="&#xdf;" horiz-adv-x="1064" 
d="M489 -12h-16q-19 0 -16 20l2 10q3 21 22 21h19q211 0 288 158q29 60 58 229q33 168 33 244q0 98 -55.5 142t-174.5 44h-22q-20 0 -17 21l2 10q3 20 25 20h31q138 0 214 73.5t76 203.5q0 178 -241 178q-160 0 -244.5 -79.5t-116.5 -262.5l-176 -1000q-3 -20 -22 -20h-17
q-19 0 -16 20l176 1004q36 201 136 295t288 94q140 0 213.5 -59t73.5 -166q0 -111 -54 -195.5t-153 -109.5v-4q127 -47 127 -201q0 -86 -33 -260q-35 -185 -63 -242q-50 -102 -132.5 -145t-214.5 -43z" />
    <glyph glyph-name="agrave" unicode="&#xe0;" horiz-adv-x="999" 
d="M715 0h-17q-19 0 -16 20l20 115h-2q-39 -71 -125 -113t-202 -42q-128 0 -198.5 62t-70.5 169q0 160 101.5 243t296.5 83h258q11 0 14 12l25 131q25 149 -19 204.5t-192 55.5q-159 0 -260 -84q-19 -16 -31 -4l-12 12q-13 12 2 27q109 100 309 100q167 0 227.5 -71
t30.5 -240l-117 -660q-3 -20 -22 -20zM387 31q131 0 225 73q99 73 117 185l33 184q3 12 -8 12h-250q-344 0 -344 -270q0 -87 58 -135.5t169 -48.5zM645 1147h-4q-20 0 -31 20l-121 246q-5 8 0 14.5t15 6.5h18q18 0 27 -21l110 -246q9 -20 -14 -20z" />
    <glyph glyph-name="aacute" unicode="&#xe1;" horiz-adv-x="999" 
d="M715 0h-17q-19 0 -16 20l20 115h-2q-39 -71 -125 -113t-202 -42q-128 0 -198.5 62t-70.5 169q0 160 101.5 243t296.5 83h258q11 0 14 12l25 131q25 149 -19 204.5t-192 55.5q-159 0 -260 -84q-19 -16 -31 -4l-12 12q-13 12 2 27q109 100 309 100q167 0 227.5 -71
t30.5 -240l-117 -660q-3 -20 -22 -20zM387 31q131 0 225 73q99 73 117 185l33 184q3 12 -8 12h-250q-344 0 -344 -270q0 -87 58 -135.5t169 -48.5zM614 1147h-8q-20 0 -6 20l193 246q15 21 36 21h23q8 0 11 -7t-3 -14l-209 -246q-17 -20 -37 -20z" />
    <glyph glyph-name="acircumflex" unicode="&#xe2;" horiz-adv-x="999" 
d="M715 0h-17q-19 0 -16 20l20 115h-2q-39 -71 -125 -113t-202 -42q-128 0 -198.5 62t-70.5 169q0 160 101.5 243t296.5 83h258q11 0 14 12l25 131q25 149 -19 204.5t-192 55.5q-159 0 -260 -84q-19 -16 -31 -4l-12 12q-13 12 2 27q109 100 309 100q167 0 227.5 -71
t30.5 -240l-117 -660q-3 -20 -22 -20zM387 31q131 0 225 73q99 73 117 185l33 184q3 12 -8 12h-250q-344 0 -344 -270q0 -87 58 -135.5t169 -48.5zM848 1149h-8q-20 0 -29 18l-115 213h-4l-192 -213q-15 -18 -35 -18h-10q-8 0 -9.5 6.5t5.5 13.5l211 246q16 19 32 19h11
q15 0 24 -19l127 -246q11 -20 -8 -20z" />
    <glyph glyph-name="atilde" unicode="&#xe3;" horiz-adv-x="999" 
d="M715 0h-17q-19 0 -16 20l20 115h-2q-39 -71 -125 -113t-202 -42q-128 0 -198.5 62t-70.5 169q0 160 101.5 243t296.5 83h258q11 0 14 12l25 131q25 149 -19 204.5t-192 55.5q-159 0 -260 -84q-19 -16 -31 -4l-12 12q-13 12 2 27q109 100 309 100q167 0 227.5 -71
t30.5 -240l-117 -660q-3 -20 -22 -20zM387 31q131 0 225 73q99 73 117 185l33 184q3 12 -8 12h-250q-344 0 -344 -270q0 -87 58 -135.5t169 -48.5zM770 1260q-52 0 -104 43q-45 36 -84 36q-50 0 -119 -69q-6 -6 -12.5 -4t-4.5 10l5 29q3 16 18 28q59 53 123 53q52 0 104 -43
q45 -36 84 -36q50 0 119 69q6 6 12 4t4 -10l-4 -29q-3 -16 -18 -28q-59 -53 -123 -53z" />
    <glyph glyph-name="adieresis" unicode="&#xe4;" horiz-adv-x="999" 
d="M715 0h-17q-19 0 -16 20l20 115h-2q-39 -71 -125 -113t-202 -42q-128 0 -198.5 62t-70.5 169q0 160 101.5 243t296.5 83h258q11 0 14 12l25 131q25 149 -19 204.5t-192 55.5q-159 0 -260 -84q-19 -16 -31 -4l-12 12q-13 12 2 27q109 100 309 100q167 0 227.5 -71
t30.5 -240l-117 -660q-3 -20 -22 -20zM387 31q131 0 225 73q99 73 117 185l33 184q3 12 -8 12h-250q-344 0 -344 -270q0 -87 58 -135.5t169 -48.5zM895 1274h-45q-19 0 -16 20l14 78q3 21 22 21h45q20 0 17 -21l-14 -78q-3 -20 -23 -20zM500 1274h-45q-20 0 -17 20l15 78
q3 21 22 21h45q20 0 17 -21l-15 -78q-3 -20 -22 -20z" />
    <glyph glyph-name="aring" unicode="&#xe5;" horiz-adv-x="999" 
d="M715 0h-17q-19 0 -16 20l20 115h-2q-39 -71 -125 -113t-202 -42q-128 0 -198.5 62t-70.5 169q0 160 101.5 243t296.5 83h258q11 0 14 12l25 131q25 149 -19 204.5t-192 55.5q-159 0 -260 -84q-19 -16 -31 -4l-12 12q-13 12 2 27q109 100 309 100q167 0 227.5 -71
t30.5 -240l-117 -660q-3 -20 -22 -20zM387 31q131 0 225 73q99 73 117 185l33 184q3 12 -8 12h-250q-344 0 -344 -270q0 -87 58 -135.5t169 -48.5zM645 1122q-60 0 -97.5 39t-37.5 99q0 82 55.5 138t139.5 56q60 0 97.5 -38.5t37.5 -98.5q0 -82 -55.5 -138.5t-139.5 -56.5z
M655 1167q56 0 96 42t40 102q0 43 -26.5 70.5t-70.5 27.5q-56 0 -95.5 -41.5t-39.5 -101.5q0 -43 26 -71t70 -28z" />
    <glyph glyph-name="ae" unicode="&#xe6;" horiz-adv-x="1591" 
d="M1042 -20q-239 0 -288 208h-2q-114 -208 -379 -208q-128 0 -198.5 62t-70.5 169q0 160 101.5 243t296.5 83h258q11 0 14 12l25 131q25 149 -19 204.5t-192 55.5q-159 0 -260 -84q-19 -16 -31 -4l-12 12q-13 12 2 27q109 100 309 100q138 0 201.5 -46.5t64.5 -151.5h2
q122 198 344 198q132 0 209.5 -81t77.5 -228q0 -71 -18 -176q-3 -21 -25 -21h-618q-14 0 -17 -12q-18 -95 -18 -182q0 -125 62.5 -192.5t185.5 -67.5q174 0 307 145q15 15 28 6l13 -10q15 -12 -2 -29q-138 -163 -351 -163zM840 537h575q12 0 15 12q12 67 12 125
q0 266 -238 266q-104 0 -188 -57t-135 -162q-34 -73 -52 -172q-3 -12 11 -12zM387 31q131 0 225 73q99 73 117 185l33 184q3 12 -8 12h-250q-344 0 -344 -270q0 -87 58 -135.5t169 -48.5z" />
    <glyph glyph-name="ccedilla" unicode="&#xe7;" horiz-adv-x="921" 
d="M246 -295h-17q-21 0 -12 21l141 256q-245 24 -245 323q0 244 94 436q61 120 157 185t216 65q217 0 272 -196q6 -17 -10 -27l-15 -6q-18 -9 -24 10q-49 168 -232 168q-92 0 -177 -58t-134 -157q-92 -192 -92 -408q0 -286 242 -286q167 0 295 168q13 16 28 4l10 -8
q15 -12 0 -31q-138 -181 -333 -184l-129 -254q-9 -21 -35 -21z" />
    <glyph glyph-name="egrave" unicode="&#xe8;" horiz-adv-x="960" 
d="M412 -20q-146 0 -222.5 80.5t-76.5 230.5q0 265 94 457q57 118 153 180.5t218 62.5q132 0 209 -81t77 -228q0 -71 -18 -176q-3 -21 -25 -21h-622q-14 0 -17 -12q-14 -69 -14 -182q0 -125 62.5 -192.5t185.5 -67.5q174 0 307 145q16 16 29 6l12 -10q15 -12 -2 -29
q-138 -163 -350 -163zM209 537h575q12 0 15 12q12 68 12 125q0 266 -238 266q-214 0 -317 -213q-35 -72 -57 -178q-3 -12 10 -12zM600 1147h-4q-20 0 -31 20l-121 246q-5 8 0 14.5t15 6.5h18q18 0 27 -21l110 -246q9 -20 -14 -20z" />
    <glyph glyph-name="eacute" unicode="&#xe9;" horiz-adv-x="960" 
d="M412 -20q-146 0 -222.5 80.5t-76.5 230.5q0 265 94 457q57 118 153 180.5t218 62.5q132 0 209 -81t77 -228q0 -71 -18 -176q-3 -21 -25 -21h-622q-14 0 -17 -12q-14 -69 -14 -182q0 -125 62.5 -192.5t185.5 -67.5q174 0 307 145q16 16 29 6l12 -10q15 -12 -2 -29
q-138 -163 -350 -163zM209 537h575q12 0 15 12q12 68 12 125q0 266 -238 266q-214 0 -317 -213q-35 -72 -57 -178q-3 -12 10 -12zM590 1147h-8q-21 0 -7 20l193 246q15 21 37 21h22q8 0 11.5 -7t-2.5 -14l-209 -246q-17 -20 -37 -20z" />
    <glyph glyph-name="ecircumflex" unicode="&#xea;" horiz-adv-x="960" 
d="M412 -20q-146 0 -222.5 80.5t-76.5 230.5q0 265 94 457q57 118 153 180.5t218 62.5q132 0 209 -81t77 -228q0 -71 -18 -176q-3 -21 -25 -21h-622q-14 0 -17 -12q-14 -69 -14 -182q0 -125 62.5 -192.5t185.5 -67.5q174 0 307 145q16 16 29 6l12 -10q15 -12 -2 -29
q-138 -163 -350 -163zM209 537h575q12 0 15 12q12 68 12 125q0 266 -238 266q-214 0 -317 -213q-35 -72 -57 -178q-3 -12 10 -12zM807 1149h-8q-20 0 -29 18l-115 213h-4l-192 -213q-15 -18 -35 -18h-10q-8 0 -9.5 6.5t5.5 13.5l211 246q16 19 32 19h11q14 0 24 -19
l127 -246q11 -20 -8 -20z" />
    <glyph glyph-name="edieresis" unicode="&#xeb;" horiz-adv-x="960" 
d="M412 -20q-146 0 -222.5 80.5t-76.5 230.5q0 265 94 457q57 118 153 180.5t218 62.5q132 0 209 -81t77 -228q0 -71 -18 -176q-3 -21 -25 -21h-622q-14 0 -17 -12q-14 -69 -14 -182q0 -125 62.5 -192.5t185.5 -67.5q174 0 307 145q16 16 29 6l12 -10q15 -12 -2 -29
q-138 -163 -350 -163zM209 537h575q12 0 15 12q12 68 12 125q0 266 -238 266q-214 0 -317 -213q-35 -72 -57 -178q-3 -12 10 -12zM852 1274h-45q-19 0 -16 20l14 78q3 21 22 21h45q20 0 17 -21l-15 -78q-3 -20 -22 -20zM457 1274h-45q-20 0 -17 20l15 78q3 21 22 21h45
q20 0 17 -21l-15 -78q-3 -20 -22 -20z" />
    <glyph glyph-name="igrave" unicode="&#xec;" horiz-adv-x="452" 
d="M340 1147h-4q-20 0 -31 20l-121 246q-5 8 0 14.5t15 6.5h18q18 0 27 -21l110 -246q9 -20 -14 -20zM158 0h-17q-19 0 -16 20l164 930q3 21 22 21h17q19 0 16 -21l-164 -930q-3 -20 -22 -20z" />
    <glyph glyph-name="iacute" unicode="&#xed;" horiz-adv-x="452" 
d="M158 0h-17q-19 0 -16 20l164 930q3 21 22 21h17q19 0 16 -21l-164 -930q-3 -20 -22 -20zM338 1147h-8q-20 0 -6 20l192 246q15 21 37 21h22q10 0 12.5 -7t-3.5 -14l-209 -246q-17 -20 -37 -20z" />
    <glyph glyph-name="icircumflex" unicode="&#xee;" horiz-adv-x="452" 
d="M545 1149h-8q-20 0 -29 18l-115 213h-4l-192 -213q-15 -18 -35 -18h-10q-8 0 -10 6.5t5 13.5l211 246q16 19 33 19h10q15 0 25 -19l127 -246q11 -20 -8 -20zM158 0h-17q-19 0 -16 20l164 930q3 21 22 21h17q19 0 16 -21l-164 -930q-3 -20 -22 -20z" />
    <glyph glyph-name="idieresis" unicode="&#xef;" horiz-adv-x="452" 
d="M158 0h-17q-19 0 -16 20l164 930q3 21 22 21h17q19 0 16 -21l-164 -930q-3 -20 -22 -20zM586 1274h-45q-20 0 -17 20l15 78q3 21 22 21h45q20 0 17 -21l-15 -78q-3 -20 -22 -20zM190 1274h-45q-19 0 -16 20l14 78q3 21 23 21h45q19 0 16 -21l-14 -78q-3 -20 -23 -20z" />
    <glyph glyph-name="eth" unicode="&#xf0;" horiz-adv-x="983" 
d="M547 1372l88 -147l196 59q25 6 25 -12v-12q0 -19 -18 -25l-176 -53l110 -183q109 -183 109 -337q0 -109 -33 -238q-29 -130 -66 -209q-113 -235 -370 -235q-148 0 -223.5 83t-75.5 238q0 109 30 244q35 141 68 211q113 235 367 235q108 0 172 -55h2l-144 231l-200 -59
q-25 -6 -25 12v13q0 18 18 24l181 53l-99 162q-12 21 11 21h20q18 0 33 -21zM420 31q211 0 317 213q34 74 58 188q30 129 30 223q0 285 -252 285q-211 0 -317 -213q-31 -67 -59 -188q-29 -139 -29 -224q0 -284 252 -284z" />
    <glyph glyph-name="ntilde" unicode="&#xf1;" horiz-adv-x="1056" 
d="M774 0h-18q-18 0 -15 20l107 582q31 176 -22 257t-195 81q-114 0 -217 -86q-100 -81 -125 -217l-109 -617q-3 -20 -22 -20h-19q-17 0 -14 20l164 930q3 21 22 21h17q19 0 16 -21l-22 -131h2q111 172 317 172q160 0 228 -95.5t36 -279.5l-108 -596q-3 -20 -23 -20z
M760 1260q-53 0 -105 43q-45 36 -84 36q-49 0 -118 -69q-6 -6 -12.5 -4t-4.5 10l4 29q3 15 19 28q59 53 123 53q52 0 104 -43q45 -36 84 -36q50 0 119 69q6 6 12 4t4 -10l-4 -29q-3 -16 -18 -28q-59 -53 -123 -53z" />
    <glyph glyph-name="ograve" unicode="&#xf2;" horiz-adv-x="980" 
d="M412 -20q-148 0 -223.5 83t-75.5 238q0 109 30 244q35 141 68 211q113 235 371 235q148 0 223.5 -83t75.5 -238q0 -114 -33 -246q-29 -130 -66 -209q-113 -235 -370 -235zM420 31q211 0 317 213q34 74 58 188q30 129 30 223q0 285 -252 285q-211 0 -317 -213
q-31 -67 -59 -188q-29 -139 -29 -224q0 -284 252 -284zM623 1147h-5q-19 0 -30 20l-121 246q-5 7 -0.5 14t14.5 7h19q17 0 26 -21l111 -246q9 -20 -14 -20z" />
    <glyph glyph-name="oacute" unicode="&#xf3;" horiz-adv-x="980" 
d="M412 -20q-148 0 -223.5 83t-75.5 238q0 109 30 244q35 141 68 211q113 235 371 235q148 0 223.5 -83t75.5 -238q0 -114 -33 -246q-29 -130 -66 -209q-113 -235 -370 -235zM420 31q211 0 317 213q34 74 58 188q30 129 30 223q0 285 -252 285q-211 0 -317 -213
q-31 -67 -59 -188q-29 -139 -29 -224q0 -284 252 -284zM594 1147h-8q-20 0 -6 20l192 246q15 21 37 21h22q8 0 11.5 -7t-2.5 -14l-209 -246q-17 -20 -37 -20z" />
    <glyph glyph-name="ocircumflex" unicode="&#xf4;" horiz-adv-x="980" 
d="M823 1149h-8q-20 0 -29 18l-114 213h-4l-193 -213q-15 -18 -35 -18h-10q-8 0 -9.5 6.5t5.5 13.5l211 246q16 19 33 19h10q16 0 25 -19l126 -246q11 -20 -8 -20zM412 -20q-148 0 -223.5 83t-75.5 238q0 109 30 244q35 141 68 211q113 235 371 235q148 0 223.5 -83
t75.5 -238q0 -114 -33 -246q-29 -130 -66 -209q-113 -235 -370 -235zM420 31q211 0 317 213q34 74 58 188q30 129 30 223q0 285 -252 285q-211 0 -317 -213q-31 -67 -59 -188q-29 -139 -29 -224q0 -284 252 -284z" />
    <glyph glyph-name="otilde" unicode="&#xf5;" horiz-adv-x="980" 
d="M743 1260q-52 0 -104 43q-45 36 -84 36q-50 0 -119 -69q-6 -6 -12 -4t-4 10l4 29q3 16 18 28q59 53 123 53q53 0 105 -43q45 -36 84 -36q49 0 118 69q6 6 12.5 4t4.5 -10l-4 -29q-3 -15 -19 -28q-59 -53 -123 -53zM412 -20q-148 0 -223.5 83t-75.5 238q0 109 30 244
q35 141 68 211q113 235 371 235q148 0 223.5 -83t75.5 -238q0 -114 -33 -246q-29 -130 -66 -209q-113 -235 -370 -235zM420 31q211 0 317 213q34 74 58 188q30 129 30 223q0 285 -252 285q-211 0 -317 -213q-31 -67 -59 -188q-29 -139 -29 -224q0 -284 252 -284z" />
    <glyph glyph-name="odieresis" unicode="&#xf6;" horiz-adv-x="980" 
d="M868 1274h-45q-19 0 -16 20l14 78q3 21 23 21h45q19 0 16 -21l-14 -78q-3 -20 -23 -20zM473 1274h-45q-19 0 -16 20l14 78q3 21 23 21h45q19 0 16 -21l-14 -78q-3 -20 -23 -20zM412 -20q-148 0 -223.5 83t-75.5 238q0 109 30 244q35 141 68 211q113 235 371 235
q148 0 223.5 -83t75.5 -238q0 -114 -33 -246q-29 -130 -66 -209q-113 -235 -370 -235zM420 31q211 0 317 213q34 74 58 188q30 129 30 223q0 285 -252 285q-211 0 -317 -213q-31 -67 -59 -188q-29 -139 -29 -224q0 -284 252 -284z" />
    <glyph glyph-name="divide" unicode="&#xf7;" 
d="M559 784q-19 -19 -45.5 -19t-46.5 19q-19 19 -19 47.5t19 47.5q20 19 46.5 19t45.5 -19q20 -19 20 -47.5t-20 -47.5zM885 541h-740q-20 0 -20 20v10q0 21 20 21h740q20 0 20 -21v-10q0 -20 -20 -20zM559 250q-20 -20 -46.5 -17.5t-42.5 21t-21 42t18 46.5q22 22 49 20
t43 -20.5t20 -43t-20 -48.5z" />
    <glyph glyph-name="oslash" unicode="&#xf8;" horiz-adv-x="980" 
d="M82 -61h-16q-21 0 -7 20l117 141q-47 77 -47 201q0 105 31 244q37 146 67 211q113 235 371 235q146 0 223 -86l86 107q14 20 33 20h16q20 0 9 -20l-115 -144q47 -77 47 -198q0 -114 -33 -246q-30 -134 -65 -209q-113 -235 -371 -235q-148 0 -225 86l-88 -107
q-14 -20 -33 -20zM184 315q0 -94 29 -163l571 710q-63 78 -194 78q-212 0 -318 -213q-31 -67 -59 -188q-29 -139 -29 -224zM436 31q212 0 318 213q32 70 57 188q31 133 31 223q0 96 -31 166l-571 -712q63 -78 196 -78z" />
    <glyph glyph-name="ugrave" unicode="&#xf9;" horiz-adv-x="1044" 
d="M326 971h18q17 0 14 -21l-106 -581q-30 -176 21.5 -257t189.5 -81q109 0 213 84q104 87 125 219l108 616q3 21 23 21h18q18 0 15 -21l-164 -930q-3 -20 -23 -20h-16q-20 0 -17 20l23 132h-2q-51 -82 -133.5 -127t-179.5 -45q-159 0 -224.5 95t-33.5 279l108 596
q3 21 23 21zM694 1147h-4q-20 0 -31 20l-120 246q-5 7 -0.5 14t14.5 7h18q18 0 27 -21l111 -246q9 -20 -15 -20z" />
    <glyph glyph-name="uacute" unicode="&#xfa;" horiz-adv-x="1044" 
d="M326 971h18q17 0 14 -21l-106 -581q-30 -176 21.5 -257t189.5 -81q109 0 213 84q104 87 125 219l108 616q3 21 23 21h18q18 0 15 -21l-164 -930q-3 -20 -23 -20h-16q-20 0 -17 20l23 132h-2q-51 -82 -133.5 -127t-179.5 -45q-159 0 -224.5 95t-33.5 279l108 596
q3 21 23 21zM633 1147h-8q-21 0 -7 20l193 246q15 21 37 21h22q10 0 12.5 -7t-3.5 -14l-209 -246q-17 -20 -37 -20z" />
    <glyph glyph-name="ucircumflex" unicode="&#xfb;" horiz-adv-x="1044" 
d="M326 971h18q17 0 14 -21l-106 -581q-30 -176 21.5 -257t189.5 -81q109 0 213 84q104 87 125 219l108 616q3 21 23 21h18q18 0 15 -21l-164 -930q-3 -20 -23 -20h-16q-20 0 -17 20l23 132h-2q-51 -82 -133.5 -127t-179.5 -45q-159 0 -224.5 95t-33.5 279l108 596
q3 21 23 21zM866 1149h-8q-20 0 -29 18l-114 213h-4l-193 -213q-15 -18 -35 -18h-10q-8 0 -9.5 6.5t5.5 13.5l211 246q16 19 33 19h10q15 0 25 -19l126 -246q11 -20 -8 -20z" />
    <glyph glyph-name="udieresis" unicode="&#xfc;" horiz-adv-x="1044" 
d="M326 971h18q17 0 14 -21l-106 -581q-30 -176 21.5 -257t189.5 -81q109 0 213 84q104 87 125 219l108 616q3 21 23 21h18q18 0 15 -21l-164 -930q-3 -20 -23 -20h-16q-20 0 -17 20l23 132h-2q-51 -82 -133.5 -127t-179.5 -45q-159 0 -224.5 95t-33.5 279l108 596
q3 21 23 21zM907 1274h-45q-19 0 -16 20l14 78q3 21 23 21h45q19 0 16 -21l-14 -78q-3 -20 -23 -20zM512 1274h-45q-19 0 -16 20l14 78q3 21 22 21h45q20 0 17 -21l-14 -78q-3 -20 -23 -20z" />
    <glyph glyph-name="yacute" unicode="&#xfd;" horiz-adv-x="903" 
d="M43 -369h-31q-19 0 -16 21l2 10q3 21 25 21h32q68 0 113 45q52 49 121 178l59 108l-180 936q-3 21 16 21h17q19 0 22 -21l164 -860h2l465 860q9 21 29 21h20q19 0 10 -21l-577 -1063q-80 -152 -148 -204q-61 -52 -145 -52zM545 1147h-8q-21 0 -7 20l193 246q15 21 37 21
h22q8 0 11.5 -7t-2.5 -14l-209 -246q-17 -20 -37 -20z" />
    <glyph glyph-name="thorn" unicode="&#xfe;" 
d="M475 -20q-103 0 -172 50.5t-96 137.5h-2l-90 -516q-3 -21 -23 -21h-16q-20 0 -17 21l303 1720q3 21 23 21h16q20 0 17 -21l-99 -559h3q114 178 325 178q138 0 210.5 -81t72.5 -232q0 -126 -33 -258q-36 -143 -68 -209q-111 -231 -354 -231zM479 31q206 0 301 200
q44 83 68 213q26 124 26 232q0 264 -237 264q-207 0 -315 -217q-27 -59 -54 -201q-30 -153 -30 -239q0 -115 63.5 -183.5t177.5 -68.5z" />
    <glyph glyph-name="ydieresis" unicode="&#xff;" horiz-adv-x="903" 
d="M43 -369h-31q-19 0 -16 21l2 10q3 21 25 21h32q68 0 113 45q52 49 121 178l59 108l-180 936q-3 21 16 21h17q19 0 22 -21l164 -860h2l465 860q9 21 29 21h20q19 0 10 -21l-577 -1063q-80 -152 -148 -204q-61 -52 -145 -52zM823 1274h-45q-19 0 -16 20l14 78q3 21 23 21
h45q19 0 16 -21l-14 -78q-3 -20 -23 -20zM428 1274h-45q-19 0 -16 20l14 78q3 21 22 21h46q19 0 16 -21l-14 -78q-3 -20 -23 -20z" />
    <glyph glyph-name="Amacron" unicode="&#x100;" horiz-adv-x="1161" 
d="M49 0h-24q-20 0 -11 20l711 1352q9 21 25 21h20q15 0 18 -21l230 -1352q3 -20 -19 -20h-16q-19 0 -22 20l-64 383h-618l-201 -383q-9 -20 -29 -20zM743 1290l-436 -833h580l-139 833h-5zM1044 1663h-460q-20 0 -17 20l2 11q3 20 23 20h461q19 0 16 -20l-2 -11
q-3 -20 -23 -20z" />
    <glyph glyph-name="amacron" unicode="&#x101;" horiz-adv-x="999" 
d="M715 0h-17q-19 0 -16 20l20 115h-2q-39 -71 -125 -113t-202 -42q-128 0 -198.5 62t-70.5 169q0 160 101.5 243t296.5 83h258q11 0 14 12l25 131q25 149 -19 204.5t-192 55.5q-159 0 -260 -84q-19 -16 -31 -4l-12 12q-13 12 2 27q109 100 309 100q167 0 227.5 -71
t30.5 -240l-117 -660q-3 -20 -22 -20zM387 31q131 0 225 73q99 73 117 185l33 184q3 12 -8 12h-250q-344 0 -344 -270q0 -87 58 -135.5t169 -48.5zM909 1305h-460q-20 0 -17 20l2 10q3 21 23 21h461q19 0 16 -21l-2 -10q-3 -20 -23 -20z" />
    <glyph glyph-name="Abreve" unicode="&#x102;" horiz-adv-x="1161" 
d="M49 0h-24q-20 0 -11 20l711 1352q9 21 25 21h20q15 0 18 -21l230 -1352q3 -20 -19 -20h-16q-19 0 -22 20l-64 383h-618l-201 -383q-9 -20 -29 -20zM743 1290l-436 -833h580l-139 833h-5zM610 1780q0 20 21 20h8q20 0 20 -20q9 -142 152 -142q65 0 117 37.5t82 104.5
q9 20 26 20h11q20 0 14 -20q-31 -88 -99.5 -139.5t-156.5 -51.5q-87 0 -138.5 51.5t-56.5 139.5z" />
    <glyph glyph-name="abreve" unicode="&#x103;" horiz-adv-x="999" 
d="M715 0h-17q-19 0 -16 20l20 115h-2q-39 -71 -125 -113t-202 -42q-128 0 -198.5 62t-70.5 169q0 160 101.5 243t296.5 83h258q11 0 14 12l25 131q25 149 -19 204.5t-192 55.5q-159 0 -260 -84q-19 -16 -31 -4l-12 12q-13 12 2 27q109 100 309 100q167 0 227.5 -71
t30.5 -240l-117 -660q-3 -20 -22 -20zM387 31q131 0 225 73q99 73 117 185l33 184q3 12 -8 12h-250q-344 0 -344 -270q0 -87 58 -135.5t169 -48.5zM467 1378q0 21 20 21h9q20 0 20 -21q9 -141 152 -141q65 0 116.5 37t81.5 104q9 21 27 21h10q21 0 15 -21
q-31 -88 -99.5 -139t-156.5 -51q-87 0 -138.5 51t-56.5 139z" />
    <glyph glyph-name="Aogonek" unicode="&#x104;" horiz-adv-x="1161" 
d="M848 -330q-43 0 -69.5 25.5t-26.5 68.5q0 58 46.5 114.5t162.5 137.5l-64 387h-618l-201 -383q-9 -20 -29 -20h-24q-20 0 -11 20l711 1352q9 21 25 21h20q15 0 18 -21l230 -1352q3 -14 -6 -20q-118 -85 -161.5 -134.5t-43.5 -92.5q0 -52 53 -52q26 0 64 23q14 9 22 -4
l6 -12q3 -12 -12 -27q-42 -31 -92 -31zM748 1290h-5l-436 -833h580z" />
    <glyph glyph-name="aogonek" unicode="&#x105;" horiz-adv-x="999" 
d="M559 -330q-43 0 -69.5 25.5t-26.5 68.5q0 99 219 256l20 115h-2q-39 -71 -125 -113t-202 -42q-128 0 -198.5 62t-70.5 169q0 160 101.5 243t296.5 83h258q11 0 14 12l25 131q25 149 -19 204.5t-192 55.5q-159 0 -260 -84q-19 -16 -31 -4l-12 12q-13 12 2 27
q109 100 309 100q167 0 227.5 -71t30.5 -240l-117 -660q-3 -12 -14 -20q-118 -85 -161.5 -134.5t-43.5 -92.5q0 -52 53 -52q26 0 64 23q14 9 22 -4l7 -12q3 -11 -13 -27q-42 -31 -92 -31zM387 31q131 0 225 73q99 73 117 185l33 184q3 12 -8 12h-250q-344 0 -344 -270
q0 -87 58 -135.5t169 -48.5z" />
    <glyph glyph-name="Cacute" unicode="&#x106;" horiz-adv-x="1087" 
d="M137 365q0 150 45 385q46 238 105 360q75 157 182 230t262 73q121 0 212.5 -65t131.5 -187q6 -16 -10 -22l-16 -6q-19 -10 -23 8q-77 219 -299 219q-259 0 -385 -262q-54 -110 -102 -353q-45 -226 -45 -370q0 -165 80.5 -253.5t234.5 -88.5q222 0 369 215q9 12 22 6
l19 -10q11 -8 2 -27q-150 -237 -420 -237q-172 0 -268.5 101t-96.5 284zM776 1569h-10q-24 0 -2 22l186 207q18 21 39 21h23q10 0 12 -6.5t-6 -14.5l-203 -209q-20 -20 -39 -20z" />
    <glyph glyph-name="cacute" unicode="&#x107;" horiz-adv-x="921" 
d="M401 -20q-142 0 -215 83t-73 242q0 244 94 436q61 120 157 185t216 65q217 0 272 -196q6 -17 -10 -27l-15 -6q-18 -9 -24 10q-49 168 -232 168q-92 0 -177 -58t-134 -157q-92 -192 -92 -408q0 -286 242 -286q167 0 295 168q13 16 28 4l10 -8q15 -12 0 -31
q-141 -184 -342 -184zM639 1147h-8q-20 0 -6 20l192 246q15 21 37 21h23q8 0 11 -7t-3 -14l-209 -246q-17 -20 -37 -20z" />
    <glyph glyph-name="Ccircumflex" unicode="&#x108;" horiz-adv-x="1087" 
d="M967 1548h-9q-18 0 -28 19l-115 213h-4l-193 -213q-16 -19 -34 -19h-11q-8 0 -9.5 7t5.5 14l211 246q15 18 33 18h10q16 0 25 -18l127 -246q12 -21 -8 -21zM137 365q0 150 45 385q46 238 105 360q75 157 182 230t262 73q121 0 212.5 -65t131.5 -187q6 -16 -10 -22l-16 -6
q-19 -10 -23 8q-77 219 -299 219q-259 0 -385 -262q-54 -110 -102 -353q-45 -226 -45 -370q0 -165 80.5 -253.5t234.5 -88.5q222 0 369 215q9 12 22 6l19 -10q11 -8 2 -27q-150 -237 -420 -237q-172 0 -268.5 101t-96.5 284z" />
    <glyph glyph-name="ccircumflex" unicode="&#x109;" horiz-adv-x="921" 
d="M401 -20q-142 0 -215 83t-73 242q0 244 94 436q61 120 157 185t216 65q217 0 272 -196q6 -17 -10 -27l-15 -6q-18 -9 -24 10q-49 168 -232 168q-92 0 -177 -58t-134 -157q-92 -192 -92 -408q0 -286 242 -286q167 0 295 168q13 16 28 4l10 -8q15 -12 0 -31
q-141 -184 -342 -184zM821 1149h-8q-20 0 -29 18l-114 213h-4l-193 -213q-15 -18 -35 -18h-10q-8 0 -9.5 6.5t5.5 13.5l211 246q16 19 33 19h10q14 0 24 -19l127 -246q11 -20 -8 -20z" />
    <glyph glyph-name="Cdotaccent" unicode="&#x10a;" horiz-adv-x="1087" 
d="M137 365q0 150 45 385q46 238 105 360q75 157 182 230t262 73q121 0 212.5 -65t131.5 -187q6 -16 -10 -22l-16 -6q-19 -10 -23 8q-77 219 -299 219q-259 0 -385 -262q-54 -110 -102 -353q-45 -226 -45 -370q0 -165 80.5 -253.5t234.5 -88.5q222 0 369 215q9 12 22 6
l19 -10q11 -8 2 -27q-150 -237 -420 -237q-172 0 -268.5 101t-96.5 284zM811 1630h-45q-19 0 -16 21l14 78q3 20 22 20h45q20 0 17 -20l-14 -78q-3 -21 -23 -21z" />
    <glyph glyph-name="cdotaccent" unicode="&#x10b;" horiz-adv-x="921" 
d="M401 -20q-142 0 -215 83t-73 242q0 244 94 436q61 120 157 185t216 65q217 0 272 -196q6 -17 -10 -27l-15 -6q-18 -9 -24 10q-49 168 -232 168q-92 0 -177 -58t-134 -157q-92 -192 -92 -408q0 -286 242 -286q167 0 295 168q13 16 28 4l10 -8q15 -12 0 -31
q-141 -184 -342 -184zM672 1274h-45q-20 0 -17 20l15 78q3 21 22 21h45q20 0 17 -21l-15 -78q-3 -20 -22 -20z" />
    <glyph glyph-name="Ccaron" unicode="&#x10c;" horiz-adv-x="1087" 
d="M774 1548h-10q-16 0 -25 19l-127 245q-12 21 9 21h8q19 0 28 -18l115 -213h4l193 213q15 18 35 18h10q8 0 9.5 -6.5t-5.5 -14.5l-211 -245q-16 -19 -33 -19zM137 365q0 150 45 385q46 238 105 360q75 157 182 230t262 73q121 0 212.5 -65t131.5 -187q6 -16 -10 -22
l-16 -6q-19 -10 -23 8q-77 219 -299 219q-259 0 -385 -262q-54 -110 -102 -353q-45 -226 -45 -370q0 -165 80.5 -253.5t234.5 -88.5q222 0 369 215q9 12 22 6l19 -10q11 -8 2 -27q-150 -237 -420 -237q-172 0 -268.5 101t-96.5 284z" />
    <glyph glyph-name="ccaron" unicode="&#x10d;" horiz-adv-x="921" 
d="M627 1149h-11q-15 0 -24 18l-127 246q-12 21 8 21h8q19 0 29 -19l115 -213h4l192 213q16 19 35 19h10q8 0 9.5 -7t-5.5 -14l-211 -246q-15 -18 -32 -18zM401 -20q-142 0 -215 83t-73 242q0 244 94 436q61 120 157 185t216 65q217 0 272 -196q6 -17 -10 -27l-15 -6
q-18 -9 -24 10q-49 168 -232 168q-92 0 -177 -58t-134 -157q-92 -192 -92 -408q0 -286 242 -286q167 0 295 168q13 16 28 4l10 -8q15 -12 0 -31q-141 -184 -342 -184z" />
    <glyph glyph-name="Dcaron" unicode="&#x10e;" horiz-adv-x="1239" 
d="M129 20l238 1352q3 21 22 21h395q375 0 375 -355q0 -145 -49 -397q-50 -258 -106 -373q-68 -141 -179 -204.5t-284 -63.5h-396q-19 0 -16 20zM416 1327l-221 -1261q-3 -13 8 -13h342q293 0 407 234q57 117 103 358q47 249 47 387q0 158 -80 232.5t-248 74.5h-344
q-11 0 -14 -12zM784 1548h-10q-14 0 -24 19l-127 245q-12 21 8 21h8q20 0 29 -18l114 -213h4l193 213q15 18 35 18h10q8 0 9.5 -6.5t-5.5 -14.5l-211 -245q-16 -19 -33 -19z" />
    <glyph glyph-name="dcaron" unicode="&#x10f;" 
d="M731 0h-16q-20 0 -17 20l25 138h-2q-114 -178 -326 -178q-138 0 -210 81t-72 232q0 130 32 258q36 143 68 209q111 231 354 231q103 0 172.5 -50.5t96.5 -137.5h2l98 569q3 21 22 21h17q19 0 16 -21l-237 -1352q-3 -20 -23 -20zM406 31q207 0 315 217q25 55 53 198
q31 161 31 242q0 114 -64 183t-178 69q-206 0 -301 -201q-40 -77 -69 -213q-25 -134 -25 -231q0 -264 238 -264zM1106 1135q-17 0 -14 18l38 219q3 21 23 21h21q19 0 16 -21l-25 -131q-3 -18 -14 -45l-23 -43q-9 -18 -22 -18z" />
    <glyph glyph-name="Dcroat" unicode="&#x110;" horiz-adv-x="1239" 
d="M541 0h-396q-19 0 -16 20l115 652q3 12 -11 12h-90q-19 0 -16 21l2 10q3 20 25 20h88q11 0 14 13l111 624q3 21 22 21h395q375 0 375 -355q0 -145 -49 -397q-50 -258 -106 -373q-68 -141 -179 -204.5t-284 -63.5zM203 53h342q293 0 407 234q57 117 103 358q47 249 47 387
q0 158 -80 232.5t-248 74.5h-344q-11 0 -14 -12l-103 -579q-3 -13 9 -13h286q20 0 17 -20l-2 -10q-3 -21 -25 -21h-283q-11 0 -14 -12l-106 -606q-3 -13 8 -13z" />
    <glyph glyph-name="dslash" unicode="&#x111;" 
d="M731 0h-16q-20 0 -17 20l25 138h-2q-114 -178 -326 -178q-138 0 -210 81t-72 232q0 130 32 258q36 143 68 209q111 231 354 231q103 0 172.5 -50.5t96.5 -137.5h2l61 358q3 13 -10 13h-275q-19 0 -16 20l2 10q3 19 25 19h272q11 0 14 12l25 137q3 21 22 21h17
q19 0 16 -21l-24 -137q-3 -12 10 -12h72q19 0 16 -21l-2 -10q-3 -18 -25 -18h-69q-12 0 -15 -13l-200 -1141q-3 -20 -23 -20zM406 31q207 0 315 217q25 55 53 198q31 161 31 242q0 114 -64 183t-178 69q-206 0 -301 -201q-40 -77 -69 -213q-25 -134 -25 -231
q0 -264 238 -264z" />
    <glyph glyph-name="Emacron" unicode="&#x112;" horiz-adv-x="1085" 
d="M129 20l238 1352q3 21 22 21h735q20 0 17 -21l-2 -12q-3 -21 -25 -21h-684q-11 0 -14 -12l-101 -577q-3 -15 13 -15h587q20 0 17 -20l-2 -13q-3 -20 -25 -20h-590q-11 0 -14 -12l-106 -604q-3 -13 10 -13h684q19 0 16 -20l-2 -13q-3 -20 -24 -20h-734q-19 0 -16 20z
M1032 1663h-461q-19 0 -16 20l2 11q3 20 23 20h460q20 0 17 -20l-2 -11q-3 -20 -23 -20z" />
    <glyph glyph-name="emacron" unicode="&#x113;" horiz-adv-x="960" 
d="M412 -20q-146 0 -222.5 80.5t-76.5 230.5q0 265 94 457q57 118 153 180.5t218 62.5q132 0 209 -81t77 -228q0 -71 -18 -176q-3 -21 -25 -21h-622q-14 0 -17 -12q-14 -69 -14 -182q0 -125 62.5 -192.5t185.5 -67.5q174 0 307 145q16 16 29 6l12 -10q15 -12 -2 -29
q-138 -163 -350 -163zM209 537h575q12 0 15 12q12 68 12 125q0 266 -238 266q-214 0 -317 -213q-35 -72 -57 -178q-3 -12 10 -12zM866 1305h-460q-20 0 -17 20l2 10q3 21 23 21h460q20 0 17 -21l-2 -10q-3 -20 -23 -20z" />
    <glyph glyph-name="Ebreve" unicode="&#x114;" horiz-adv-x="1085" 
d="M129 20l238 1352q3 21 22 21h735q20 0 17 -21l-2 -12q-3 -21 -25 -21h-684q-11 0 -14 -12l-101 -577q-3 -15 13 -15h587q20 0 17 -20l-2 -13q-3 -20 -25 -20h-590q-11 0 -14 -12l-106 -604q-3 -13 10 -13h684q19 0 16 -20l-2 -13q-3 -20 -24 -20h-734q-19 0 -16 20z
M596 1780q0 20 20 20h9q20 0 20 -20q9 -142 152 -142q65 0 116.5 37.5t81.5 104.5q9 20 27 20h10q21 0 15 -20q-31 -88 -99.5 -139.5t-156.5 -51.5q-87 0 -138.5 51.5t-56.5 139.5z" />
    <glyph glyph-name="ebreve" unicode="&#x115;" horiz-adv-x="960" 
d="M412 -20q-146 0 -222.5 80.5t-76.5 230.5q0 265 94 457q57 118 153 180.5t218 62.5q132 0 209 -81t77 -228q0 -71 -18 -176q-3 -21 -25 -21h-622q-14 0 -17 -12q-14 -69 -14 -182q0 -125 62.5 -192.5t185.5 -67.5q174 0 307 145q16 16 29 6l12 -10q15 -12 -2 -29
q-138 -163 -350 -163zM209 537h575q12 0 15 12q12 68 12 125q0 266 -238 266q-214 0 -317 -213q-35 -72 -57 -178q-3 -12 10 -12zM424 1378q0 21 20 21h9q20 0 20 -21q9 -141 152 -141q65 0 116.5 37t81.5 104q9 21 27 21h10q20 0 14 -21q-31 -88 -99.5 -139t-156.5 -51
q-87 0 -138 51t-56 139z" />
    <glyph glyph-name="Edotaccent" unicode="&#x116;" horiz-adv-x="1085" 
d="M129 20l238 1352q3 21 22 21h735q20 0 17 -21l-2 -12q-3 -21 -25 -21h-684q-11 0 -14 -12l-101 -577q-3 -15 13 -15h587q20 0 17 -20l-2 -13q-3 -20 -25 -20h-590q-11 0 -14 -12l-106 -604q-3 -13 10 -13h684q19 0 16 -20l-2 -13q-3 -20 -24 -20h-734q-19 0 -16 20z
M817 1630h-45q-19 0 -16 21l14 78q3 20 23 20h45q19 0 16 -20l-14 -78q-3 -21 -23 -21z" />
    <glyph glyph-name="edotaccent" unicode="&#x117;" horiz-adv-x="960" 
d="M412 -20q-146 0 -222.5 80.5t-76.5 230.5q0 265 94 457q57 118 153 180.5t218 62.5q132 0 209 -81t77 -228q0 -71 -18 -176q-3 -21 -25 -21h-622q-14 0 -17 -12q-14 -69 -14 -182q0 -125 62.5 -192.5t185.5 -67.5q174 0 307 145q16 16 29 6l12 -10q15 -12 -2 -29
q-138 -163 -350 -163zM209 537h575q12 0 15 12q12 68 12 125q0 266 -238 266q-214 0 -317 -213q-35 -72 -57 -178q-3 -12 10 -12zM653 1274h-45q-19 0 -16 20l14 78q3 21 23 21h45q19 0 16 -21l-14 -78q-3 -20 -23 -20z" />
    <glyph glyph-name="Eogonek" unicode="&#x118;" horiz-adv-x="1085" 
d="M700 -330q-43 0 -69.5 27t-26.5 70q0 55 41.5 106.5t147.5 126.5h-648q-19 0 -16 20l238 1352q3 21 22 21h735q20 0 17 -21l-2 -12q-3 -21 -25 -21h-684q-11 0 -14 -12l-101 -577q-3 -15 13 -15h587q20 0 17 -20l-2 -13q-3 -20 -25 -20h-590q-11 0 -14 -12l-106 -604
q-3 -13 10 -13h684q19 0 16 -20l-2 -13q-3 -20 -24 -20h-15q-118 -85 -161.5 -134.5t-43.5 -92.5q0 -52 54 -52q25 0 63 23q15 9 23 -4l6 -12q3 -12 -12 -27q-42 -31 -93 -31z" />
    <glyph glyph-name="eogonek" unicode="&#x119;" horiz-adv-x="960" 
d="M502 -330q-43 0 -69.5 25.5t-26.5 68.5q0 101 149 238q-71 -22 -143 -22q-146 0 -222.5 80.5t-76.5 230.5q0 265 94 457q57 118 153 180.5t218 62.5q132 0 209 -81t77 -228q0 -71 -18 -176q-3 -21 -25 -21h-622q-14 0 -17 -12q-14 -69 -14 -182q0 -125 62.5 -192.5
t185.5 -67.5q174 0 307 145q16 16 29 6l12 -10q14 -14 -2 -29q-49 -52 -92 -84q-209 -194 -209 -286q0 -52 53 -52q26 0 64 23q14 9 22 -4l6 -12q3 -12 -12 -27q-42 -31 -92 -31zM209 537h575q12 0 15 12q12 68 12 125q0 266 -238 266q-214 0 -317 -213q-35 -72 -57 -178
q-3 -12 10 -12z" />
    <glyph glyph-name="Ecaron" unicode="&#x11a;" horiz-adv-x="1085" 
d="M129 20l238 1352q3 21 22 21h735q20 0 17 -21l-2 -12q-3 -21 -25 -21h-684q-11 0 -14 -12l-101 -577q-3 -15 13 -15h587q20 0 17 -20l-2 -13q-3 -20 -25 -20h-590q-11 0 -14 -12l-106 -604q-3 -13 10 -13h684q19 0 16 -20l-2 -13q-3 -20 -24 -20h-734q-19 0 -16 20z
M780 1548h-10q-16 0 -25 19l-127 245q-12 21 9 21h8q20 0 29 -18l114 -213h4l193 213q15 18 35 18h10q8 0 9.5 -6.5t-5.5 -14.5l-211 -245q-16 -19 -33 -19z" />
    <glyph glyph-name="ecaron" unicode="&#x11b;" horiz-adv-x="960" 
d="M412 -20q-146 0 -222.5 80.5t-76.5 230.5q0 265 94 457q57 118 153 180.5t218 62.5q132 0 209 -81t77 -228q0 -71 -18 -176q-3 -21 -25 -21h-622q-14 0 -17 -12q-14 -69 -14 -182q0 -125 62.5 -192.5t185.5 -67.5q174 0 307 145q16 16 29 6l12 -10q15 -12 -2 -29
q-138 -163 -350 -163zM209 537h575q12 0 15 12q12 68 12 125q0 266 -238 266q-214 0 -317 -213q-35 -72 -57 -178q-3 -12 10 -12zM614 1149h-10q-15 0 -24 18l-127 246q-12 21 8 21h8q19 0 29 -19l114 -213h4l193 213q16 19 35 19h10q8 0 9.5 -7t-5.5 -14l-211 -246
q-15 -18 -33 -18z" />
    <glyph glyph-name="Gcircumflex" unicode="&#x11c;" horiz-adv-x="1181" 
d="M139 365q0 150 45 385q46 238 105 360q146 303 469 303q126 0 222 -62t136 -180q6 -16 -10 -22l-16 -6q-19 -10 -23 8q-77 209 -319 209q-278 0 -404 -262q-54 -110 -102 -353q-45 -226 -45 -370q0 -166 81 -254t236 -88q276 0 408 266q65 128 92 313q3 13 -10 13h-345
q-17 0 -14 20l2 14q3 19 21 19h393q17 0 14 -21l-10 -67q-29 -179 -90 -307q-75 -157 -188.5 -230t-280.5 -73q-174 0 -270.5 101t-96.5 284zM991 1548h-8q-19 0 -29 19l-114 213h-4l-193 -213q-16 -19 -35 -19h-10q-8 0 -9.5 7t5.5 14l211 246q15 18 33 18h10q15 0 24 -18
l127 -246q12 -21 -8 -21z" />
    <glyph glyph-name="gcircumflex" unicode="&#x11d;" horiz-adv-x="1015" 
d="M344 -389q-190 0 -270 147q-12 21 8 29l14 6q17 7 27 -10q77 -121 229 -121q284 0 342 346l25 144h-2q-102 -172 -314 -172q-134 0 -206 79.5t-72 221.5q0 107 27 245q26 135 75 234q114 231 348 231q101 0 168 -51.5t91 -136.5h2l24 147q3 21 25 21h14q19 0 16 -21
l-167 -946q-37 -206 -137.5 -299.5t-266.5 -93.5zM414 31q200 0 295 194q37 76 63 226q31 161 31 237q0 113 -62 182.5t-170 69.5q-200 0 -295 -201q-96 -212 -96 -456q0 -120 59 -186t175 -66zM844 1149h-8q-20 0 -29 18l-115 213h-4l-192 -213q-15 -18 -35 -18h-10
q-8 0 -10 6.5t5 13.5l211 246q16 19 33 19h10q16 0 25 -19l127 -246q11 -20 -8 -20z" />
    <glyph glyph-name="Gbreve" unicode="&#x11e;" horiz-adv-x="1181" 
d="M139 365q0 150 45 385q46 238 105 360q146 303 469 303q126 0 222 -62t136 -180q6 -16 -10 -22l-16 -6q-19 -10 -23 8q-77 209 -319 209q-278 0 -404 -262q-54 -110 -102 -353q-45 -226 -45 -370q0 -166 81 -254t236 -88q276 0 408 266q65 128 92 313q3 13 -10 13h-345
q-17 0 -14 20l2 14q3 19 21 19h393q17 0 14 -21l-10 -67q-29 -179 -90 -307q-75 -157 -188.5 -230t-280.5 -73q-174 0 -270.5 101t-96.5 284zM610 1780q0 20 21 20h8q20 0 20 -20q9 -142 152 -142q65 0 117 37.5t82 104.5q9 20 26 20h11q20 0 14 -20q-31 -88 -99.5 -139.5
t-156.5 -51.5q-87 0 -138.5 51.5t-56.5 139.5z" />
    <glyph glyph-name="gbreve" unicode="&#x11f;" horiz-adv-x="1015" 
d="M344 -389q-190 0 -270 147q-12 21 8 29l14 6q17 7 27 -10q77 -121 229 -121q284 0 342 346l25 144h-2q-102 -172 -314 -172q-134 0 -206 79.5t-72 221.5q0 107 27 245q26 135 75 234q114 231 348 231q101 0 168 -51.5t91 -136.5h2l24 147q3 21 25 21h14q19 0 16 -21
l-167 -946q-37 -206 -137.5 -299.5t-266.5 -93.5zM414 31q200 0 295 194q37 76 63 226q31 161 31 237q0 113 -62 182.5t-170 69.5q-200 0 -295 -201q-96 -212 -96 -456q0 -120 59 -186t175 -66zM461 1378q0 21 20 21h8q21 0 21 -21q9 -141 152 -141q65 0 116.5 37t81.5 104
q9 21 27 21h10q20 0 14 -21q-31 -88 -99.5 -139t-156.5 -51q-87 0 -138 51t-56 139z" />
    <glyph glyph-name="Gdotaccent" unicode="&#x120;" horiz-adv-x="1181" 
d="M139 365q0 150 45 385q46 238 105 360q146 303 469 303q126 0 222 -62t136 -180q6 -16 -10 -22l-16 -6q-19 -10 -23 8q-77 209 -319 209q-278 0 -404 -262q-54 -110 -102 -353q-45 -226 -45 -370q0 -166 81 -254t236 -88q276 0 408 266q65 128 92 313q3 13 -10 13h-345
q-17 0 -14 20l2 14q3 19 21 19h393q17 0 14 -21l-10 -67q-29 -179 -90 -307q-75 -157 -188.5 -230t-280.5 -73q-174 0 -270.5 101t-96.5 284zM829 1630h-45q-19 0 -16 21l14 78q3 20 23 20h45q19 0 16 -20l-14 -78q-3 -21 -23 -21z" />
    <glyph glyph-name="gdotaccent" unicode="&#x121;" horiz-adv-x="1015" 
d="M344 -389q-190 0 -270 147q-12 21 8 29l14 6q17 7 27 -10q77 -121 229 -121q284 0 342 346l25 144h-2q-102 -172 -314 -172q-134 0 -206 79.5t-72 221.5q0 107 27 245q26 135 75 234q114 231 348 231q101 0 168 -51.5t91 -136.5h2l24 147q3 21 25 21h14q19 0 16 -21
l-167 -946q-37 -206 -137.5 -299.5t-266.5 -93.5zM414 31q200 0 295 194q37 76 63 226q31 161 31 237q0 113 -62 182.5t-170 69.5q-200 0 -295 -201q-96 -212 -96 -456q0 -120 59 -186t175 -66zM690 1274h-45q-19 0 -16 20l14 78q3 21 23 21h45q19 0 16 -21l-14 -78
q-3 -20 -23 -20z" />
    <glyph glyph-name="Gcommaaccent" unicode="&#x122;" horiz-adv-x="1181" 
d="M139 365q0 150 45 385q46 238 105 360q146 303 469 303q126 0 222 -62t136 -180q6 -16 -10 -22l-16 -6q-19 -10 -23 8q-77 209 -319 209q-278 0 -404 -262q-54 -110 -102 -353q-45 -226 -45 -370q0 -166 81 -254t236 -88q276 0 408 266q65 128 92 313q3 13 -10 13h-345
q-17 0 -14 20l2 14q3 19 21 19h393q17 0 14 -21l-10 -67q-29 -179 -90 -307q-75 -157 -188.5 -230t-280.5 -73q-174 0 -270.5 101t-96.5 284zM444 -373q-17 0 -14 19l39 219q3 20 23 20h20q19 0 16 -20l-24 -131q-2 -15 -15 -45l-22 -43q-9 -19 -23 -19z" />
    <glyph glyph-name="gcommaaccent" unicode="&#x123;" horiz-adv-x="1015" 
d="M344 -389q-190 0 -270 147q-12 21 8 29l14 6q17 7 27 -10q77 -121 229 -121q284 0 342 346l25 144h-2q-102 -172 -314 -172q-134 0 -206 79.5t-72 221.5q0 107 27 245q26 135 75 234q114 231 348 231q101 0 168 -51.5t91 -136.5h2l24 147q3 21 25 21h14q19 0 16 -21
l-167 -946q-37 -206 -137.5 -299.5t-266.5 -93.5zM414 31q200 0 295 194q37 76 63 226q31 161 31 237q0 113 -62 182.5t-170 69.5q-200 0 -295 -201q-96 -212 -96 -456q0 -120 59 -186t175 -66zM707 1434q17 0 14 -19l-39 -219q-3 -20 -23 -20h-20q-19 0 -16 20l24 131
q2 15 15 45l22 43q10 19 23 19z" />
    <glyph glyph-name="Hcircumflex" unicode="&#x124;" horiz-adv-x="1273" 
d="M129 20l238 1352q3 21 22 21h19q19 0 16 -21l-111 -624q-3 -13 11 -13h731q11 0 14 13l111 624q3 21 22 21h19q19 0 16 -21l-238 -1352q-3 -20 -22 -20h-19q-19 0 -16 20l113 650q3 12 -8 12h-732q-11 0 -14 -12l-115 -650q-3 -20 -22 -20h-19q-19 0 -16 20zM1018 1548
h-8q-20 0 -29 19l-115 213h-4l-192 -213q-16 -19 -35 -19h-10q-8 0 -9.5 7t5.5 14l210 246q15 18 33 18h10q16 0 25 -18l127 -246q12 -21 -8 -21z" />
    <glyph glyph-name="hcircumflex" unicode="&#x125;" horiz-adv-x="1056" 
d="M774 0h-18q-18 0 -15 20l107 582q31 176 -22 257t-195 81q-114 0 -217 -86q-100 -81 -125 -217l-109 -617q-3 -20 -22 -20h-19q-17 0 -14 20l237 1352q3 21 23 21h16q20 0 17 -21l-96 -553h2q111 172 317 172q160 0 228 -95.5t36 -279.5l-108 -596q-3 -20 -23 -20z
M913 1548h-8q-19 0 -28 19l-115 213h-4l-193 -213q-16 -19 -35 -19h-10q-8 0 -9.5 7t5.5 14l211 246q15 18 33 18h10q16 0 25 -18l127 -246q12 -21 -9 -21z" />
    <glyph glyph-name="Hbar" unicode="&#x126;" horiz-adv-x="1273" 
d="M977 0h-19q-19 0 -16 20l113 650q3 12 -8 12h-732q-11 0 -14 -12l-115 -650q-3 -20 -22 -20h-19q-19 0 -16 20l176 1000q3 12 -10 12h-82q-19 0 -16 21l2 10q3 20 24 20h80q11 0 14 13l50 276q3 21 22 21h19q19 0 16 -21l-49 -276q-3 -13 8 -13h733q11 0 14 13l50 276
q3 21 22 21h19q19 0 16 -21l-49 -276q-3 -13 8 -13h82q17 0 14 -20v-10q-3 -21 -22 -21h-84q-9 0 -12 -12l-175 -1000q-3 -20 -22 -20zM324 735h731q11 0 14 13l47 272q3 12 -10 12h-733q-10 0 -13 -12l-47 -272q-3 -13 11 -13z" />
    <glyph glyph-name="hbar" unicode="&#x127;" horiz-adv-x="1056" 
d="M774 0h-18q-18 0 -15 20l107 582q31 176 -22 257t-195 81q-114 0 -217 -86q-100 -81 -125 -217l-109 -617q-3 -20 -22 -20h-19q-17 0 -14 20l201 1141q3 13 -11 13h-71q-20 0 -17 20l2 10q3 19 25 19h70q11 0 14 12l24 137q3 21 23 21h16q20 0 17 -21l-25 -137
q-3 -12 10 -12h275q19 0 16 -21l-2 -10q-3 -18 -24 -18h-273q-11 0 -14 -13l-59 -342h2q111 172 317 172q160 0 228 -95.5t36 -279.5l-108 -596q-3 -20 -23 -20z" />
    <glyph glyph-name="Itilde" unicode="&#x128;" horiz-adv-x="460" 
d="M557 1630q-52 0 -104 43q-46 37 -84 37q-49 0 -119 -70q-6 -6 -12.5 -3.5t-4.5 10.5l5 28q3 17 18 29q59 53 123 53q52 0 104 -43q46 -37 84 -37q49 0 119 70q6 6 12 4t4 -10l-4 -29q-3 -17 -18 -29q-59 -53 -123 -53zM129 20l238 1352q3 21 22 21h19q19 0 16 -21
l-238 -1352q-3 -20 -22 -20h-19q-19 0 -16 20z" />
    <glyph glyph-name="itilde" unicode="&#x129;" horiz-adv-x="452" 
d="M438 1260q-52 0 -104 43q-45 36 -84 36q-50 0 -119 -69q-6 -6 -12 -4t-4 10l4 29q3 16 18 28q59 53 123 53q53 0 105 -43q45 -36 84 -36q49 0 118 69q6 6 12.5 4t4.5 -10l-4 -29q-3 -15 -19 -28q-59 -53 -123 -53zM156 0h-17q-19 0 -16 20l164 930q3 21 22 21h17
q19 0 16 -21l-164 -930q-3 -20 -22 -20z" />
    <glyph glyph-name="Imacron" unicode="&#x12a;" horiz-adv-x="460" 
d="M129 20l238 1352q3 21 22 21h19q19 0 16 -21l-238 -1352q-3 -20 -22 -20h-19q-19 0 -16 20zM694 1663h-461q-19 0 -16 20l2 11q3 20 23 20h460q20 0 17 -20l-2 -11q-3 -20 -23 -20z" />
    <glyph glyph-name="imacron" unicode="&#x12b;" horiz-adv-x="452" 
d="M158 0h-17q-19 0 -16 20l164 930q3 21 22 21h17q19 0 16 -21l-164 -930q-3 -20 -22 -20zM580 1305h-461q-20 0 -17 20l2 10q3 21 23 21h461q19 0 16 -21l-2 -10q-3 -20 -22 -20z" />
    <glyph glyph-name="Ibreve" unicode="&#x12c;" horiz-adv-x="460" 
d="M129 20l238 1352q3 21 22 21h19q19 0 16 -21l-238 -1352q-3 -20 -22 -20h-19q-19 0 -16 20zM260 1780q0 20 21 20h8q20 0 20 -20q9 -142 152 -142q65 0 116.5 37.5t81.5 104.5q9 20 27 20h10q21 0 15 -20q-31 -88 -99.5 -139.5t-156.5 -51.5q-87 0 -138.5 51.5
t-56.5 139.5z" />
    <glyph glyph-name="ibreve" unicode="&#x12d;" horiz-adv-x="452" 
d="M158 0h-17q-19 0 -16 20l164 930q3 21 22 21h17q19 0 16 -21l-164 -930q-3 -20 -22 -20zM164 1378q0 21 20 21h9q20 0 20 -21q9 -141 152 -141q65 0 116.5 37t81.5 104q9 21 27 21h10q20 0 14 -21q-31 -88 -99.5 -139t-156.5 -51q-87 0 -138 51t-56 139z" />
    <glyph glyph-name="Iogonek" unicode="&#x12e;" horiz-adv-x="460" 
d="M49 -330q-43 0 -69.5 26.5t-26.5 67.5q0 98 170 248l239 1360q3 21 23 21h18q20 0 17 -21l-238 -1352q-3 -9 -12 -18q-162 -162 -162 -229q0 -52 53 -52q26 0 64 23q14 9 22 -4l7 -12q3 -11 -13 -27q-42 -31 -92 -31z" />
    <glyph glyph-name="iogonek" unicode="&#x12f;" horiz-adv-x="452" 
d="M389 1274h-41q-19 0 -16 20l14 78q3 21 23 21h45q17 0 14 -21l-14 -78q-3 -20 -25 -20zM43 -330q-43 0 -69.5 25.5t-26.5 68.5q0 47 37.5 101.5t136.5 150.5l164 934q3 21 22 21h17q19 0 16 -21l-164 -930q-4 -12 -10 -18q-95 -95 -129.5 -144t-34.5 -85q0 -52 53 -52
q26 0 64 23q14 9 22 -4l6 -12q3 -12 -12 -27q-42 -31 -92 -31z" />
    <glyph glyph-name="Idot" unicode="&#x130;" horiz-adv-x="460" 
d="M467 1630h-45q-19 0 -16 21l14 78q3 20 22 20h45q20 0 17 -20l-15 -78q-3 -21 -22 -21zM129 20l238 1352q3 21 22 21h19q19 0 16 -21l-238 -1352q-3 -20 -22 -20h-19q-19 0 -16 20z" />
    <glyph glyph-name="dotlessi" unicode="&#x131;" horiz-adv-x="452" 
d="M158 0h-17q-19 0 -16 20l164 930q3 21 22 21h17q19 0 16 -21l-164 -930q-3 -20 -22 -20z" />
    <glyph glyph-name="Jcircumflex" unicode="&#x134;" horiz-adv-x="915" 
d="M45 72q-16 12 0 28l10 11q15 15 31 2q106 -80 211 -80q303 0 367 358l172 981q3 21 22 21h19q19 0 16 -21l-174 -987q-71 -405 -428 -405q-137 0 -246 92zM1087 1548h-8q-19 0 -28 19l-115 213h-4l-193 -213q-16 -19 -34 -19h-11q-8 0 -9.5 7t5.5 14l211 246q15 18 33 18
h10q16 0 25 -18l127 -246q12 -21 -9 -21z" />
    <glyph glyph-name="jcircumflex" unicode="&#x135;" horiz-adv-x="452" 
d="M545 1149h-8q-20 0 -29 18l-115 213h-4l-192 -213q-15 -18 -35 -18h-10q-8 0 -10 6.5t5 13.5l211 246q16 19 33 19h10q15 0 25 -19l127 -246q11 -20 -8 -20zM-96 -369h-8q-20 0 -17 21l2 10q3 21 25 21h6q91 0 128 34t56 138l193 1095q3 21 22 21h17q19 0 16 -21
l-192 -1095q-23 -130 -76 -177t-172 -47z" />
    <glyph glyph-name="Kcommaaccent" unicode="&#x136;" horiz-adv-x="1144" 
d="M129 20l238 1352q3 21 22 21h19q19 0 16 -21l-152 -864l848 864q21 21 39 21h29q8 0 10 -6.5t-4 -14.5l-524 -532l313 -820q9 -20 -14 -20h-23q-15 0 -24 20l-293 777l-373 -379l-70 -398q-3 -20 -22 -20h-19q-19 0 -16 20zM467 -373q-17 0 -14 19l39 219q3 20 22 20h21
q19 0 16 -20l-25 -131q-3 -18 -14 -45l-23 -43q-9 -19 -22 -19z" />
    <glyph glyph-name="kcommaaccent" unicode="&#x137;" horiz-adv-x="962" 
d="M780 0h-16q-18 0 -27 20l-227 555l-283 -286l-47 -269q-3 -20 -22 -20h-19q-17 0 -14 20l237 1352q3 21 23 21h16q20 0 17 -21l-176 -997l567 577q19 19 35 19h28q10 0 12.5 -6.5t-5.5 -14.5l-328 -334l246 -596q4 -20 -17 -20zM387 -373q-17 0 -14 19l39 219q3 20 22 20
h21q19 0 16 -20l-25 -131q-3 -18 -14 -45l-22 -43q-10 -19 -23 -19z" />
    <glyph glyph-name="kgreenlandic" unicode="&#x138;" horiz-adv-x="962" 
d="M780 0h-16q-18 0 -27 20l-227 555l-283 -286l-47 -269q-3 -20 -22 -20h-19q-17 0 -14 20l164 930q3 21 22 21h17q19 0 16 -21l-102 -575l567 577q19 19 35 19h28q10 0 12.5 -6.5t-5.5 -14.5l-328 -334l246 -596q4 -20 -17 -20z" />
    <glyph glyph-name="Lacute" unicode="&#x139;" horiz-adv-x="1024" 
d="M129 20l238 1352q3 21 22 21h19q19 0 16 -21l-229 -1306q-3 -13 8 -13h684q19 0 16 -20l-2 -13q-3 -20 -22 -20h-734q-19 0 -16 20zM434 1569h-10q-24 0 -2 22l186 207q18 21 39 21h23q10 0 12 -6.5t-6 -14.5l-203 -209q-20 -20 -39 -20z" />
    <glyph glyph-name="lacute" unicode="&#x13a;" horiz-adv-x="485" 
d="M324 -4h-27q-87 0 -117.5 47t-11.5 152l215 1177q3 21 23 21h16q19 0 16 -21l-215 -1177q-14 -85 3.5 -116.5t78.5 -31.5h29q19 0 16 -20l-2 -11q-3 -20 -24 -20zM440 1569h-10q-24 0 -2 22l186 207q18 21 39 21h23q10 0 12 -6.5t-6 -14.5l-203 -209q-20 -20 -39 -20z
" />
    <glyph glyph-name="Lcommaaccent" unicode="&#x13b;" horiz-adv-x="1024" 
d="M461 -373q-18 0 -15 19l39 219q3 20 23 20h20q20 0 17 -20l-25 -131q-3 -18 -14 -45l-23 -43q-9 -19 -22 -19zM129 20l238 1352q3 21 22 21h19q19 0 16 -21l-229 -1306q-3 -13 8 -13h684q19 0 16 -20l-2 -13q-3 -20 -22 -20h-734q-19 0 -16 20z" />
    <glyph glyph-name="lcommaaccent" unicode="&#x13c;" horiz-adv-x="485" 
d="M150 -373q-18 0 -15 19l39 219q3 20 23 20h20q19 0 16 -20l-24 -131q-3 -18 -14 -45l-23 -43q-10 -19 -22 -19zM309 -4h-26q-87 0 -117.5 47t-11.5 152l215 1177q3 21 22 21h17q19 0 16 -21l-215 -1177q-14 -85 3.5 -116.5t78.5 -31.5h28q20 0 17 -20l-2 -11
q-3 -20 -25 -20z" />
    <glyph glyph-name="Lcaron" unicode="&#x13d;" horiz-adv-x="1024" 
d="M629 1135q-18 0 -15 18l39 219q3 21 23 21h20q20 0 17 -21l-25 -131q-3 -19 -14 -45l-23 -43q-9 -18 -22 -18zM129 20l238 1352q3 21 22 21h19q19 0 16 -21l-229 -1306q-3 -13 8 -13h684q19 0 16 -20l-2 -13q-3 -20 -22 -20h-734q-19 0 -16 20z" />
    <glyph glyph-name="lcaron" unicode="&#x13e;" horiz-adv-x="485" 
d="M551 1135q-17 0 -14 18l38 219q3 21 23 21h20q20 0 17 -21l-25 -131q-3 -19 -14 -45l-23 -43q-9 -18 -22 -18zM324 -4h-27q-87 0 -117.5 47t-11.5 152l215 1177q3 21 23 21h16q19 0 16 -21l-215 -1177q-14 -85 3.5 -116.5t78.5 -31.5h29q19 0 16 -20l-2 -11
q-3 -20 -24 -20z" />
    <glyph glyph-name="Ldot" unicode="&#x13f;" horiz-adv-x="1024" 
d="M129 20l238 1352q3 21 22 21h19q19 0 16 -21l-229 -1306q-3 -13 8 -13h684q19 0 16 -20l-2 -13q-3 -20 -22 -20h-734q-19 0 -16 20zM770 598h-51q-20 0 -17 20l17 99q3 20 22 20h52q19 0 16 -20l-16 -99q-3 -20 -23 -20z" />
    <glyph glyph-name="ldot" unicode="&#x140;" horiz-adv-x="485" 
d="M324 -4h-27q-87 0 -117.5 47t-11.5 152l215 1177q3 21 23 21h16q19 0 16 -21l-215 -1177q-14 -85 3.5 -116.5t78.5 -31.5h29q19 0 16 -20l-2 -11q-3 -20 -24 -20zM539 598h-52q-19 0 -16 20l16 99q3 20 23 20h51q20 0 17 -20l-17 -99q-3 -20 -22 -20z" />
    <glyph glyph-name="Lslash" unicode="&#x141;" horiz-adv-x="1024" 
d="M666 842l-369 -180l-104 -596q-3 -13 8 -13h684q19 0 16 -20l-2 -13q-3 -20 -22 -20h-734q-19 0 -16 20l106 611l-127 -62q-8 -5 -13.5 -1t-4.5 14l4 20q4 19 23 27l129 63l121 680q3 21 22 21h19q19 0 16 -21l-115 -649l367 178q8 5 13.5 1.5t4.5 -13.5l-4 -21
q-4 -18 -22 -26z" />
    <glyph glyph-name="lslash" unicode="&#x142;" horiz-adv-x="485" 
d="M307 -4h-26q-87 0 -117.5 47t-11.5 152l92 512l-88 -43q-11 -5 -16.5 -1.5t-4.5 13.5l2 16q3 20 25 29l94 45l111 606q3 21 22 21h17q19 0 16 -21l-107 -577l119 57q11 5 16.5 1.5t4.5 -13.5l-2 -17q-3 -19 -25 -28l-123 -60l-98 -540q-14 -85 3.5 -116.5t78.5 -31.5h28
q20 0 17 -20l-2 -11q-3 -20 -25 -20z" />
    <glyph glyph-name="Nacute" unicode="&#x143;" horiz-adv-x="1275" 
d="M129 20l238 1352q3 21 22 21h17q17 0 26 -21l524 -1251h5l221 1251q3 21 22 21h19q19 0 16 -21l-238 -1352q-3 -20 -22 -20h-14q-20 0 -29 20l-524 1258h-4l-222 -1258q-3 -20 -22 -20h-19q-19 0 -16 20zM793 1569h-11q-24 0 -2 22l187 207q18 21 39 21h22q10 0 12 -6.5
t-6 -14.5l-203 -209q-20 -20 -38 -20z" />
    <glyph glyph-name="nacute" unicode="&#x144;" horiz-adv-x="1056" 
d="M774 0h-18q-18 0 -15 20l107 582q31 176 -22 257t-195 81q-114 0 -217 -86q-100 -81 -125 -217l-109 -617q-3 -20 -22 -20h-19q-17 0 -14 20l164 930q3 21 22 21h17q19 0 16 -21l-22 -131h2q111 172 317 172q160 0 228 -95.5t36 -279.5l-108 -596q-3 -20 -23 -20z
M606 1147h-8q-20 0 -6 20l192 246q15 21 37 21h23q8 0 11 -7t-3 -14l-209 -246q-17 -20 -37 -20z" />
    <glyph glyph-name="Ncommaaccent" unicode="&#x145;" horiz-adv-x="1275" 
d="M129 20l238 1352q3 21 22 21h17q17 0 26 -21l524 -1251h5l221 1251q3 21 22 21h19q19 0 16 -21l-238 -1352q-3 -20 -22 -20h-14q-20 0 -29 20l-524 1258h-4l-222 -1258q-3 -20 -22 -20h-19q-19 0 -16 20zM520 -373q-17 0 -14 19l39 219q3 20 22 20h21q19 0 16 -20
l-24 -131q-2 -15 -15 -45l-22 -43q-9 -19 -23 -19z" />
    <glyph glyph-name="ncommaaccent" unicode="&#x146;" horiz-adv-x="1056" 
d="M774 0h-18q-18 0 -15 20l107 582q31 176 -22 257t-195 81q-114 0 -217 -86q-100 -81 -125 -217l-109 -617q-3 -20 -22 -20h-19q-17 0 -14 20l164 930q3 21 22 21h17q19 0 16 -21l-22 -131h2q111 172 317 172q160 0 228 -95.5t36 -279.5l-108 -596q-3 -20 -23 -20z
M403 -373q-17 0 -14 19l39 219q3 20 23 20h20q19 0 16 -20l-24 -131q-3 -18 -14 -45l-23 -43q-10 -19 -23 -19z" />
    <glyph glyph-name="Ncaron" unicode="&#x147;" horiz-adv-x="1275" 
d="M129 20l238 1352q3 21 22 21h17q17 0 26 -21l524 -1251h5l221 1251q3 21 22 21h19q19 0 16 -21l-238 -1352q-3 -20 -22 -20h-14q-20 0 -29 20l-524 1258h-4l-222 -1258q-3 -20 -22 -20h-19q-19 0 -16 20zM831 1548h-10q-15 0 -24 19l-127 245q-12 21 8 21h8q20 0 29 -18
l114 -213h5l192 213q15 18 35 18h10q8 0 9.5 -6.5t-5.5 -14.5l-211 -245q-16 -19 -33 -19z" />
    <glyph glyph-name="ncaron" unicode="&#x148;" horiz-adv-x="1056" 
d="M774 0h-18q-18 0 -15 20l107 582q31 176 -22 257t-195 81q-114 0 -217 -86q-100 -81 -125 -217l-109 -617q-3 -20 -22 -20h-19q-17 0 -14 20l164 930q3 21 22 21h17q19 0 16 -21l-22 -131h2q111 172 317 172q160 0 228 -95.5t36 -279.5l-108 -596q-3 -20 -23 -20z
M657 1149h-10q-15 0 -24 18l-127 246q-12 21 8 21h8q20 0 29 -19l114 -213h4l193 213q16 19 35 19h10q8 0 9.5 -7t-5.5 -14l-211 -246q-15 -18 -33 -18z" />
    <glyph glyph-name="Eng" unicode="&#x14a;" horiz-adv-x="1275" 
d="M678 -369h-12q-20 0 -17 21l2 12q3 21 25 21h14q104 0 161 51t75 168l18 98l-532 1276h-4l-222 -1258q-3 -20 -22 -20h-19q-19 0 -16 20l238 1352q3 21 20 21h14q22 0 31 -21l524 -1251h5l221 1251q3 21 20 21h19q21 0 18 -21l-258 -1466q-26 -146 -97.5 -210.5
t-205.5 -64.5z" />
    <glyph glyph-name="eng" unicode="&#x14b;" horiz-adv-x="1056" 
d="M522 -369h-6q-19 0 -16 21l2 10q3 21 24 21h6q89 0 127 33t56 134l133 752q32 172 -21.5 255t-195.5 83q-118 0 -219 -88q-102 -85 -123 -215l-109 -617q-3 -20 -22 -20h-17q-19 0 -16 20l164 930q3 21 22 21h17q19 0 16 -21l-22 -131h2q111 172 317 172q161 0 228.5 -95
t35.5 -280l-137 -766q-20 -123 -76 -172q-53 -47 -170 -47z" />
    <glyph glyph-name="Omacron" unicode="&#x14c;" horiz-adv-x="1187" 
d="M506 -20q-174 0 -270.5 101t-96.5 284q0 150 45 385q46 238 105 360q146 303 467 303q173 0 269.5 -101t96.5 -284q0 -139 -47 -385q-47 -248 -102 -360q-146 -303 -467 -303zM514 33q278 0 404 262q54 111 102 352q45 226 45 371q0 166 -81 254t-236 88
q-278 0 -404 -262q-54 -110 -102 -353q-45 -226 -45 -370q0 -166 81 -254t236 -88zM1040 1663h-460q-20 0 -17 20l2 11q3 20 23 20h461q19 0 16 -20l-2 -11q-3 -20 -23 -20z" />
    <glyph glyph-name="omacron" unicode="&#x14d;" horiz-adv-x="980" 
d="M412 -20q-148 0 -223.5 83t-75.5 238q0 109 30 244q35 141 68 211q113 235 371 235q148 0 223.5 -83t75.5 -238q0 -114 -33 -246q-29 -130 -66 -209q-113 -235 -370 -235zM420 31q211 0 317 213q34 74 58 188q30 129 30 223q0 285 -252 285q-211 0 -317 -213
q-31 -67 -59 -188q-29 -139 -29 -224q0 -284 252 -284zM883 1305h-461q-19 0 -16 20l2 10q3 21 22 21h461q19 0 16 -21l-2 -10q-3 -20 -22 -20z" />
    <glyph glyph-name="Obreve" unicode="&#x14e;" horiz-adv-x="1187" 
d="M506 -20q-174 0 -270.5 101t-96.5 284q0 150 45 385q46 238 105 360q146 303 467 303q173 0 269.5 -101t96.5 -284q0 -139 -47 -385q-47 -248 -102 -360q-146 -303 -467 -303zM514 33q278 0 404 262q54 111 102 352q45 226 45 371q0 166 -81 254t-236 88
q-278 0 -404 -262q-54 -110 -102 -353q-45 -226 -45 -370q0 -166 81 -254t236 -88zM606 1780q0 20 21 20h8q20 0 20 -20q9 -142 152 -142q65 0 117 37.5t82 104.5q9 20 26 20h10q21 0 15 -20q-31 -88 -99.5 -139.5t-156.5 -51.5q-87 0 -138.5 51.5t-56.5 139.5z" />
    <glyph glyph-name="obreve" unicode="&#x14f;" horiz-adv-x="980" 
d="M412 -20q-148 0 -223.5 83t-75.5 238q0 109 30 244q35 141 68 211q113 235 371 235q148 0 223.5 -83t75.5 -238q0 -114 -33 -246q-29 -130 -66 -209q-113 -235 -370 -235zM420 31q211 0 317 213q34 74 58 188q30 129 30 223q0 285 -252 285q-211 0 -317 -213
q-31 -67 -59 -188q-29 -139 -29 -224q0 -284 252 -284zM461 1378q0 21 20 21h8q21 0 21 -21q9 -141 152 -141q65 0 116.5 37t81.5 104q9 21 27 21h10q20 0 14 -21q-31 -88 -99.5 -139t-156.5 -51q-87 0 -138 51t-56 139z" />
    <glyph glyph-name="Ohungarumlaut" unicode="&#x150;" horiz-adv-x="1187" 
d="M506 -20q-174 0 -270.5 101t-96.5 284q0 150 45 385q46 238 105 360q146 303 467 303q173 0 269.5 -101t96.5 -284q0 -139 -47 -385q-47 -248 -102 -360q-146 -303 -467 -303zM514 33q278 0 404 262q54 111 102 352q45 226 45 371q0 166 -81 254t-236 88
q-278 0 -404 -262q-54 -110 -102 -353q-45 -226 -45 -370q0 -166 81 -254t236 -88zM913 1569h-12q-8 0 -11 6.5t3 13.5l170 209q18 21 37 21h18q8 0 11 -6.5t-3 -14.5l-184 -213q-16 -16 -29 -16zM700 1569h-12q-8 0 -11 6.5t3 13.5l170 209q18 21 37 21h18q8 0 11 -6.5
t-3 -14.5l-184 -213q-16 -16 -29 -16z" />
    <glyph glyph-name="ohungarumlaut" unicode="&#x151;" horiz-adv-x="980" 
d="M412 -20q-148 0 -223.5 83t-75.5 238q0 109 30 244q35 141 68 211q113 235 371 235q148 0 223.5 -83t75.5 -238q0 -114 -33 -246q-29 -130 -66 -209q-113 -235 -370 -235zM420 31q211 0 317 213q34 74 58 188q30 129 30 223q0 285 -252 285q-211 0 -317 -213
q-31 -67 -59 -188q-29 -139 -29 -224q0 -284 252 -284zM739 1149h-10q-22 0 -8 20l176 244q15 21 35 21h18q8 0 11 -7t-3 -14l-190 -248q-16 -16 -29 -16zM526 1149h-10q-22 0 -8 20l176 244q15 21 35 21h18q8 0 11 -7t-3 -14l-190 -248q-16 -16 -29 -16z" />
    <glyph glyph-name="OE" unicode="&#x152;" horiz-adv-x="1871" 
d="M1661 0h-733q-20 0 -17 20l39 222h-2q-145 -262 -442 -262q-174 0 -270.5 101t-96.5 284q0 150 45 385q46 238 105 360q146 303 467 303q144 0 234.5 -70t115.5 -202h2l41 231q3 21 22 21h736q19 0 16 -21l-2 -12q-3 -21 -25 -21h-684q-11 0 -14 -12l-100 -577
q-3 -15 12 -15h588q19 0 16 -20l-2 -13q-3 -20 -24 -20h-590q-12 0 -15 -12l-106 -604q-3 -13 10 -13h684q20 0 17 -20l-2 -13q-3 -20 -25 -20zM514 33q278 0 404 262q54 111 102 352q45 226 45 371q0 166 -81 254t-236 88q-278 0 -404 -262q-54 -110 -102 -353
q-45 -226 -45 -370q0 -166 81 -254t236 -88z" />
    <glyph glyph-name="oe" unicode="&#x153;" horiz-adv-x="1638" 
d="M1090 -20q-269 0 -293 262h-2q-114 -262 -383 -262q-148 0 -223.5 83t-75.5 238q0 109 30 244q35 141 68 211q113 235 371 235q260 0 295 -262h2q55 128 153 195t223 67q132 0 209.5 -81t77.5 -228q0 -71 -18 -176q-3 -21 -25 -21h-618q-14 0 -17 -12q-18 -95 -18 -182
q0 -125 62.5 -192.5t185.5 -67.5q174 0 307 145q16 16 29 6l12 -10q14 -14 -2 -29q-138 -163 -350 -163zM887 537h575q12 0 15 12q12 67 12 125q0 266 -238 266q-212 0 -315 -213q-41 -87 -59 -178q-3 -12 10 -12zM420 31q211 0 317 213q34 74 58 188q30 129 30 223
q0 285 -252 285q-211 0 -317 -213q-31 -67 -59 -188q-29 -139 -29 -224q0 -284 252 -284z" />
    <glyph glyph-name="Racute" unicode="&#x154;" horiz-adv-x="1206" 
d="M963 0h-25q-17 0 -23 18l-184 639q-12 -2 -53 -2h-367q-11 0 -14 -12l-111 -623q-3 -20 -22 -20h-19q-19 0 -16 20l238 1352q3 21 22 21h420q164 0 251 -77t87 -220q0 -178 -95 -290.5t-268 -141.5l191 -644q6 -20 -12 -20zM319 709h369q193 0 298.5 102t105.5 281
q0 247 -293 247h-369q-11 0 -14 -12l-107 -606q-3 -12 10 -12zM723 1569h-10q-24 0 -2 22l186 207q18 21 39 21h22q10 0 12.5 -6.5t-5.5 -14.5l-203 -209q-20 -20 -39 -20z" />
    <glyph glyph-name="racute" unicode="&#x155;" horiz-adv-x="757" 
d="M158 0h-17q-19 0 -16 20l164 930q3 21 22 21h17q19 0 16 -21l-25 -143h3q37 86 111.5 135t172.5 49q106 0 176 -61q11 -11 -2 -27l-10 -12q-13 -13 -29 0q-70 49 -147 49q-126 0 -209 -111q-83 -112 -109 -264l-96 -545q-3 -20 -22 -20zM492 1147h-9q-20 0 -6 20l193 246
q15 21 37 21h22q8 0 11 -7t-3 -14l-209 -246q-17 -20 -36 -20z" />
    <glyph glyph-name="Rcommaaccent" unicode="&#x156;" horiz-adv-x="1206" 
d="M963 0h-25q-17 0 -23 18l-184 639q-12 -2 -53 -2h-367q-11 0 -14 -12l-111 -623q-3 -20 -22 -20h-19q-19 0 -16 20l238 1352q3 21 22 21h420q164 0 251 -77t87 -220q0 -178 -95 -290.5t-268 -141.5l191 -644q6 -20 -12 -20zM319 709h369q193 0 298.5 102t105.5 281
q0 247 -293 247h-369q-11 0 -14 -12l-107 -606q-3 -12 10 -12zM461 -373q-18 0 -15 19l39 219q3 20 23 20h20q20 0 17 -20l-25 -131q-3 -18 -14 -45l-23 -43q-9 -19 -22 -19z" />
    <glyph glyph-name="rcommaaccent" unicode="&#x157;" horiz-adv-x="757" 
d="M158 0h-17q-19 0 -16 20l164 930q3 21 22 21h17q19 0 16 -21l-25 -143h3q37 86 111.5 135t172.5 49q106 0 176 -61q11 -11 -2 -27l-10 -12q-13 -13 -29 0q-70 49 -147 49q-126 0 -209 -111q-83 -112 -109 -264l-96 -545q-3 -20 -22 -20zM72 -373q-18 0 -15 19l39 219
q3 20 23 20h20q20 0 17 -20l-25 -131q-3 -18 -14 -45l-23 -43q-10 -19 -22 -19z" />
    <glyph glyph-name="Rcaron" unicode="&#x158;" horiz-adv-x="1206" 
d="M963 0h-25q-17 0 -23 18l-184 639q-12 -2 -53 -2h-367q-11 0 -14 -12l-111 -623q-3 -20 -22 -20h-19q-19 0 -16 20l238 1352q3 21 22 21h420q164 0 251 -77t87 -220q0 -178 -95 -290.5t-268 -141.5l191 -644q6 -20 -12 -20zM319 709h369q193 0 298.5 102t105.5 281
q0 247 -293 247h-369q-11 0 -14 -12l-107 -606q-3 -12 10 -12zM774 1548h-10q-16 0 -25 19l-127 245q-12 21 9 21h8q19 0 28 -18l115 -213h4l193 213q15 18 35 18h10q8 0 9.5 -6.5t-5.5 -14.5l-211 -245q-16 -19 -33 -19z" />
    <glyph glyph-name="rcaron" unicode="&#x159;" horiz-adv-x="757" 
d="M158 0h-17q-19 0 -16 20l164 930q3 21 22 21h17q19 0 16 -21l-25 -143h3q37 86 111.5 135t172.5 49q106 0 176 -61q11 -11 -2 -27l-10 -12q-13 -13 -29 0q-70 49 -147 49q-126 0 -209 -111q-83 -112 -109 -264l-96 -545q-3 -20 -22 -20zM592 1149h-10q-16 0 -25 18
l-127 246q-12 21 8 21h8q20 0 29 -19l115 -213h4l192 213q16 19 35 19h10q8 0 10 -7t-5 -14l-211 -246q-15 -18 -33 -18z" />
    <glyph glyph-name="Sacute" unicode="&#x15a;" horiz-adv-x="1177" 
d="M496 -20q-119 0 -226 45q-112 47 -168 106q-9 16 2 27l11 10q15 15 28 2q155 -137 375 -137q202 0 324 104q123 105 123 279q0 118 -65.5 176.5t-229.5 83.5l-58 8q-321 46 -321 307q0 186 123 303q125 119 331 119q212 0 349 -110q15 -9 2 -29l-9 -10q-11 -14 -30 -2
q-143 98 -324 98q-170 0 -278 -105q-107 -101 -107 -256q0 -120 67.5 -180.5t233.5 -85.5l58 -8q168 -24 240.5 -97.5t72.5 -209.5q0 -200 -139.5 -319t-384.5 -119zM788 1569h-10q-24 0 -2 22l187 207q18 21 38 21h23q10 0 12 -6.5t-6 -14.5l-203 -209q-20 -20 -39 -20z
" />
    <glyph glyph-name="sacute" unicode="&#x15b;" horiz-adv-x="931" 
d="M406 -20q-203 0 -332 129q-12 12 2 26l12 10q15 15 27 0q135 -114 295 -114q149 0 239 75.5t90 200.5q0 74 -44.5 111t-153.5 49l-90 10q-236 27 -236 211q0 132 98 217q100 86 262 86q154 0 279 -82q11 -8 2 -24l-6 -11q-10 -16 -33 -6q-129 72 -248 72
q-130 0 -214.5 -70.5t-84.5 -179.5q0 -74 49.5 -113t161.5 -51l90 -10q224 -24 224 -203q0 -152 -106 -242.5t-283 -90.5zM602 1147h-8q-20 0 -6 20l192 246q15 21 37 21h23q8 0 11 -7t-3 -14l-209 -246q-17 -20 -37 -20z" />
    <glyph glyph-name="Scircumflex" unicode="&#x15c;" horiz-adv-x="1177" 
d="M496 -20q-119 0 -226 45q-112 47 -168 106q-9 16 2 27l11 10q15 15 28 2q155 -137 375 -137q202 0 324 104q123 105 123 279q0 118 -65.5 176.5t-229.5 83.5l-58 8q-321 46 -321 307q0 186 123 303q125 119 331 119q212 0 349 -110q15 -9 2 -29l-9 -10q-11 -14 -30 -2
q-143 98 -324 98q-170 0 -278 -105q-107 -101 -107 -256q0 -120 67.5 -180.5t233.5 -85.5l58 -8q168 -24 240.5 -97.5t72.5 -209.5q0 -200 -139.5 -319t-384.5 -119zM999 1548h-8q-19 0 -28 19l-115 213h-4l-193 -213q-16 -19 -35 -19h-10q-8 0 -9.5 7t5.5 14l211 246
q15 18 33 18h10q16 0 25 -18l127 -246q12 -21 -9 -21z" />
    <glyph glyph-name="scircumflex" unicode="&#x15d;" horiz-adv-x="931" 
d="M406 -20q-203 0 -332 129q-12 12 2 26l12 10q15 15 27 0q135 -114 295 -114q149 0 239 75.5t90 200.5q0 74 -44.5 111t-153.5 49l-90 10q-236 27 -236 211q0 132 98 217q100 86 262 86q154 0 279 -82q11 -8 2 -24l-6 -11q-10 -16 -33 -6q-129 72 -248 72
q-130 0 -214.5 -70.5t-84.5 -179.5q0 -74 49.5 -113t161.5 -51l90 -10q224 -24 224 -203q0 -152 -106 -242.5t-283 -90.5zM793 1149h-9q-19 0 -28 18l-115 213h-4l-193 -213q-15 -18 -34 -18h-11q-8 0 -9.5 6.5t5.5 13.5l211 246q16 19 33 19h10q15 0 25 -19l127 -246
q11 -20 -8 -20z" />
    <glyph glyph-name="Scedilla" unicode="&#x15e;" horiz-adv-x="1177" 
d="M365 -274l139 254q-116 0 -230 44t-172 107q-9 16 2 27l11 10q15 15 28 2q155 -137 375 -137q202 0 324 104q123 105 123 279q0 118 -65.5 176.5t-229.5 83.5l-58 8q-321 46 -321 307q0 186 123 303q125 119 331 119q212 0 349 -110q15 -9 2 -29l-9 -10q-11 -14 -30 -2
q-143 98 -324 98q-170 0 -278 -105q-107 -101 -107 -256q0 -120 67.5 -180.5t233.5 -85.5l58 -8q168 -24 240.5 -97.5t72.5 -209.5q0 -188 -122 -305.5t-341 -130.5l-129 -256q-9 -21 -35 -21h-16q-21 0 -12 21z" />
    <glyph glyph-name="scedilla" unicode="&#x15f;" horiz-adv-x="931" 
d="M285 -295h-17q-21 0 -12 21l139 254q-201 6 -321 129q-12 12 2 26l12 10q15 15 27 0q135 -114 295 -114q148 0 238.5 77t90.5 199q0 74 -44.5 111t-153.5 49l-90 10q-236 27 -236 211q0 132 98 217q100 86 262 86q154 0 279 -82q11 -8 2 -24l-6 -11q-10 -16 -33 -6
q-129 72 -248 72q-130 0 -214.5 -70.5t-84.5 -179.5q0 -74 49.5 -113t161.5 -51l90 -10q224 -24 224 -203q0 -141 -93 -230t-253 -101l-130 -256q-9 -21 -34 -21z" />
    <glyph glyph-name="Scaron" unicode="&#x160;" horiz-adv-x="1177" 
d="M496 -20q-119 0 -226 45q-112 47 -168 106q-9 16 2 27l11 10q15 15 28 2q155 -137 375 -137q202 0 324 104q123 105 123 279q0 118 -65.5 176.5t-229.5 83.5l-58 8q-321 46 -321 307q0 186 123 303q125 119 331 119q212 0 349 -110q15 -9 2 -29l-9 -10q-11 -14 -30 -2
q-143 98 -324 98q-170 0 -278 -105q-107 -101 -107 -256q0 -120 67.5 -180.5t233.5 -85.5l58 -8q168 -24 240.5 -97.5t72.5 -209.5q0 -200 -139.5 -319t-384.5 -119zM786 1548h-10q-14 0 -24 19l-127 245q-12 21 8 21h8q20 0 29 -18l114 -213h4l193 213q15 18 35 18h10
q8 0 9.5 -6.5t-5.5 -14.5l-211 -245q-16 -19 -33 -19z" />
    <glyph glyph-name="scaron" unicode="&#x161;" horiz-adv-x="931" 
d="M406 -20q-203 0 -332 129q-12 12 2 26l12 10q15 15 27 0q135 -114 295 -114q149 0 239 75.5t90 200.5q0 74 -44.5 111t-153.5 49l-90 10q-236 27 -236 211q0 132 98 217q100 86 262 86q154 0 279 -82q11 -8 2 -24l-6 -11q-10 -16 -33 -6q-129 72 -248 72
q-130 0 -214.5 -70.5t-84.5 -179.5q0 -74 49.5 -113t161.5 -51l90 -10q224 -24 224 -203q0 -152 -106 -242.5t-283 -90.5zM621 1149h-11q-15 0 -24 18l-127 246q-12 21 8 21h8q19 0 29 -19l114 -213h5l192 213q16 19 35 19h10q8 0 9.5 -7t-5.5 -14l-211 -246
q-15 -18 -32 -18z" />
    <glyph glyph-name="uni0162" unicode="&#x162;" horiz-adv-x="1005" 
d="M436 0h-18q-20 0 -17 20l230 1307q3 12 -8 12h-402q-17 0 -14 21l2 12q3 21 22 21h883q17 0 14 -21l-2 -12q-3 -21 -22 -21h-402q-11 0 -14 -12l-229 -1307q-3 -20 -23 -20zM352 -373q-17 0 -14 19l39 219q3 20 22 20h21q19 0 16 -20l-24 -131q-2 -15 -15 -45l-22 -43
q-9 -19 -23 -19z" />
    <glyph glyph-name="uni0163" unicode="&#x163;" horiz-adv-x="591" 
d="M416 -4h-33q-126 0 -169 56t-19 194l127 661q3 13 -11 13h-114q-20 0 -17 20l2 10q3 21 25 21h115q11 0 14 12l49 287q3 20 23 20h16q19 0 16 -20l-49 -287q-3 -12 10 -12h195q19 0 16 -21l-2 -10q-3 -20 -24 -20h-195q-11 0 -14 -13l-125 -653q-23 -122 6.5 -164.5
t134.5 -42.5h33q19 0 16 -20l-2 -11q-3 -20 -24 -20zM201 -373q-18 0 -15 19l39 219q3 20 23 20h20q20 0 17 -20l-25 -131q-3 -18 -14 -45l-23 -43q-9 -19 -22 -19z" />
    <glyph glyph-name="Tcaron" unicode="&#x164;" horiz-adv-x="1005" 
d="M700 1548h-10q-14 0 -24 19l-127 245q-12 21 8 21h8q20 0 29 -18l114 -213h4l193 213q15 18 35 18h10q8 0 9.5 -6.5t-5.5 -14.5l-211 -245q-16 -19 -33 -19zM436 0h-18q-20 0 -17 20l230 1307q3 12 -8 12h-402q-17 0 -14 21l2 12q3 21 22 21h883q17 0 14 -21l-2 -12
q-3 -21 -22 -21h-402q-11 0 -14 -12l-229 -1307q-3 -20 -23 -20z" />
    <glyph glyph-name="tcaron" unicode="&#x165;" horiz-adv-x="591" 
d="M416 -4h-33q-126 0 -169 56t-19 194l127 661q3 13 -11 13h-114q-20 0 -17 20l2 10q3 21 25 21h115q11 0 14 12l49 287q3 20 23 20h16q19 0 16 -20l-49 -287q-3 -12 10 -12h195q19 0 16 -21l-2 -10q-3 -20 -24 -20h-195q-11 0 -14 -13l-125 -653q-23 -122 6.5 -164.5
t134.5 -42.5h33q19 0 16 -20l-2 -11q-3 -20 -24 -20zM653 1135q-17 0 -14 18l39 219q3 21 22 21h21q19 0 16 -21l-24 -131q-2 -15 -15 -45l-22 -43q-9 -18 -23 -18z" />
    <glyph glyph-name="Tbar" unicode="&#x166;" horiz-adv-x="1005" 
d="M436 0h-18q-20 0 -17 20l150 859q3 12 -10 12h-209q-20 0 -17 20l2 11q3 20 25 20h209q11 0 14 12l66 373q3 12 -8 12h-402q-17 0 -14 21l2 12q3 21 22 21h883q17 0 14 -21l-2 -12q-3 -21 -22 -21h-402q-11 0 -14 -12l-65 -373q-3 -12 8 -12h213q19 0 16 -20l-2 -11
q-3 -20 -24 -20h-211q-12 0 -15 -12l-149 -859q-3 -20 -23 -20z" />
    <glyph glyph-name="tbar" unicode="&#x167;" horiz-adv-x="591" 
d="M410 -4h-33q-126 0 -170.5 56t-18.5 194l82 424q3 12 -10 12h-92q-19 0 -16 20l2 11q3 18 24 18h92q12 0 15 12l30 164q3 13 -10 13h-115q-19 0 -16 20l2 10q3 21 25 21h114q12 0 15 12l49 287q3 20 22 20h17q19 0 16 -20l-49 -287q-3 -12 10 -12h195q19 0 16 -21l-2 -10
q-3 -20 -24 -20h-195q-11 0 -14 -13l-31 -164q-3 -12 10 -12h172q20 0 17 -20l-2 -11q-3 -18 -25 -18h-172q-11 0 -14 -12l-80 -416q-23 -122 6.5 -164.5t134.5 -42.5h33q19 0 16 -20l-2 -11q-3 -20 -24 -20z" />
    <glyph glyph-name="Utilde" unicode="&#x168;" horiz-adv-x="1243" 
d="M233 475l158 897q3 21 23 21h18q20 0 17 -21l-158 -899q-77 -440 315 -440q191 0 295 102t146 338l157 899q3 21 23 21h18q20 0 17 -21l-158 -897q-44 -261 -164 -378t-338 -117q-219 0 -315 125.5t-54 369.5zM985 1630q-52 0 -104 43q-46 37 -84 37q-49 0 -119 -70
q-6 -6 -12 -3.5t-4 10.5l4 28q3 17 18 29q59 53 123 53q52 0 104 -43q46 -37 84 -37q49 0 119 70q6 6 12 4t4 -10l-4 -29q-3 -17 -18 -29q-59 -53 -123 -53z" />
    <glyph glyph-name="utilde" unicode="&#x169;" horiz-adv-x="1044" 
d="M326 971h18q17 0 14 -21l-106 -581q-30 -176 21.5 -257t189.5 -81q109 0 213 84q104 87 125 219l108 616q3 21 23 21h18q18 0 15 -21l-164 -930q-3 -20 -23 -20h-16q-20 0 -17 20l23 132h-2q-51 -82 -133.5 -127t-179.5 -45q-159 0 -224.5 95t-33.5 279l108 596
q3 21 23 21zM778 1260q-52 0 -104 43q-45 36 -84 36q-50 0 -119 -69q-6 -6 -12 -4t-4 10l4 29q3 16 18 28q59 53 123 53q53 0 105 -43q45 -36 83 -36q50 0 119 69q6 6 12.5 4t4.5 -10l-4 -29q-3 -15 -19 -28q-59 -53 -123 -53z" />
    <glyph glyph-name="Umacron" unicode="&#x16a;" horiz-adv-x="1243" 
d="M233 475l158 897q3 21 23 21h18q20 0 17 -21l-158 -899q-77 -440 315 -440q191 0 295 102t146 338l157 899q3 21 23 21h18q20 0 17 -21l-158 -897q-44 -261 -164 -378t-338 -117q-219 0 -315 125.5t-54 369.5zM1120 1663h-461q-19 0 -16 20l2 11q3 20 23 20h460
q20 0 17 -20l-2 -11q-3 -20 -23 -20z" />
    <glyph glyph-name="umacron" unicode="&#x16b;" horiz-adv-x="1044" 
d="M326 971h18q17 0 14 -21l-106 -581q-30 -176 21.5 -257t189.5 -81q109 0 213 84q104 87 125 219l108 616q3 21 23 21h18q18 0 15 -21l-164 -930q-3 -20 -23 -20h-16q-20 0 -17 20l23 132h-2q-51 -82 -133.5 -127t-179.5 -45q-159 0 -224.5 95t-33.5 279l108 596
q3 21 23 21zM918 1305h-461q-20 0 -17 20l2 10q3 21 23 21h461q19 0 16 -21l-2 -10q-3 -20 -22 -20z" />
    <glyph glyph-name="Ubreve" unicode="&#x16c;" horiz-adv-x="1243" 
d="M233 475l158 897q3 21 23 21h18q20 0 17 -21l-158 -899q-77 -440 315 -440q191 0 295 102t146 338l157 899q3 21 23 21h18q20 0 17 -21l-158 -897q-44 -261 -164 -378t-338 -117q-219 0 -315 125.5t-54 369.5zM686 1780q0 20 21 20h8q20 0 20 -20q9 -142 152 -142
q65 0 116.5 37.5t81.5 104.5q9 20 27 20h10q21 0 15 -20q-31 -88 -99.5 -139.5t-156.5 -51.5q-87 0 -138.5 51.5t-56.5 139.5z" />
    <glyph glyph-name="ubreve" unicode="&#x16d;" horiz-adv-x="1044" 
d="M326 971h18q17 0 14 -21l-106 -581q-30 -176 21.5 -257t189.5 -81q109 0 213 84q104 87 125 219l108 616q3 21 23 21h18q18 0 15 -21l-164 -930q-3 -20 -23 -20h-16q-20 0 -17 20l23 132h-2q-51 -82 -133.5 -127t-179.5 -45q-159 0 -224.5 95t-33.5 279l108 596
q3 21 23 21zM475 1378q0 21 21 21h8q20 0 20 -21q9 -141 152 -141q65 0 116.5 37t81.5 104q9 21 27 21h10q21 0 15 -21q-31 -88 -99.5 -139t-156.5 -51q-87 0 -138.5 51t-56.5 139z" />
    <glyph glyph-name="Uring" unicode="&#x16e;" horiz-adv-x="1243" 
d="M233 475l158 897q3 21 23 21h18q20 0 17 -21l-158 -899q-77 -440 315 -440q191 0 295 102t146 338l157 899q3 21 23 21h18q20 0 17 -21l-158 -897q-44 -261 -164 -378t-338 -117q-219 0 -315 125.5t-54 369.5zM866 1532q-60 0 -97.5 38.5t-37.5 98.5q0 82 55.5 138.5
t139.5 56.5q60 0 97.5 -39t37.5 -99q0 -82 -55.5 -138t-139.5 -56zM877 1577q56 0 95.5 41.5t39.5 101.5q0 43 -26.5 71t-70.5 28q-56 0 -95.5 -42t-39.5 -102q0 -43 26.5 -70.5t70.5 -27.5z" />
    <glyph glyph-name="uring" unicode="&#x16f;" horiz-adv-x="1044" 
d="M326 971h18q17 0 14 -21l-106 -581q-30 -176 21.5 -257t189.5 -81q109 0 213 84q104 87 125 219l108 616q3 21 23 21h18q18 0 15 -21l-164 -930q-3 -20 -23 -20h-16q-20 0 -17 20l23 132h-2q-51 -82 -133.5 -127t-179.5 -45q-159 0 -224.5 95t-33.5 279l108 596
q3 21 23 21zM666 1122q-60 0 -98 39t-38 99q0 82 55.5 138t139.5 56q60 0 97.5 -38.5t37.5 -98.5q0 -83 -55 -139t-139 -56zM676 1167q56 0 95.5 42t39.5 102q0 43 -26 70.5t-70 27.5q-56 0 -95.5 -41.5t-39.5 -101.5q0 -43 26 -71t70 -28z" />
    <glyph glyph-name="Uhungarumlaut" unicode="&#x170;" horiz-adv-x="1243" 
d="M963 1569h-13q-8 0 -11 6.5t3 13.5l170 209q18 21 37 21h18q10 0 12.5 -6.5t-3.5 -14.5l-185 -213q-16 -16 -28 -16zM750 1569h-13q-8 0 -11 6.5t3 13.5l170 209q18 21 37 21h18q10 0 12.5 -6.5t-3.5 -14.5l-185 -213q-16 -16 -28 -16zM233 475l158 897q3 21 23 21h18
q20 0 17 -21l-158 -899q-77 -440 315 -440q191 0 295 102t146 338l157 899q3 21 23 21h18q20 0 17 -21l-158 -897q-44 -261 -164 -378t-338 -117q-219 0 -315 125.5t-54 369.5z" />
    <glyph glyph-name="uhungarumlaut" unicode="&#x171;" horiz-adv-x="1044" 
d="M326 971h18q17 0 14 -21l-106 -581q-30 -176 21.5 -257t189.5 -81q109 0 213 84q104 87 125 219l108 616q3 21 23 21h18q18 0 15 -21l-164 -930q-3 -20 -23 -20h-16q-20 0 -17 20l23 132h-2q-51 -82 -133.5 -127t-179.5 -45q-159 0 -224.5 95t-33.5 279l108 596
q3 21 23 21zM770 1149h-10q-22 0 -8 20l176 244q15 21 35 21h18q10 0 12 -7t-4 -14l-190 -248q-16 -16 -29 -16zM557 1149h-10q-22 0 -8 20l176 244q15 21 35 21h18q10 0 12 -7t-4 -14l-190 -248q-16 -16 -29 -16z" />
    <glyph glyph-name="Uogonek" unicode="&#x172;" horiz-adv-x="1243" 
d="M532 -330q-43 0 -69.5 25.5t-26.5 68.5q0 49 29 96t104 122q-204 11 -291 134.5t-45 358.5l158 897q3 21 23 21h18q20 0 17 -21l-158 -899q-77 -440 315 -440q191 0 295 102t146 338l157 899q3 21 23 21h18q20 0 17 -21l-158 -897q-44 -252 -155.5 -368.5t-313.5 -124.5
q-143 -140 -143 -209q0 -52 53 -52q25 0 63 23q15 9 23 -4l6 -12q3 -12 -12 -27q-42 -31 -93 -31z" />
    <glyph glyph-name="uogonek" unicode="&#x173;" horiz-adv-x="1044" 
d="M629 -330q-43 0 -70 26t-27 68q0 59 45 112t168 142l23 134h-2q-51 -82 -133.5 -127t-179.5 -45q-159 0 -224.5 95t-33.5 279l108 596q3 21 23 21h18q17 0 14 -21l-106 -581q-30 -176 21.5 -257t189.5 -81q109 0 213 84q104 87 125 219l108 616q3 21 23 21h18
q18 0 15 -21l-164 -930q-3 -13 -15 -22q-116 -85 -159 -135q-39 -48 -39 -90q0 -52 53 -52q26 0 64 23q14 9 22 -4l6 -12q3 -12 -12 -27q-42 -31 -92 -31z" />
    <glyph glyph-name="Wcircumflex" unicode="&#x174;" horiz-adv-x="1603" 
d="M1104 0h-17q-17 0 -20 20l-119 1250h-4l-561 -1250q-9 -20 -29 -20h-16q-18 0 -21 20l-73 1350q0 23 20 23h15q22 0 22 -23l68 -1247h4l555 1249q9 21 28 21h17q19 0 22 -21l117 -1249h4l506 1249q9 21 31 21h16q24 0 14 -23l-550 -1350q-9 -20 -29 -20zM1210 1548h-8
q-18 0 -28 19l-115 213h-4l-193 -213q-16 -19 -35 -19h-10q-8 0 -9.5 7t5.5 14l211 246q15 18 33 18h10q16 0 25 -18l127 -246q12 -21 -9 -21z" />
    <glyph glyph-name="wcircumflex" unicode="&#x175;" horiz-adv-x="1431" 
d="M946 0h-12q-18 0 -21 20l-120 863h-2l-426 -863q-11 -20 -29 -20h-12q-18 0 -21 20l-125 930q-3 21 17 21h14q19 0 22 -21l115 -852h2l420 852q9 21 27 21h14q19 0 22 -21l125 -852h2l412 852q9 21 29 21h16q21 0 12 -21l-454 -930q-9 -20 -27 -20zM1053 1149h-9
q-19 0 -28 18l-115 213h-4l-192 -213q-15 -18 -35 -18h-11q-8 0 -9.5 6.5t5.5 13.5l211 246q16 19 33 19h10q15 0 25 -19l127 -246q11 -20 -8 -20z" />
    <glyph glyph-name="Ycircumflex" unicode="&#x176;" horiz-adv-x="995" 
d="M432 0h-18q-20 0 -17 20l97 553l-263 795q-6 25 17 25h12q20 0 29 -21l241 -729h5l499 729q12 21 35 21h16q10 0 13.5 -8.5t-2.5 -16.5l-545 -797l-96 -551q-3 -20 -23 -20zM899 1548h-8q-19 0 -29 19l-114 213h-5l-192 -213q-16 -19 -35 -19h-10q-8 0 -9.5 7t5.5 14
l211 246q15 18 32 18h11q15 0 24 -18l127 -246q12 -21 -8 -21z" />
    <glyph glyph-name="ycircumflex" unicode="&#x177;" horiz-adv-x="903" 
d="M43 -369h-31q-19 0 -16 21l2 10q3 21 25 21h32q68 0 113 45q52 49 121 178l59 108l-180 936q-3 21 16 21h17q19 0 22 -21l164 -860h2l465 860q9 21 29 21h20q19 0 10 -21l-577 -1063q-80 -152 -148 -204q-61 -52 -145 -52zM778 1149h-8q-20 0 -29 18l-114 213h-4
l-193 -213q-15 -18 -35 -18h-10q-8 0 -9.5 6.5t5.5 13.5l211 246q16 19 33 19h10q15 0 24 -19l127 -246q11 -20 -8 -20z" />
    <glyph glyph-name="Ydieresis" unicode="&#x178;" horiz-adv-x="995" 
d="M432 0h-18q-20 0 -17 20l97 553l-263 795q-6 25 17 25h12q20 0 29 -21l241 -729h5l499 729q12 21 35 21h16q10 0 13.5 -8.5t-2.5 -16.5l-545 -797l-96 -551q-3 -20 -23 -20zM936 1630h-45q-20 0 -17 21l15 78q3 20 22 20h45q20 0 17 -20l-15 -78q-3 -21 -22 -21z
M541 1630h-45q-20 0 -17 21l15 78q3 20 22 20h45q20 0 17 -20l-15 -78q-3 -21 -22 -21z" />
    <glyph glyph-name="Zacute" unicode="&#x179;" horiz-adv-x="1064" 
d="M856 0h-799q-19 0 -16 20l2 15q4 19 16 31l983 1271v2h-720q-20 0 -17 21l2 12q3 21 23 21h772q19 0 16 -21l-2 -14q-3 -15 -14 -29l-983 -1274v-2h747q20 0 17 -20l-2 -13q-3 -20 -25 -20zM700 1569h-10q-24 0 -2 22l186 207q18 21 39 21h23q10 0 12 -6.5t-6 -14.5
l-203 -209q-20 -20 -39 -20z" />
    <glyph glyph-name="zacute" unicode="&#x17a;" horiz-adv-x="901" 
d="M692 0h-631q-19 0 -16 20l2 13q3 17 16 30l738 855v2h-553q-20 0 -17 20l2 10q3 21 23 21h606q20 0 17 -21l-2 -12q-3 -12 -19 -31l-737 -854v-2h579q20 0 17 -20l-2 -11q-3 -20 -23 -20zM549 1147h-8q-20 0 -6 20l192 246q15 21 37 21h22q8 0 11.5 -7t-2.5 -14
l-209 -246q-17 -20 -37 -20z" />
    <glyph glyph-name="Zdotaccent" unicode="&#x17b;" horiz-adv-x="1064" 
d="M856 0h-799q-19 0 -16 20l2 15q4 19 16 31l983 1271v2h-720q-20 0 -17 21l2 12q3 21 23 21h772q19 0 16 -21l-2 -14q-3 -15 -14 -29l-983 -1274v-2h747q20 0 17 -20l-2 -13q-3 -20 -25 -20zM774 1630h-45q-19 0 -16 21l14 78q3 20 23 20h45q19 0 16 -20l-14 -78
q-3 -21 -23 -21z" />
    <glyph glyph-name="zdotaccent" unicode="&#x17c;" horiz-adv-x="901" 
d="M692 0h-631q-19 0 -16 20l2 13q3 17 16 30l738 855v2h-553q-20 0 -17 20l2 10q3 21 23 21h606q20 0 17 -21l-2 -12q-3 -12 -19 -31l-737 -854v-2h579q20 0 17 -20l-2 -11q-3 -20 -23 -20zM627 1274h-45q-20 0 -17 20l15 78q3 21 22 21h45q20 0 17 -21l-15 -78
q-3 -20 -22 -20z" />
    <glyph glyph-name="Zcaron" unicode="&#x17d;" horiz-adv-x="1064" 
d="M856 0h-799q-19 0 -16 20l2 15q4 19 16 31l983 1271v2h-720q-20 0 -17 21l2 12q3 21 23 21h772q19 0 16 -21l-2 -14q-3 -15 -14 -29l-983 -1274v-2h747q20 0 17 -20l-2 -13q-3 -20 -25 -20zM739 1548h-10q-15 0 -24 19l-127 245q-12 21 8 21h8q20 0 29 -18l114 -213h4
l193 213q15 18 35 18h10q8 0 9.5 -6.5t-5.5 -14.5l-211 -245q-16 -19 -33 -19z" />
    <glyph glyph-name="zcaron" unicode="&#x17e;" horiz-adv-x="901" 
d="M692 0h-631q-19 0 -16 20l2 13q3 17 16 30l738 855v2h-553q-20 0 -17 20l2 10q3 21 23 21h606q20 0 17 -21l-2 -12q-3 -12 -19 -31l-737 -854v-2h579q20 0 17 -20l-2 -11q-3 -20 -23 -20zM588 1149h-10q-16 0 -25 18l-127 246q-12 21 8 21h8q20 0 29 -19l115 -213h4
l192 213q16 19 35 19h10q8 0 9.5 -7t-5.5 -14l-210 -246q-15 -18 -33 -18z" />
    <glyph glyph-name="florin" unicode="&#x192;" 
d="M834 741h-216l-272 -839q-49 -153 -117 -212t-190 -59h-37q-19 0 -16 21l2 10q3 21 24 21h39q89 0 143.5 48t92.5 163l274 847h-184q-20 0 -17 21l2 10q3 21 25 21h191l108 329q49 153 117 212t190 59h37q20 0 17 -21l-3 -10q-3 -21 -24 -21h-39q-89 0 -143.5 -48
t-92.5 -163l-110 -337h209q19 0 16 -21l-2 -10q-3 -21 -24 -21z" />
    <glyph glyph-name="Scommaaccent" unicode="&#x218;" horiz-adv-x="1177" 
d="M496 -20q-119 0 -226 45q-112 47 -168 106q-9 16 2 27l11 10q15 15 28 2q155 -137 375 -137q202 0 324 104q123 105 123 279q0 118 -65.5 176.5t-229.5 83.5l-58 8q-321 46 -321 307q0 186 123 303q125 119 331 119q212 0 349 -110q15 -9 2 -29l-9 -10q-11 -14 -30 -2
q-143 98 -324 98q-170 0 -278 -105q-107 -101 -107 -256q0 -120 67.5 -180.5t233.5 -85.5l58 -8q168 -24 240.5 -97.5t72.5 -209.5q0 -200 -139.5 -319t-384.5 -119zM453 -373q-18 0 -15 19l39 219q3 20 23 20h20q20 0 17 -20l-25 -131q-3 -18 -14 -45l-23 -43
q-9 -19 -22 -19z" />
    <glyph glyph-name="scommaaccent" unicode="&#x219;" horiz-adv-x="931" 
d="M406 -20q-203 0 -332 129q-12 12 2 26l12 10q15 15 27 0q135 -114 295 -114q149 0 239 75.5t90 200.5q0 74 -44.5 111t-153.5 49l-90 10q-236 27 -236 211q0 132 98 217q100 86 262 86q154 0 279 -82q11 -8 2 -24l-6 -11q-10 -16 -33 -6q-129 72 -248 72
q-130 0 -214.5 -70.5t-84.5 -179.5q0 -74 49.5 -113t161.5 -51l90 -10q224 -24 224 -203q0 -152 -106 -242.5t-283 -90.5zM334 -373q-18 0 -15 19l39 219q3 20 23 20h20q20 0 17 -20l-25 -131q-3 -18 -14 -45l-23 -43q-10 -19 -22 -19z" />
    <glyph glyph-name="uni021A" unicode="&#x21a;" horiz-adv-x="1005" 
d="M436 0h-18q-20 0 -17 20l230 1307q3 12 -8 12h-402q-17 0 -14 21l2 12q3 21 22 21h883q17 0 14 -21l-2 -12q-3 -21 -22 -21h-402q-11 0 -14 -12l-229 -1307q-3 -20 -23 -20zM352 -373q-17 0 -14 19l39 219q3 20 22 20h21q19 0 16 -20l-24 -131q-2 -15 -15 -45l-22 -43
q-9 -19 -23 -19z" />
    <glyph glyph-name="uni021B" unicode="&#x21b;" horiz-adv-x="591" 
d="M416 -4h-33q-126 0 -169 56t-19 194l127 661q3 13 -11 13h-114q-20 0 -17 20l2 10q3 21 25 21h115q11 0 14 12l49 287q3 20 23 20h16q19 0 16 -20l-49 -287q-3 -12 10 -12h195q19 0 16 -21l-2 -10q-3 -20 -24 -20h-195q-11 0 -14 -13l-125 -653q-23 -122 6.5 -164.5
t134.5 -42.5h33q19 0 16 -20l-2 -11q-3 -20 -24 -20zM201 -373q-18 0 -15 19l39 219q3 20 23 20h20q20 0 17 -20l-25 -131q-3 -18 -14 -45l-23 -43q-9 -19 -22 -19z" />
    <glyph glyph-name="dotlessj" unicode="&#x237;" horiz-adv-x="452" 
d="M-96 -369h-8q-20 0 -17 21l2 10q3 21 25 21h6q91 0 128 34t56 138l193 1095q3 21 22 21h17q19 0 16 -21l-192 -1095q-23 -130 -76 -177t-172 -47z" />
    <glyph glyph-name="circumflex" unicode="&#x2c6;" horiz-adv-x="821" 
d="M727 1149h-8q-20 0 -29 18l-115 213h-4l-192 -213q-15 -18 -35 -18h-10q-8 0 -9.5 6.5t5.5 13.5l211 246q16 19 32 19h11q14 0 24 -19l127 -246q11 -20 -8 -20z" />
    <glyph glyph-name="caron" unicode="&#x2c7;" horiz-adv-x="821" 
d="M545 1149h-10q-16 0 -25 18l-127 246q-12 21 8 21h8q19 0 29 -19l115 -213h4l192 213q16 19 35 19h10q8 0 9.5 -7t-5.5 -14l-210 -246q-15 -18 -33 -18z" />
    <glyph glyph-name="uni02C9" unicode="&#x2c9;" horiz-adv-x="821" 
d="M858 1663h-461q-19 0 -16 20l2 11q3 20 23 20h460q20 0 17 -20l-2 -11q-3 -20 -23 -20z" />
    <glyph glyph-name="breve" unicode="&#x2d8;" horiz-adv-x="821" 
d="M346 1378q0 21 21 21h8q20 0 20 -21q9 -141 152 -141q65 0 116.5 37t81.5 104q9 21 27 21h10q21 0 15 -21q-31 -88 -99.5 -139t-156.5 -51q-87 0 -138.5 51t-56.5 139z" />
    <glyph glyph-name="dotaccent" unicode="&#x2d9;" horiz-adv-x="821" 
d="M582 1274h-45q-20 0 -17 20l15 78q3 21 22 21h45q19 0 16 -21l-14 -78q-3 -20 -22 -20z" />
    <glyph glyph-name="ring" unicode="&#x2da;" horiz-adv-x="821" 
d="M526 1122q-60 0 -97.5 39t-37.5 99q0 82 55.5 138t139.5 56q60 0 97.5 -38.5t37.5 -98.5q0 -82 -55.5 -138.5t-139.5 -56.5zM537 1167q56 0 95.5 42t39.5 102q0 43 -26.5 70.5t-70.5 27.5q-56 0 -95.5 -41.5t-39.5 -101.5q0 -43 26.5 -71t70.5 -28z" />
    <glyph glyph-name="ogonek" unicode="&#x2db;" horiz-adv-x="821" 
d="M274 -330q-43 0 -69.5 25.5t-26.5 68.5q0 56 42 109t147 127q26 20 47 20h20q8 0 9.5 -7t-5.5 -13q-118 -85 -161.5 -134.5t-43.5 -92.5q0 -52 54 -52q25 0 63 23q15 9 23 -4l6 -12q3 -12 -12 -27q-42 -31 -93 -31z" />
    <glyph glyph-name="tilde" unicode="&#x2dc;" horiz-adv-x="821" 
d="M653 1260q-52 0 -104 43q-45 36 -84 36q-50 0 -119 -69q-6 -6 -12 -4t-4 10l4 29q3 16 18 28q59 53 123 53q53 0 105 -43q45 -36 84 -36q49 0 118 69q6 6 12.5 4t4.5 -10l-4 -29q-3 -15 -19 -28q-59 -53 -123 -53z" />
    <glyph glyph-name="hungarumlaut" unicode="&#x2dd;" horiz-adv-x="821" 
d="M575 1149h-10q-22 0 -8 20l176 244q15 21 35 21h18q10 0 12.5 -7t-3.5 -14l-191 -248q-16 -16 -29 -16zM362 1149h-10q-22 0 -8 20l176 244q15 21 35 21h18q10 0 12.5 -7t-3.5 -14l-191 -248q-16 -16 -29 -16z" />
    <glyph glyph-name="uni0394" unicode="&#x394;" horiz-adv-x="1161" 
d="M1022 0h-1002q-21 0 -12 20l717 1352q9 21 25 21h20q15 0 18 -21l250 -1352q3 -20 -16 -20zM104 53h857q15 0 12 13l-225 1226h-5l-647 -1226q-6 -13 8 -13z" />
    <glyph glyph-name="uni03A9" unicode="&#x3a9;" horiz-adv-x="1239" 
d="M459 0h-318q-19 0 -16 20l2 13q3 18 20 18h209l2 4q-92 48 -134 125t-42 203q0 117 35 313q49 273 115 414q146 303 467 303q178 0 278.5 -101.5t100.5 -283.5q0 -130 -35 -332q-52 -295 -133 -436q-76 -133 -228 -205v-4h211q20 0 17 -18l-2 -13q-3 -20 -21 -20h-319
q-20 0 -17 20l2 19q3 14 23 20q196 71 272 197q79 125 137 440q35 196 35 322q0 164 -85.5 253t-243.5 89q-278 0 -404 -262q-67 -143 -115 -402q-32 -168 -32 -301q0 -138 51.5 -212t177.5 -124q19 -6 16 -20l-4 -19q-3 -20 -22 -20z" />
    <glyph glyph-name="uni03BC" unicode="&#x3bc;" horiz-adv-x="1067" 
d="M94 -369h-18q-20 0 -17 19l230 1302q3 19 22 19h19q17 0 14 -19l-111 -614q-8 -39 -8 -92q0 -215 228 -215q110 0 213 80q102 82 129 233l106 608q3 19 23 19h20q15 0 12 -19l-131 -747q-10 -72 -10 -94q0 -39 12 -51.5t43 -12.5q20 0 17 -20l-2 -11q-3 -20 -25 -20h-6
q-98 0 -98 110l4 46h-2q-51 -80 -135.5 -126t-180.5 -46q-182 0 -243 147h-2l-82 -477q-3 -19 -21 -19z" />
    <glyph glyph-name="pi" unicode="&#x3c0;" horiz-adv-x="1103" 
d="M186 0h-20q-19 0 -16 18l155 881q3 14 -10 14h-137q-16 0 -13 17l5 22q3 19 20 19h920q17 0 14 -15l-4 -24q-3 -19 -23 -19h-127q-13 0 -16 -14l-129 -723q-4 -46 -4 -59q0 -70 94 -70h8q20 0 17 -20l-2 -11q-3 -20 -25 -20h-4q-71 0 -108.5 33t-37.5 90q0 5 2 22t3 27
l131 731q3 14 -13 14h-489q-14 0 -17 -14l-155 -881q-3 -18 -19 -18z" />
    <glyph glyph-name="uni0400" unicode="&#x400;" horiz-adv-x="1085" 
d="M879 0h-734q-19 0 -16 20l238 1352q3 21 22 21h735q20 0 17 -21l-2 -12q-3 -21 -25 -21h-684q-11 0 -14 -12l-101 -577q-3 -15 13 -15h587q20 0 17 -20l-2 -13q-3 -20 -25 -20h-590q-11 0 -14 -12l-106 -604q-3 -13 10 -13h684q19 0 16 -20l-2 -13q-3 -20 -24 -20z
M797 1569h-6q-19 0 -33 20l-131 209q-4 8 -1 14.5t11 6.5h20q19 0 31 -21l119 -209q14 -20 -10 -20z" />
    <glyph glyph-name="uni0401" unicode="&#x401;" horiz-adv-x="1085" 
d="M879 0h-734q-19 0 -16 20l238 1352q3 21 22 21h735q20 0 17 -21l-2 -12q-3 -21 -25 -21h-684q-11 0 -14 -12l-101 -577q-3 -15 13 -15h587q20 0 17 -20l-2 -13q-3 -20 -25 -20h-590q-11 0 -14 -12l-106 -604q-3 -13 10 -13h684q19 0 16 -20l-2 -13q-3 -20 -24 -20z
M1016 1630h-45q-20 0 -17 21l15 78q3 20 22 20h45q20 0 17 -20l-15 -78q-3 -21 -22 -21zM621 1630h-46q-19 0 -16 21l14 78q3 20 23 20h45q19 0 16 -20l-14 -78q-3 -21 -22 -21z" />
    <glyph glyph-name="uni0402" unicode="&#x402;" horiz-adv-x="1449" 
d="M438 0h-18q-22 0 -19 20l232 1307q3 12 -12 12h-398q-19 0 -16 21l2 12q3 21 22 21h879q21 0 18 -21l-2 -12q-3 -21 -24 -21h-397q-15 0 -15 -12l-98 -553q-1 -7 1 -9.5t7 -0.5q78 32 182 55q116 25 191 25q185 0 282 -91t97 -259q0 -231 -135.5 -362.5t-380.5 -131.5
h-45q-26 0 -23 23l2 12q6 18 25 18h65q202 0 318 118t116 321q0 299 -317 299q-166 0 -379 -80q-20 -6 -20 -23l-119 -668q-3 -20 -21 -20z" />
    <glyph glyph-name="uni0403" unicode="&#x403;" horiz-adv-x="970" 
d="M166 0h-19q-21 0 -18 20l240 1354q3 19 22 19h688q20 0 17 -21l-2 -12q-3 -21 -25 -21h-637q-11 0 -14 -12l-232 -1307q-3 -20 -20 -20zM696 1569h-10q-24 0 -2 22l186 207q18 21 39 21h23q10 0 12 -6.5t-6 -14.5l-203 -209q-20 -20 -39 -20z" />
    <glyph glyph-name="uni0404" unicode="&#x404;" horiz-adv-x="1099" 
d="M504 -20q-180 0 -273.5 104.5t-93.5 302.5q0 129 35 322q39 201 92 350q56 165 179 259.5t288 94.5q264 0 363 -242q6 -15 -9 -24l-16 -8q-21 -9 -27 8q-53 110 -122.5 161.5t-188.5 51.5q-131 0 -228 -65t-153 -179q-80 -168 -110 -368q-3 -13 10 -13h538q18 0 15 -20
l-2 -17q-3 -16 -23 -16h-536q-14 0 -17 -10q-30 -202 -30 -285q0 -354 315 -354q120 0 208.5 52.5t168.5 164.5q9 15 28 6l15 -8q13 -9 2 -27q-162 -241 -428 -241z" />
    <glyph glyph-name="uni0405" unicode="&#x405;" horiz-adv-x="1177" 
d="M496 -20q-119 0 -226 45q-112 47 -168 106q-9 16 2 27l11 10q15 15 28 2q155 -137 375 -137q202 0 324 104q123 105 123 279q0 118 -65.5 176.5t-229.5 83.5l-58 8q-321 46 -321 307q0 186 123 303q125 119 331 119q212 0 349 -110q15 -9 2 -29l-9 -10q-11 -14 -30 -2
q-143 98 -324 98q-170 0 -278 -105q-107 -101 -107 -256q0 -120 67.5 -180.5t233.5 -85.5l58 -8q168 -24 240.5 -97.5t72.5 -209.5q0 -200 -139.5 -319t-384.5 -119z" />
    <glyph glyph-name="uni0406" unicode="&#x406;" horiz-adv-x="460" 
d="M164 0h-19q-19 0 -16 20l238 1352q3 21 22 21h19q19 0 16 -21l-238 -1352q-3 -20 -22 -20z" />
    <glyph glyph-name="uni0407" unicode="&#x407;" horiz-adv-x="460" 
d="M649 1630h-45q-19 0 -16 21l14 78q3 20 23 20h45q19 0 16 -20l-14 -78q-3 -21 -23 -21zM254 1630h-45q-19 0 -16 21l14 78q3 20 22 20h45q20 0 17 -20l-15 -78q-3 -21 -22 -21zM164 0h-19q-19 0 -16 20l238 1352q3 21 22 21h19q19 0 16 -21l-238 -1352q-3 -20 -22 -20z
" />
    <glyph glyph-name="uni0408" unicode="&#x408;" horiz-adv-x="915" 
d="M291 -20q-137 0 -246 92q-16 12 0 28l10 11q15 15 31 2q106 -80 211 -80q303 0 367 358l172 981q3 21 22 21h19q19 0 16 -21l-174 -987q-71 -405 -428 -405z" />
    <glyph glyph-name="uni0409" unicode="&#x409;" horiz-adv-x="2015" 
d="M-37 -6h-24q-7 0 -12.5 7t-4.5 17l2 11q3 18 23 18h22q112 0 189 59q82 63 159 256t134 512l90 500q3 19 22 19h690q22 0 19 -19l-105 -592q-3 -12 11 -12h397q164 0 252 -78.5t88 -224.5q0 -216 -129 -342q-128 -125 -336 -125h-457q-19 0 -16 20l231 1307q3 12 -10 12
h-594q-11 0 -14 -12l-92 -516q-83 -473 -224 -659q-68 -86 -140 -122t-171 -36zM1051 53h399q186 0 297 110.5t111 299.5q0 123 -77.5 188.5t-224.5 65.5h-389q-11 0 -14 -12l-113 -639q-3 -13 11 -13z" />
    <glyph glyph-name="uni040A" unicode="&#x40a;" horiz-adv-x="1949" 
d="M164 0h-19q-19 0 -16 20l238 1352q3 21 22 21h19q19 0 16 -21l-109 -610q-3 -12 11 -12h731q11 0 14 12l109 610q3 21 22 21h19q19 0 16 -21l-107 -610q-3 -12 11 -12h370q163 0 251.5 -76t88.5 -213q0 -216 -131 -338q-129 -123 -340 -123h-422q-19 0 -16 20l115 664
q3 12 -8 12h-732q-11 0 -14 -12l-117 -664q-3 -20 -22 -20zM1018 53h364q191 0 302.5 108t111.5 296q0 239 -293 239h-373q-11 0 -14 -12l-108 -618q-3 -13 10 -13z" />
    <glyph glyph-name="uni040B" unicode="&#x40b;" horiz-adv-x="1478" 
d="M438 0h-18q-22 0 -19 20l232 1307q3 12 -12 12h-398q-19 0 -16 21l2 12q3 21 22 21h879q21 0 18 -21l-2 -12q-3 -21 -24 -21h-397q-12 0 -15 -12l-96 -543q-1 -12 5 -16.5t17 0.5q235 76 357 76q208 0 292 -81t52 -267l-84 -476q-3 -20 -23 -20h-18q-19 0 -16 20l84 478
q34 185 -62 245q-45 28 -94.5 38t-126.5 10q-151 0 -367 -78q-31 -12 -37 -41l-114 -652q-3 -20 -21 -20z" />
    <glyph glyph-name="uni040C" unicode="&#x40c;" horiz-adv-x="1165" 
d="M164 0h-17q-21 0 -18 20l238 1352q3 21 22 21h19q19 0 16 -21l-111 -624q-3 -13 11 -13h186q82 0 154.5 53t119.5 136l197 329q57 92 96 115q48 31 140 31h12q21 0 18 -23l-2 -12q-3 -18 -24 -18h-13q-60 0 -98 -23q-29 -20 -80 -102l-192 -316q-93 -151 -209 -186v-8
q57 -10 89.5 -55.5t57.5 -135.5l76 -270q32 -115 65.5 -159t98.5 -44h31q19 0 16 -22l-2 -13q-3 -18 -23 -18h-24q-91 0 -137 51t-80 174l-86 316q-24 84 -68.5 115.5t-148.5 31.5h-179q-11 0 -14 -12l-115 -650q-3 -20 -22 -20zM696 1569h-10q-24 0 -2 22l186 207
q18 21 39 21h23q10 0 12 -6.5t-6 -14.5l-203 -209q-20 -20 -39 -20z" />
    <glyph glyph-name="uni040D" unicode="&#x40d;" horiz-adv-x="1310" 
d="M168 0h-21q-21 0 -18 20l240 1354q3 19 22 19h19q19 0 16 -19l-223 -1263h6l993 1271q7 11 21 11h32q22 0 19 -19l-240 -1354q-3 -20 -22 -20h-17q-21 0 -18 20l223 1264h-6l-989 -1261q-20 -23 -37 -23zM858 1569h-6q-19 0 -33 20l-131 209q-4 8 -1 14.5t11 6.5h21
q19 0 31 -21l118 -209q14 -20 -10 -20z" />
    <glyph glyph-name="uni040E" unicode="&#x40e;" horiz-adv-x="1064" 
d="M170 -6h-66q-19 0 -16 22l2 13q6 18 23 18h51q81 0 134 38.5t110 137.5l92 160l-281 987q-7 23 14 23h25q15 0 21 -19l264 -917h6l549 917q10 19 26 19h25q26 0 10 -25l-700 -1163q-70 -117 -131.5 -164t-157.5 -47zM725 1575q-163 0 -197 199q-3 12 11 16l22 6
q14 3 17 -10q21 -88 54 -123t103 -35q122 0 199 160q8 14 20 8l25 -10q11 -7 2 -19q-55 -102 -113.5 -147t-142.5 -45z" />
    <glyph glyph-name="uni040F" unicode="&#x40f;" horiz-adv-x="1259" 
d="M500 -342h-15q-21 0 -18 18l53 312q3 12 -8 12h-365q-21 0 -18 20l240 1352q3 21 22 21h17q21 0 18 -21l-231 -1306q-3 -13 10 -13h717q11 0 14 13l231 1306q3 21 23 21h14q22 0 19 -21l-240 -1352q-3 -20 -22 -20h-367q-13 0 -16 -12l-54 -312q-3 -18 -24 -18z" />
    <glyph glyph-name="uni0410" unicode="&#x410;" horiz-adv-x="1161" 
d="M49 0h-24q-20 0 -11 20l711 1352q9 21 25 21h20q15 0 18 -21l230 -1352q3 -20 -19 -20h-16q-19 0 -22 20l-64 383h-618l-201 -383q-9 -20 -29 -20zM743 1290l-436 -833h580l-139 833h-5z" />
    <glyph glyph-name="uni0411" unicode="&#x411;" horiz-adv-x="1193" 
d="M567 0h-420q-21 0 -18 20l240 1354q3 19 22 19h713q19 0 16 -21l-2 -12q-3 -21 -24 -21h-662q-11 0 -14 -12l-101 -565q-3 -12 11 -12h370q163 0 251.5 -76t88.5 -213q0 -216 -131 -338q-129 -123 -340 -123zM205 53h364q191 0 302.5 108t111.5 296q0 239 -293 239h-373
q-11 0 -14 -12l-108 -618q-3 -13 10 -13z" />
    <glyph glyph-name="uni0412" unicode="&#x412;" horiz-adv-x="1193" 
d="M582 0h-437q-19 0 -16 20l238 1352q3 21 22 21h422q155 0 240.5 -76t85.5 -213q0 -151 -79 -255.5t-214 -135.5v-8q82 -19 139 -89.5t57 -181.5q0 -202 -121 -318t-337 -116zM205 53h387q183 0 288 102.5t105 272.5q0 120 -73 188t-210 68h-387q-11 0 -14 -12l-106 -606
q-3 -13 10 -13zM324 737h381q174 0 275 99t101 260q0 118 -68.5 180.5t-201.5 62.5h-381q-11 0 -14 -12l-101 -577q-3 -13 9 -13z" />
    <glyph glyph-name="uni0413" unicode="&#x413;" horiz-adv-x="970" 
d="M166 0h-19q-21 0 -18 20l240 1354q3 19 22 19h688q20 0 17 -21l-2 -12q-3 -21 -25 -21h-637q-11 0 -14 -12l-232 -1307q-3 -20 -20 -20z" />
    <glyph glyph-name="uni0414" unicode="&#x414;" horiz-adv-x="1331" 
d="M-66 -342h-18q-17 0 -14 18l59 357q3 20 27 20h90q17 0 26 15q139 178 222 419q82 239 186 824l12 63q3 19 23 19h710q20 0 17 -19l-232 -1308q-3 -13 11 -13h139q19 0 16 -20l-61 -357q-3 -18 -23 -18h-20q-17 0 -14 18l53 312q3 12 -8 12h-1108q-14 0 -17 -12l-53 -312
q-3 -18 -23 -18zM170 53h801q11 0 14 13l223 1261q3 12 -10 12h-610q-12 0 -15 -12l-4 -22q-106 -589 -190 -826q-82 -240 -213 -413q-10 -13 4 -13z" />
    <glyph glyph-name="uni0415" unicode="&#x415;" horiz-adv-x="1085" 
d="M879 0h-734q-19 0 -16 20l238 1352q3 21 22 21h735q20 0 17 -21l-2 -12q-3 -21 -25 -21h-684q-11 0 -14 -12l-101 -577q-3 -15 13 -15h587q20 0 17 -20l-2 -13q-3 -20 -25 -20h-590q-11 0 -14 -12l-106 -604q-3 -13 10 -13h684q19 0 16 -20l-2 -13q-3 -20 -24 -20z" />
    <glyph glyph-name="uni0416" unicode="&#x416;" horiz-adv-x="1761" 
d="M-8 -6h-31q-21 0 -18 22l2 13q3 18 24 18h31q54 0 92 21q36 22 55 44.5t58 86.5l192 321q108 182 215 197v8q-77 50 -123 205l-86 270q-30 86 -46 106q-24 30 -88 38q-7 1 -15 2h-12q-20 0 -17 22l2 12q3 19 23 19h10q85 0 124 -36.5t69 -133.5l92 -297q62 -197 194 -197
h150q11 0 14 13l111 624q3 21 22 21h17q19 0 16 -21l-111 -624q-3 -13 11 -13h137q82 0 154.5 53t119.5 136l197 331q57 92 96 115q50 29 139 29h13q21 0 18 -23l-2 -12q-3 -18 -24 -18h-13q-60 0 -98 -23q-28 -20 -80 -100l-192 -318q-93 -151 -209 -186v-8
q57 -10 89.5 -55.5t57.5 -135.5l78 -274q16 -56 27 -84t29 -57t43.5 -41.5t62.5 -16.5h30q20 0 17 -22l-2 -13q-3 -18 -23 -18h-24q-90 0 -136.5 51t-78.5 170l-92 332q-20 77 -67 106t-146 29h-129q-12 0 -15 -12l-115 -650q-3 -20 -22 -20h-16q-22 0 -19 20l115 650
q3 12 -8 12h-148q-97 0 -149 -28t-101 -107l-229 -379q-59 -98 -114 -136t-148 -38z" />
    <glyph glyph-name="uni0417" unicode="&#x417;" horiz-adv-x="1116" 
d="M467 -20q-124 0 -234 49t-161 112q-13 17 2 29l14 14q16 13 29 0q145 -151 350 -151q207 0 322.5 109t115.5 292q0 117 -72.5 183.5t-195.5 66.5h-182q-20 0 -17 23l2 14q3 16 25 16h180q136 0 246 107t110 268q0 116 -78.5 182t-217.5 66q-106 0 -191 -33t-184 -106
q-21 -12 -31 -2l-10 14q-12 12 8 27q105 79 199.5 116t210.5 37q168 0 259 -79.5t91 -217.5q0 -140 -73.5 -245t-207.5 -154v-8q85 -23 135 -98t50 -173q0 -215 -127 -336.5t-367 -121.5z" />
    <glyph glyph-name="uni0418" unicode="&#x418;" horiz-adv-x="1310" 
d="M168 0h-21q-21 0 -18 20l240 1354q3 19 22 19h19q19 0 16 -19l-223 -1263h6l993 1271q7 11 21 11h32q22 0 19 -19l-240 -1354q-3 -20 -22 -20h-17q-21 0 -18 20l223 1264h-6l-989 -1261q-20 -23 -37 -23z" />
    <glyph glyph-name="uni0419" unicode="&#x419;" horiz-adv-x="1310" 
d="M168 0h-21q-21 0 -18 20l240 1354q3 19 22 19h19q19 0 16 -19l-223 -1263h6l993 1271q7 11 21 11h32q22 0 19 -19l-240 -1354q-3 -20 -22 -20h-17q-21 0 -18 20l223 1264h-6l-989 -1261q-20 -23 -37 -23zM846 1575q-163 0 -197 199q-3 13 10 16l23 6q13 3 16 -10
q21 -87 54.5 -122.5t103.5 -35.5q122 0 199 160q8 14 20 8l25 -10q11 -7 2 -19q-55 -102 -113.5 -147t-142.5 -45z" />
    <glyph glyph-name="uni041A" unicode="&#x41a;" horiz-adv-x="1165" 
d="M164 0h-17q-21 0 -18 20l238 1352q3 21 22 21h19q19 0 16 -21l-111 -624q-3 -13 11 -13h186q82 0 154.5 53t119.5 136l197 329q57 92 96 115q48 31 140 31h12q21 0 18 -23l-2 -12q-3 -18 -24 -18h-13q-60 0 -98 -23q-29 -20 -80 -102l-192 -316q-93 -151 -209 -186v-8
q57 -10 89.5 -55.5t57.5 -135.5l76 -270q32 -115 65.5 -159t98.5 -44h31q19 0 16 -22l-2 -13q-3 -18 -23 -18h-24q-91 0 -137 51t-80 174l-86 316q-24 84 -68.5 115.5t-148.5 31.5h-179q-11 0 -14 -12l-115 -650q-3 -20 -22 -20z" />
    <glyph glyph-name="uni041B" unicode="&#x41b;" horiz-adv-x="1310" 
d="M-39 -6h-24q-7 0 -12.5 7t-4.5 17l2 11q3 18 23 18h22q84 0 146.5 34t122.5 118q128 179 215 675l90 500q3 19 22 19h690q22 0 19 -19l-240 -1354q-3 -20 -20 -20h-19q-19 0 -16 20l231 1307q3 12 -10 12h-594q-11 0 -14 -12l-92 -516q-82 -470 -226 -659
q-66 -86 -139 -122t-172 -36z" />
    <glyph glyph-name="uni041C" unicode="&#x41c;" horiz-adv-x="1482" 
d="M164 0h-19q-19 0 -16 20l238 1352q3 21 22 21h19q16 0 22 -21l283 -1081h4l659 1081q12 21 29 21h25q19 0 16 -21l-238 -1352q-3 -20 -22 -20h-19q-19 0 -16 20l215 1221h-4l-619 -1008q-11 -20 -34 -20h-9q-23 0 -30 23l-264 1011h-5l-215 -1227q-3 -20 -22 -20z" />
    <glyph glyph-name="uni041D" unicode="&#x41d;" horiz-adv-x="1273" 
d="M164 0h-19q-19 0 -16 20l238 1352q3 21 22 21h19q19 0 16 -21l-111 -624q-3 -13 11 -13h731q11 0 14 13l111 624q3 21 22 21h19q19 0 16 -21l-238 -1352q-3 -20 -22 -20h-19q-19 0 -16 20l113 650q3 12 -8 12h-732q-11 0 -14 -12l-115 -650q-3 -20 -22 -20z" />
    <glyph glyph-name="uni041E" unicode="&#x41e;" horiz-adv-x="1187" 
d="M506 -20q-174 0 -270.5 101t-96.5 284q0 150 45 385q46 238 105 360q146 303 467 303q173 0 269.5 -101t96.5 -284q0 -139 -47 -385q-47 -248 -102 -360q-146 -303 -467 -303zM514 33q278 0 404 262q54 111 102 352q45 226 45 371q0 166 -81 254t-236 88
q-278 0 -404 -262q-54 -110 -102 -353q-45 -226 -45 -370q0 -166 81 -254t236 -88z" />
    <glyph glyph-name="uni041F" unicode="&#x41f;" horiz-adv-x="1259" 
d="M164 0h-17q-21 0 -18 20l240 1352q3 21 22 21h813q22 0 19 -21l-240 -1352q-3 -20 -22 -20h-15q-21 0 -18 20l231 1307q3 12 -10 12h-717q-11 0 -14 -12l-232 -1307q-3 -20 -22 -20z" />
    <glyph glyph-name="uni0420" unicode="&#x420;" horiz-adv-x="1136" 
d="M164 0h-19q-19 0 -16 20l238 1352q3 21 22 21h422q166 0 254 -75.5t88 -217.5q0 -215 -126.5 -336t-346.5 -121h-373q-11 0 -14 -12l-107 -611q-3 -20 -22 -20zM317 696h365q192 0 303 107.5t111 296.5q0 239 -293 239h-373q-11 0 -14 -12l-109 -618q-3 -13 10 -13z" />
    <glyph glyph-name="uni0421" unicode="&#x421;" horiz-adv-x="1087" 
d="M502 -20q-172 0 -268.5 101t-96.5 284q0 150 45 385q46 238 105 360q75 157 182 230t262 73q121 0 212.5 -65t131.5 -187q6 -16 -10 -22l-16 -6q-19 -10 -23 8q-77 219 -299 219q-259 0 -385 -262q-54 -110 -102 -353q-45 -226 -45 -370q0 -165 80.5 -253.5t234.5 -88.5
q222 0 369 215q9 12 22 6l19 -10q11 -8 2 -27q-150 -237 -420 -237z" />
    <glyph glyph-name="uni0422" unicode="&#x422;" horiz-adv-x="1005" 
d="M436 0h-18q-20 0 -17 20l230 1307q3 12 -8 12h-402q-17 0 -14 21l2 12q3 21 22 21h883q17 0 14 -21l-2 -12q-3 -21 -22 -21h-402q-11 0 -14 -12l-229 -1307q-3 -20 -23 -20z" />
    <glyph glyph-name="uni0423" unicode="&#x423;" horiz-adv-x="1064" 
d="M170 -6h-66q-19 0 -16 22l2 13q6 18 23 18h51q81 0 134 38.5t110 137.5l92 160l-281 987q-7 23 14 23h25q15 0 21 -19l264 -917h6l549 917q10 19 26 19h25q26 0 10 -25l-700 -1163q-70 -117 -131.5 -164t-157.5 -47z" />
    <glyph glyph-name="uni0424" unicode="&#x424;" horiz-adv-x="1433" 
d="M641 -20h-18q-18 0 -15 20l25 152q3 12 -10 12q-233 17 -355.5 147t-122.5 353q0 262 191 438q194 176 483 176q12 0 15 12l20 105q0 16 23 16h16q18 0 18 -16l-20 -105q-3 -12 10 -12q233 -17 357 -143.5t124 -339.5q0 -273 -192 -453q-193 -178 -485 -178
q-12 0 -15 -12l-24 -152q-3 -20 -25 -20zM633 217q11 0 14 12l172 981q3 15 -8 15q-255 -3 -434 -162q-174 -155 -174 -397q0 -200 109 -318t321 -131zM715 217q257 6 434 166q176 159 176 410q0 188 -111 303.5t-321 128.5q-13 0 -16 -15l-172 -981q-3 -12 10 -12z" />
    <glyph glyph-name="uni0425" unicode="&#x425;" horiz-adv-x="1046" 
d="M49 0h-33q-10 0 -12 6t4 14l539 715l-250 637q-9 21 12 21h27q13 0 20 -17l230 -583h2l434 583q14 17 27 17h28q10 0 12 -6.5t-4 -14.5l-475 -639l281 -713q9 -20 -12 -20h-25q-17 0 -23 16l-260 660h-2l-495 -660q-13 -16 -25 -16z" />
    <glyph glyph-name="uni0426" unicode="&#x426;" horiz-adv-x="1280" 
d="M1075 -342h-18q-20 0 -17 18l54 312q3 12 -9 12h-938q-21 0 -18 20l240 1352q3 21 22 21h17q21 0 18 -21l-231 -1306q-3 -13 10 -13h717q11 0 14 13l231 1306q3 21 23 21h14q22 0 19 -21l-232 -1306q-3 -13 10 -13h142q19 0 16 -20l-61 -357q-3 -18 -23 -18z" />
    <glyph glyph-name="uni0427" unicode="&#x427;" horiz-adv-x="1200" 
d="M963 0h-21q-19 0 -16 20l104 592q1 6 -2.5 8.5t-9.5 0.5q-210 -82 -395 -82q-372 0 -308 362l84 473q3 19 23 19h16q22 0 19 -19l-84 -479q-34 -178 41 -244q73 -61 221 -61q195 0 399 86q10 7 10 18l121 680q3 19 21 19h18q22 0 19 -19l-240 -1354q-3 -20 -20 -20z" />
    <glyph glyph-name="uni0428" unicode="&#x428;" horiz-adv-x="1843" 
d="M1544 0h-1397q-21 0 -18 20l240 1352q3 21 22 21h17q21 0 18 -21l-231 -1306q-3 -13 10 -13h608q11 0 14 13l232 1306q3 21 22 21h17q21 0 18 -21l-231 -1306q-3 -13 10 -13h608q12 0 15 13l231 1306q3 21 23 21h16q21 0 18 -21l-239 -1352q-3 -20 -23 -20z" />
    <glyph glyph-name="uni0429" unicode="&#x429;" horiz-adv-x="1863" 
d="M1657 -342h-19q-19 0 -16 18l53 312q3 12 -8 12h-1520q-21 0 -18 20l240 1352q3 21 22 21h17q21 0 18 -21l-231 -1306q-3 -13 10 -13h608q11 0 14 13l232 1306q3 21 22 21h17q21 0 18 -21l-231 -1306q-3 -13 10 -13h608q12 0 15 13l231 1306q3 21 23 21h16q21 0 18 -21
l-231 -1306q-3 -13 10 -13h139q20 0 17 -20l-62 -357q-3 -18 -22 -18z" />
    <glyph glyph-name="uni042A" unicode="&#x42a;" horiz-adv-x="1388" 
d="M825 0h-456q-22 0 -19 20l232 1307q3 12 -11 12h-350q-17 0 -14 21l2 16q3 17 20 17h402q19 0 16 -19l-104 -592q-3 -12 10 -12h379q173 0 265.5 -79.5t92.5 -227.5q0 -215 -126.5 -339t-338.5 -124zM426 53h399q186 0 297 110.5t111 299.5q0 123 -77 188.5t-224 65.5
h-389q-12 0 -15 -12l-112 -639q-3 -13 10 -13z" />
    <glyph glyph-name="uni042B" unicode="&#x42b;" horiz-adv-x="1523" 
d="M584 0h-437q-21 0 -18 20l240 1354q3 19 22 19h19q19 0 16 -19l-104 -592q-3 -12 10 -12h358q173 0 266 -79.5t93 -227.5q0 -215 -126.5 -339t-338.5 -124zM205 53h379q186 0 296.5 110.5t110.5 299.5q0 123 -77 188.5t-224 65.5h-368q-12 0 -15 -12l-112 -639
q-3 -13 10 -13zM1225 0h-17q-21 0 -18 20l240 1354q3 19 22 19h16q22 0 19 -19l-240 -1354q-3 -20 -22 -20z" />
    <glyph glyph-name="uni042C" unicode="&#x42c;" horiz-adv-x="1167" 
d="M604 0h-457q-21 0 -18 20l240 1354q3 19 22 19h19q19 0 16 -19l-104 -592q-3 -12 10 -12h379q173 0 265.5 -79.5t92.5 -227.5q0 -215 -126.5 -339t-338.5 -124zM205 53h399q186 0 297 110.5t111 299.5q0 123 -77 188.5t-224 65.5h-389q-12 0 -15 -12l-112 -639
q-3 -13 10 -13z" />
    <glyph glyph-name="uni042D" unicode="&#x42d;" horiz-adv-x="1099" 
d="M432 -20q-276 0 -358 243q-9 21 10 27l18 6q19 6 25 -6q73 -217 315 -217q236 0 361 198q88 140 141 441q3 10 -8 10h-518q-18 0 -15 20l3 17q3 16 22 16h516q11 0 14 13q27 141 27 278q0 158 -83.5 246t-244.5 88q-127 0 -204 -53q-79 -54 -160 -160q-14 -17 -29 -8
l-16 12q-15 9 -2 25q170 237 418 237q182 0 280 -99.5t98 -289.5q0 -168 -55 -442q-56 -276 -164 -418q-77 -102 -166 -143t-225 -41z" />
    <glyph glyph-name="uni042E" unicode="&#x42e;" horiz-adv-x="1613" 
d="M942 -20q-172 0 -265 93.5t-93 260.5q0 121 37 336q3 12 -11 12h-291q-11 0 -14 -12l-115 -650q-3 -20 -20 -20h-18q-22 0 -19 20l240 1354q3 19 22 19h19q19 0 16 -19l-111 -626q-3 -13 11 -13h291q11 0 14 13q50 276 106 382q145 283 453 283q171 0 264.5 -95
t93.5 -267q0 -136 -49 -400q-47 -273 -110 -389q-147 -282 -451 -282zM950 33q263 0 389 243q57 111 107 381q49 264 49 396q0 143 -78.5 225t-230.5 82q-271 0 -391 -242q-57 -117 -107 -381q-47 -264 -47 -395q0 -143 81 -226t228 -83z" />
    <glyph glyph-name="uni042F" unicode="&#x42f;" horiz-adv-x="1208" 
d="M-12 -6h-41q-22 0 -19 22l2 13q3 18 25 18h35q50 0 94 23q38 22 61 49q35 45 62 84l192 293l50 69q48 68 104 82v8q-149 11 -228 88.5t-79 217.5q0 195 127 313q125 119 321 119h459q21 0 18 -21l-239 -1352q-3 -20 -23 -20h-16q-22 0 -19 20l111 617q3 12 -10 12h-268
q-132 0 -234 -147l-223 -342q-63 -95 -116 -130.5t-146 -35.5zM594 702h389q11 0 14 13l109 612q3 12 -10 12h-389q-185 0 -294.5 -102.5t-109.5 -275.5q0 -121 78.5 -190t212.5 -69z" />
    <glyph glyph-name="uni0430" unicode="&#x430;" horiz-adv-x="999" 
d="M373 -20q-128 0 -198.5 62t-70.5 169q0 160 101.5 243t296.5 83h258q11 0 14 12l25 131q25 149 -19 204.5t-192 55.5q-159 0 -260 -84q-19 -16 -31 -4l-12 12q-13 12 2 27q109 100 309 100q167 0 227.5 -71t30.5 -240l-117 -660q-3 -20 -22 -20h-17q-19 0 -16 20l20 115
h-2q-39 -71 -125 -113t-202 -42zM387 31q131 0 225 73q99 73 117 185l33 184q3 12 -8 12h-250q-344 0 -344 -270q0 -87 58 -135.5t169 -48.5z" />
    <glyph glyph-name="uni0431" unicode="&#x431;" horiz-adv-x="1024" 
d="M455 -20q-154 0 -234 89t-80 255q0 98 17 198q14 74 16 88l23 111l22 98q35 166 74 248q40 87 123 158q132 109 471 118q87 3 102 56q3 12 23 12h20q17 0 8 -20q-25 -57 -58 -75t-120 -24q-138 -10 -170 -14q-61 -7 -132 -33t-122 -69q-74 -61 -100 -136
q-29 -81 -74 -270h6q126 188 346 188q155 0 229.5 -83t74.5 -254q0 -98 -35 -232q-36 -136 -80 -215q-111 -194 -350 -194zM455 31q207 0 301 168q37 65 75 204q33 121 33 215q0 156 -63.5 222.5t-196.5 66.5q-143 0 -248 -110.5t-145 -329.5q-14 -69 -14 -135
q0 -151 67 -226t191 -75z" />
    <glyph glyph-name="uni0432" unicode="&#x432;" horiz-adv-x="1003" 
d="M524 0h-381q-21 0 -18 20l164 932q3 19 24 19h359q114 0 173.5 -51.5t59.5 -145.5q0 -203 -186 -270v-8q125 -37 125 -185q0 -140 -87 -225.5t-233 -85.5zM199 51h327q119 0 189.5 69.5t70.5 186.5q0 79 -51.5 123.5t-144.5 44.5h-318q-11 0 -14 -12l-70 -400
q-3 -12 11 -12zM283 526h315q103 0 176 70q74 71 74 178q0 146 -189 146h-309q-12 0 -12 -11l-66 -372q-4 -11 11 -11z" />
    <glyph glyph-name="uni0433" unicode="&#x433;" horiz-adv-x="798" 
d="M156 0h-15q-19 0 -16 20l164 932q3 19 22 19h523q22 0 16 -19l-2 -14q-3 -18 -25 -18h-473q-11 0 -14 -13l-156 -887q-3 -20 -24 -20z" />
    <glyph glyph-name="uni0434" unicode="&#x434;" horiz-adv-x="1122" 
d="M-57 -297h-19q-17 0 -14 21l51 309q3 18 25 18h73q30 0 52 25q176 218 237 577l51 299q3 19 25 19h539q24 0 18 -19l-156 -889q-3 -12 11 -12h116q20 0 17 -18l-54 -309q-3 -21 -20 -21h-16q-22 0 -19 21l45 264q3 12 -8 12h-872q-14 0 -17 -12l-45 -264q-3 -21 -20 -21z
M174 51h582q11 0 14 12l148 844q3 13 -11 13h-444q-11 0 -14 -13l-41 -237q-68 -393 -240 -607q-4 -5 -2 -8.5t8 -3.5z" />
    <glyph glyph-name="uni0435" unicode="&#x435;" horiz-adv-x="960" 
d="M412 -20q-146 0 -222.5 80.5t-76.5 230.5q0 265 94 457q57 118 153 180.5t218 62.5q132 0 209 -81t77 -228q0 -71 -18 -176q-3 -21 -25 -21h-622q-14 0 -17 -12q-14 -69 -14 -182q0 -125 62.5 -192.5t185.5 -67.5q174 0 307 145q16 16 29 6l12 -10q15 -12 -2 -29
q-138 -163 -350 -163zM209 537h575q12 0 15 12q12 68 12 125q0 266 -238 266q-214 0 -317 -213q-35 -72 -57 -178q-3 -12 10 -12z" />
    <glyph glyph-name="uni0436" unicode="&#x436;" horiz-adv-x="1402" 
d="M-10 -6h-31q-21 0 -18 22l2 11q3 18 24 18h19q70 0 109.5 29t78.5 104l92 174q35 66 84 109t96 49v8q-62 40 -88 137l-39 140q-21 75 -51 103t-92 28h-22q-22 0 -19 22l2 10q3 19 27 19h24q75 0 116.5 -35.5t64.5 -120.5l39 -139q41 -156 163 -156h95q11 0 14 13l74 413
q3 19 24 19h10q8 0 15 -6t6 -13l-74 -413q-3 -13 10 -13h99q126 0 217 156l96 162q48 80 94.5 106.5t130.5 26.5h15q21 0 18 -23l-2 -10q-3 -18 -27 -18h-12q-61 0 -96 -22.5t-76 -90.5l-98 -162q-72 -118 -141 -139v-8q96 -21 120 -152l29 -145q19 -86 49 -124t94 -38h25
q19 0 16 -20l-2 -11q-3 -20 -22 -20h-29q-82 0 -123 49t-63 154l-29 147q-24 131 -188 131h-103q-11 0 -14 -12l-78 -443q-3 -20 -24 -20h-11q-23 0 -20 20l78 443q3 12 -11 12h-102q-161 0 -231 -131l-91 -172q-56 -103 -105.5 -140.5t-137.5 -37.5z" />
    <glyph glyph-name="uni0437" unicode="&#x437;" horiz-adv-x="911" 
d="M369 -20q-204 0 -318 126q-12 16 6 31l11 8q19 16 28 0q54 -65 117 -89.5t162 -24.5q150 0 232.5 74t82.5 200q0 81 -53.5 125.5t-147.5 44.5h-129q-21 0 -14 23l2 10q3 18 23 18h135q100 0 174 68q76 67 76 174q0 78 -62 124t-168 46q-95 0 -155.5 -19t-122.5 -69
q-17 -10 -27 0l-14 16q-10 10 6 23q138 102 319 102q133 0 206 -57t73 -160q0 -98 -50 -169t-143 -101v-8q60 -12 93.5 -62t33.5 -125q0 -157 -99 -243t-277 -86z" />
    <glyph glyph-name="uni0438" unicode="&#x438;" horiz-adv-x="1097" 
d="M164 0h-21q-21 0 -18 20l164 932q3 19 24 19h15q19 0 16 -19l-145 -839h6l715 850q8 8 18 8h18q10 0 16.5 -5.5t4.5 -13.5l-164 -932q-3 -20 -27 -20h-10q-10 0 -16 6t-4 14l145 836h-6l-711 -846q-10 -10 -20 -10z" />
    <glyph glyph-name="uni0439" unicode="&#x439;" horiz-adv-x="1097" 
d="M164 0h-21q-21 0 -18 20l164 932q3 19 24 19h15q19 0 16 -19l-145 -839h6l715 850q8 8 18 8h18q10 0 16.5 -5.5t4.5 -13.5l-164 -932q-3 -20 -27 -20h-10q-10 0 -16 6t-4 14l145 836h-6l-711 -846q-10 -10 -20 -10zM651 1188q-162 0 -192 190q-3 13 8 17l25 6
q13 3 16 -10q13 -77 47.5 -114.5t103.5 -37.5q133 0 207 154q8 14 23 8l20 -8q13 -7 6 -17q-95 -188 -264 -188z" />
    <glyph glyph-name="uni043A" unicode="&#x43a;" horiz-adv-x="962" 
d="M156 0h-13q-21 0 -18 20l164 932q3 19 24 19h13q24 0 18 -19l-72 -413q-3 -13 11 -13h120q127 0 218 156l98 166q46 80 91 104.5t132 24.5h14q22 0 19 -23l-2 -10q-3 -18 -27 -18h-12q-62 0 -95.5 -21t-74.5 -88l-100 -166q-72 -117 -142 -139v-8q97 -21 121 -152
l29 -145q19 -86 49 -124t94 -38h25q19 0 16 -20l-2 -11q-3 -20 -23 -20h-28q-82 0 -123.5 49.5t-63.5 153.5l-28 147q-24 131 -189 131h-127q-11 0 -14 -12l-78 -443q-3 -20 -24 -20z" />
    <glyph glyph-name="uni043B" unicode="&#x43b;" horiz-adv-x="1079" 
d="M6 -6h-26q-20 0 -17 22l2 13q3 16 23 16h12q46 0 81 14.5t83 57.5q102 97 164 440l69 395q3 19 25 19h522q20 0 14 -19l-163 -932q-3 -20 -21 -20h-16q-22 0 -19 20l156 887q3 13 -10 13h-426q-12 0 -15 -13l-71 -405q-89 -508 -367 -508z" />
    <glyph glyph-name="uni043C" unicode="&#x43c;" horiz-adv-x="1220" 
d="M158 0h-15q-21 0 -18 20l164 932q3 19 24 19h13q19 0 22 -15l209 -743h6l473 743q9 15 29 15h18q20 0 17 -19l-164 -932q-3 -20 -23 -20h-16q-21 0 -18 20l141 801h-6l-428 -663q-12 -21 -33 -21h-14q-15 0 -21 21l-190 663h-6l-142 -801q-3 -20 -22 -20z" />
    <glyph glyph-name="uni043D" unicode="&#x43d;" horiz-adv-x="1083" 
d="M156 0h-13q-21 0 -18 20l164 932q3 19 24 19h13q21 0 18 -19l-72 -413q-3 -13 11 -13h538q12 0 15 13l71 413q3 19 25 19h14q20 0 17 -19l-164 -932q-3 -20 -23 -20h-14q-22 0 -19 20l78 443q3 12 -10 12h-539q-11 0 -14 -12l-78 -443q-3 -20 -24 -20z" />
    <glyph glyph-name="uni043E" unicode="&#x43e;" horiz-adv-x="980" 
d="M412 -20q-148 0 -223.5 83t-75.5 238q0 109 30 244q35 141 68 211q113 235 371 235q148 0 223.5 -83t75.5 -238q0 -114 -33 -246q-29 -130 -66 -209q-113 -235 -370 -235zM420 31q211 0 317 213q34 74 58 188q30 129 30 223q0 285 -252 285q-211 0 -317 -213
q-31 -67 -59 -188q-29 -139 -29 -224q0 -284 252 -284z" />
    <glyph glyph-name="uni043F" unicode="&#x43f;" horiz-adv-x="1069" 
d="M156 0h-13q-21 0 -18 20l164 932q3 19 24 19h619q19 0 16 -19l-164 -932q-3 -20 -22 -20h-14q-22 0 -19 20l156 887q3 13 -11 13h-524q-11 0 -14 -13l-156 -887q-3 -20 -24 -20z" />
    <glyph glyph-name="uni0440" unicode="&#x440;" 
d="M92 -369h-16q-20 0 -17 21l230 1298q3 21 22 21h17q19 0 16 -21l-25 -137h3q114 178 325 178q138 0 210.5 -81t72.5 -232q0 -126 -33 -258q-36 -143 -68 -209q-111 -231 -354 -231q-103 0 -172 50.5t-96 137.5h-2l-90 -516q-3 -21 -23 -21zM479 31q206 0 301 200
q44 83 68 213q26 124 26 232q0 264 -237 264q-207 0 -315 -217q-27 -59 -54 -201q-30 -153 -30 -239q0 -115 63.5 -183.5t177.5 -68.5z" />
    <glyph glyph-name="uni0441" unicode="&#x441;" horiz-adv-x="921" 
d="M401 -20q-142 0 -215 83t-73 242q0 244 94 436q61 120 157 185t216 65q217 0 272 -196q6 -17 -10 -27l-15 -6q-18 -9 -24 10q-49 168 -232 168q-92 0 -177 -58t-134 -157q-92 -192 -92 -408q0 -286 242 -286q167 0 295 168q13 16 28 4l10 -8q15 -12 0 -31
q-141 -184 -342 -184z" />
    <glyph glyph-name="uni0442" unicode="&#x442;" horiz-adv-x="804" 
d="M330 0h-15q-21 0 -18 20l156 887q3 13 -11 13h-315q-19 0 -16 22l2 12q3 17 24 17h705q17 0 14 -21l-2 -12q0 -6 -8.5 -12t-14.5 -6h-309q-11 0 -14 -13l-156 -887q-3 -20 -22 -20z" />
    <glyph glyph-name="uni0443" unicode="&#x443;" horiz-adv-x="903" 
d="M43 -369h-31q-19 0 -16 21l2 10q3 21 25 21h32q68 0 113 45q52 49 121 178l59 108l-180 936q-3 21 16 21h17q19 0 22 -21l164 -860h2l465 860q9 21 29 21h20q19 0 10 -21l-577 -1063q-80 -152 -148 -204q-61 -52 -145 -52z" />
    <glyph glyph-name="uni0444" unicode="&#x444;" horiz-adv-x="1245" 
d="M479 -369h-12q-17 0 -14 21l55 321q3 13 -10 13q-188 7 -291 114.5t-103 294.5q0 296 189 461q147 129 381 129q11 0 14 12l68 375q3 21 20 21h12q6 0 12 -7t5 -14l-68 -375q-3 -12 11 -12q196 -7 295.5 -110.5t99.5 -288.5q0 -323 -211 -486q-144 -114 -361 -114
q-11 0 -14 -13l-55 -321q-3 -21 -23 -21zM504 37q11 0 14 12l154 873q3 12 -10 12q-205 0 -334 -117q-168 -143 -168 -420q0 -162 87 -257.5t257 -102.5zM586 37q185 0 315 106q186 149 186 439q0 161 -84 254.5t-260 97.5q-11 0 -14 -12l-154 -873q-3 -12 11 -12z" />
    <glyph glyph-name="uni0445" unicode="&#x445;" horiz-adv-x="874" 
d="M61 0h-28q-20 0 -6 20l409 492l-207 438q-9 21 13 21h20q17 0 23 -15l188 -399h2l330 399q12 15 29 15h24q21 0 6 -21l-366 -444l233 -486q9 -20 -14 -20h-21q-16 0 -22 14l-211 451h-2l-373 -451q-11 -14 -27 -14z" />
    <glyph glyph-name="uni0446" unicode="&#x446;" horiz-adv-x="1089" 
d="M860 -297h-16q-20 0 -17 21l45 264q3 12 -8 12h-721q-21 0 -18 18l164 932q3 21 24 21h13q21 0 18 -21l-156 -887q-3 -12 11 -12h524q11 0 14 12l156 887q3 21 25 21h14q19 0 16 -21l-155 -887q-3 -12 10 -12h115q8 0 13.5 -5.5t4.5 -12.5l-53 -309q-3 -21 -23 -21z" />
    <glyph glyph-name="uni0447" unicode="&#x447;" horiz-adv-x="1024" 
d="M737 0h-14q-21 0 -18 20l71 402q0 7 -10 4q-192 -66 -303 -66q-140 0 -200 65.5t-36 209.5l56 317q3 19 24 19h15q19 0 16 -19l-55 -317q-22 -123 23.5 -173t160.5 -50q135 0 309 71q12 6 12 13l80 456q3 19 25 19h14q20 0 17 -19l-164 -932q-3 -20 -23 -20z" />
    <glyph glyph-name="uni0448" unicode="&#x448;" horiz-adv-x="1529" 
d="M1221 0h-1078q-21 0 -18 18l164 932q3 21 24 21h13q21 0 18 -21l-156 -887q-3 -12 11 -12h452q12 0 15 12l155 887q3 21 25 21h14q20 0 17 -21l-156 -887q-3 -12 10 -12h453q11 0 14 12l156 887q3 21 24 21h13q21 0 18 -21l-164 -932q-3 -18 -24 -18z" />
    <glyph glyph-name="uni0449" unicode="&#x449;" horiz-adv-x="1550" 
d="M1321 -297h-16q-20 0 -17 21l45 264q3 12 -8 12h-1182q-21 0 -18 18l164 932q3 21 24 21h13q21 0 18 -21l-156 -887q-3 -12 11 -12h452q12 0 15 12l155 887q3 21 25 21h14q20 0 17 -21l-156 -887q-3 -12 10 -12h453q11 0 14 12l156 887q3 21 24 21h13q21 0 18 -21
l-156 -887q-3 -12 11 -12h114q8 0 14 -5.5t5 -12.5l-54 -309q-3 -21 -22 -21z" />
    <glyph glyph-name="uni044A" unicode="&#x44a;" horiz-adv-x="1091" 
d="M629 0h-373q-21 0 -18 20l155 887q3 13 -10 13h-258q-17 0 -14 22l2 14q3 15 22 15h303q22 0 19 -19l-70 -403q-3 -12 10 -12h314q120 0 182.5 -59.5t62.5 -166.5q0 -147 -86.5 -229t-240.5 -82zM311 51h332q117 0 187.5 70.5t70.5 187.5q0 85 -49.5 130.5t-142.5 45.5
h-322q-11 0 -14 -12l-72 -410q-3 -12 10 -12z" />
    <glyph glyph-name="uni044B" unicode="&#x44b;" horiz-adv-x="1300" 
d="M496 0h-353q-21 0 -18 20l164 932q3 19 24 19h13q21 0 18 -19l-70 -403q-3 -12 11 -12h293q120 0 182.5 -59.5t62.5 -166.5q0 -147 -86.5 -229t-240.5 -82zM199 51h311q117 0 187.5 70.5t70.5 187.5q0 85 -49.5 130.5t-143.5 45.5h-301q-11 0 -14 -12l-72 -410
q-3 -12 11 -12zM993 0h-14q-21 0 -18 20l163 930q3 21 25 21h14q20 0 17 -21l-164 -930q-3 -20 -23 -20z" />
    <glyph glyph-name="uni044C" unicode="&#x44c;" horiz-adv-x="978" 
d="M516 0h-373q-21 0 -18 20l164 932q3 19 24 19h13q21 0 18 -19l-70 -403q-3 -12 11 -12h313q120 0 183 -59.5t63 -166.5q0 -147 -87 -229t-241 -82zM199 51h331q117 0 187.5 70.5t70.5 187.5q0 85 -49.5 130.5t-142.5 45.5h-322q-11 0 -14 -12l-72 -410q-3 -12 11 -12z
" />
    <glyph glyph-name="uni044D" unicode="&#x44d;" horiz-adv-x="929" 
d="M375 -20q-114 0 -189.5 51.5t-105.5 146.5q-7 17 8 23l14 6q18 9 27 -8q52 -168 254 -168q88 0 172 58.5t133 156.5q43 87 70 217q3 12 -10 12h-381q-20 0 -17 25l2 10q3 16 25 16h379q10 0 14 11q10 92 10 131q0 131 -59 201.5t-178 70.5q-200 0 -303 -160
q-10 -17 -29 -8l-10 6q-19 10 -6 29q56 87 148 135.5t204 48.5q139 0 214 -84.5t75 -238.5q0 -241 -97 -443q-57 -117 -152 -181t-212 -64z" />
    <glyph glyph-name="uni044E" unicode="&#x44e;" horiz-adv-x="1341" 
d="M770 -20q-146 0 -221.5 84t-75.5 243q0 79 14 156q3 12 -10 12h-205q-11 0 -14 -12l-78 -443q-3 -20 -24 -20h-13q-21 0 -18 20l164 932q3 19 24 19h13q24 0 18 -19l-72 -413q-3 -13 11 -13h204q12 0 15 13q52 228 145 329q114 123 301 123q142 0 219.5 -84.5
t77.5 -238.5q0 -142 -47 -310q-46 -164 -123 -252q-114 -126 -305 -126zM778 31q165 0 266 125q67 81 107 231q39 144 39 275q0 278 -252 278q-156 0 -256 -115q-68 -77 -111 -231t-43 -285q0 -278 250 -278z" />
    <glyph glyph-name="uni044F" unicode="&#x44f;" horiz-adv-x="1003" 
d="M63 -6h-51q-19 0 -16 22l2 13q3 16 22 16h35q59 0 93 28t79 109l62 111q33 59 52 82.5t58 48.5v8q-93 8 -147.5 67.5t-54.5 157.5q0 148 89.5 231t243.5 83h338q18 0 15 -19l-164 -932q-3 -20 -23 -20h-14q-21 0 -18 20l69 392q3 12 -10 12h-141q-80 0 -132 -27t-94 -102
l-69 -123q-56 -98 -104.5 -138t-119.5 -40zM446 475h285q11 0 14 12l74 420q3 13 -10 13h-264q-136 0 -214.5 -68t-78.5 -195q0 -87 49 -134.5t145 -47.5z" />
    <glyph glyph-name="uni0450" unicode="&#x450;" horiz-adv-x="960" 
d="M412 -20q-146 0 -222.5 80.5t-76.5 230.5q0 265 94 457q57 118 153 180.5t218 62.5q132 0 209 -81t77 -228q0 -71 -18 -176q-3 -21 -25 -21h-622q-14 0 -17 -12q-14 -69 -14 -182q0 -125 62.5 -192.5t185.5 -67.5q174 0 307 145q16 16 29 6l12 -10q15 -12 -2 -29
q-138 -163 -350 -163zM209 537h575q12 0 15 12q12 68 12 125q0 266 -238 266q-214 0 -317 -213q-35 -72 -57 -178q-3 -12 10 -12zM600 1147h-4q-20 0 -31 20l-121 246q-5 8 0 14.5t15 6.5h18q18 0 27 -21l110 -246q9 -20 -14 -20z" />
    <glyph glyph-name="uni0451" unicode="&#x451;" horiz-adv-x="960" 
d="M412 -20q-146 0 -222.5 80.5t-76.5 230.5q0 265 94 457q57 118 153 180.5t218 62.5q132 0 209 -81t77 -228q0 -71 -18 -176q-3 -21 -25 -21h-622q-14 0 -17 -12q-14 -69 -14 -182q0 -125 62.5 -192.5t185.5 -67.5q174 0 307 145q16 16 29 6l12 -10q15 -12 -2 -29
q-138 -163 -350 -163zM209 537h575q12 0 15 12q12 68 12 125q0 266 -238 266q-214 0 -317 -213q-35 -72 -57 -178q-3 -12 10 -12zM852 1274h-45q-19 0 -16 20l14 78q3 21 22 21h45q20 0 17 -21l-15 -78q-3 -20 -22 -20zM457 1274h-45q-20 0 -17 20l15 78q3 21 22 21h45
q20 0 17 -21l-15 -78q-3 -20 -22 -20z" />
    <glyph glyph-name="uni0452" unicode="&#x452;" horiz-adv-x="1056" 
d="M520 -369h-8q-19 0 -16 23l2 10q3 19 24 19h6q91 0 128.5 35t56.5 137l135 747q32 176 -21.5 257t-195.5 81q-114 0 -217 -86q-100 -81 -125 -217l-109 -617q-3 -20 -22 -20h-19q-17 0 -14 20l201 1139q3 12 -11 12h-149q-19 0 -16 23l2 12q3 19 24 19h148q11 0 14 12
l24 135q3 21 23 21h16q20 0 17 -21l-25 -135q-3 -12 10 -12h244q20 0 17 -23l-2 -12q-3 -19 -25 -19h-242q-11 0 -14 -12l-59 -340h2q111 172 317 172q160 0 228 -95.5t36 -279.5l-137 -761q-23 -130 -76 -177t-172 -47z" />
    <glyph glyph-name="uni0453" unicode="&#x453;" horiz-adv-x="798" 
d="M156 0h-15q-19 0 -16 20l164 932q3 19 22 19h523q22 0 16 -19l-2 -14q-3 -18 -25 -18h-473q-11 0 -14 -13l-156 -887q-3 -20 -24 -20zM522 1147h-8q-20 0 -6 20l192 246q15 21 37 21h23q10 0 12 -7t-4 -14l-209 -246q-17 -20 -37 -20z" />
    <glyph glyph-name="uni0454" unicode="&#x454;" horiz-adv-x="929" 
d="M399 -20q-286 0 -286 329q0 130 32 258q34 137 95 232q125 192 338 192q228 0 286 -198q6 -21 -8 -27l-16 -8q-16 -9 -25 16q-55 166 -248 166q-172 0 -280 -166q-63 -92 -90 -237q-4 -11 10 -11h389q19 0 16 -22l-2 -10q-3 -19 -24 -19h-387q-16 0 -19 -12
q-12 -65 -12 -156q0 -134 62 -205t178 -71q194 0 307 168q13 16 26 8l13 -6q14 -9 2 -27q-126 -194 -357 -194z" />
    <glyph glyph-name="uni0455" unicode="&#x455;" horiz-adv-x="931" 
d="M406 -20q-203 0 -332 129q-12 12 2 26l12 10q15 15 27 0q135 -114 295 -114q149 0 239 75.5t90 200.5q0 74 -44.5 111t-153.5 49l-90 10q-236 27 -236 211q0 132 98 217q100 86 262 86q154 0 279 -82q11 -8 2 -24l-6 -11q-10 -16 -33 -6q-129 72 -248 72
q-130 0 -214.5 -70.5t-84.5 -179.5q0 -74 49.5 -113t161.5 -51l90 -10q224 -24 224 -203q0 -152 -106 -242.5t-283 -90.5z" />
    <glyph glyph-name="uni0456" unicode="&#x456;" horiz-adv-x="452" 
d="M158 0h-17q-19 0 -16 20l164 930q3 21 22 21h17q19 0 16 -21l-164 -930q-3 -20 -22 -20zM393 1274h-41q-19 0 -16 20l14 78q3 21 23 21h45q17 0 14 -21l-14 -78q-3 -20 -25 -20z" />
    <glyph glyph-name="uni0457" unicode="&#x457;" horiz-adv-x="452" 
d="M158 0h-17q-19 0 -16 20l164 930q3 21 22 21h17q19 0 16 -21l-164 -930q-3 -20 -22 -20zM586 1274h-45q-20 0 -17 20l15 78q3 21 22 21h45q20 0 17 -21l-15 -78q-3 -20 -22 -20zM190 1274h-45q-19 0 -16 20l14 78q3 21 23 21h45q19 0 16 -21l-14 -78q-3 -20 -23 -20z" />
    <glyph glyph-name="uni0458" unicode="&#x458;" horiz-adv-x="452" 
d="M-96 -369h-8q-20 0 -17 21l2 10q3 21 25 21h6q91 0 128 34.5t56 137.5l193 1095q3 21 22 21h17q19 0 16 -21l-192 -1095q-23 -130 -76 -177t-172 -47zM393 1274h-41q-19 0 -16 20l14 78q3 21 23 21h45q17 0 14 -21l-14 -78q-3 -20 -25 -20z" />
    <glyph glyph-name="uni0459" unicode="&#x459;" horiz-adv-x="1593" 
d="M6 -6h-26q-20 0 -17 22l2 13q3 16 23 16h12q46 0 81 14.5t83 57.5q102 97 164 440l69 395q3 19 25 19h522q20 0 14 -19l-69 -403q-3 -12 10 -12h313q120 0 183 -59.5t63 -166.5q0 -147 -87 -229t-241 -82h-372q-22 0 -19 20l156 887q3 13 -10 13h-426q-12 0 -15 -13
l-71 -405q-89 -508 -367 -508zM813 51h332q117 0 187.5 70.5t70.5 187.5q0 85 -49.5 130.5t-143.5 45.5h-321q-12 0 -15 -12l-71 -410q-3 -12 10 -12z" />
    <glyph glyph-name="uni045A" unicode="&#x45a;" horiz-adv-x="1597" 
d="M156 0h-13q-21 0 -18 20l164 932q3 19 24 19h13q21 0 18 -19l-70 -403q-3 -12 11 -12h538q12 0 15 12l69 403q3 19 25 19h14q20 0 17 -19l-70 -403q-3 -12 10 -12h314q120 0 182.5 -59.5t62.5 -166.5q0 -147 -86.5 -229t-240.5 -82h-373q-22 0 -19 20l80 453q3 12 -10 12
h-539q-11 0 -14 -12l-80 -453q-3 -20 -24 -20zM817 51h332q117 0 187.5 70.5t70.5 187.5q0 85 -49.5 130.5t-143.5 45.5h-321q-11 0 -14 -12l-72 -410q-3 -12 10 -12z" />
    <glyph glyph-name="uni045B" unicode="&#x45b;" horiz-adv-x="1056" 
d="M158 0h-19q-17 0 -14 20l201 1139q3 12 -11 12h-149q-19 0 -16 23l2 12q3 19 24 19h148q11 0 14 12l24 135q3 21 23 21h16q20 0 17 -21l-25 -135q-3 -12 10 -12h244q20 0 17 -23l-2 -12q-3 -19 -25 -19h-242q-11 0 -14 -12l-59 -340h2q111 172 317 172q160 0 228 -95.5
t36 -279.5l-108 -596q-3 -20 -23 -20h-18q-18 0 -15 20l107 582q32 176 -21.5 257t-195.5 81q-114 0 -217 -86q-100 -81 -125 -217l-109 -617q-3 -20 -22 -20z" />
    <glyph glyph-name="uni045C" unicode="&#x45c;" horiz-adv-x="962" 
d="M156 0h-13q-21 0 -18 20l164 932q3 19 24 19h13q24 0 18 -19l-72 -413q-3 -13 11 -13h120q127 0 218 156l98 166q46 80 91 104.5t132 24.5h14q22 0 19 -23l-2 -10q-3 -18 -27 -18h-12q-62 0 -95.5 -21t-74.5 -88l-100 -166q-72 -117 -142 -139v-8q97 -21 121 -152
l29 -145q19 -86 49 -124t94 -38h25q19 0 16 -20l-2 -11q-3 -20 -23 -20h-28q-82 0 -123.5 49.5t-63.5 153.5l-28 147q-24 131 -189 131h-127q-11 0 -14 -12l-78 -443q-3 -20 -24 -20zM535 1147h-9q-20 0 -6 20l193 246q15 21 37 21h22q10 0 12 -7t-4 -14l-209 -246
q-17 -20 -36 -20z" />
    <glyph glyph-name="uni045D" unicode="&#x45d;" horiz-adv-x="1097" 
d="M164 0h-21q-21 0 -18 20l164 932q3 19 24 19h15q19 0 16 -19l-145 -839h6l715 850q8 8 18 8h18q10 0 16.5 -5.5t4.5 -13.5l-164 -932q-3 -20 -27 -20h-10q-10 0 -16 6t-4 14l145 836h-6l-711 -846q-10 -10 -20 -10zM666 1147h-4q-20 0 -31 20l-121 246q-5 7 -0.5 14
t14.5 7h19q17 0 26 -21l111 -246q9 -20 -14 -20z" />
    <glyph glyph-name="uni045E" unicode="&#x45e;" horiz-adv-x="903" 
d="M43 -369h-31q-19 0 -16 21l2 10q3 21 25 21h32q68 0 113 45q52 49 121 178l59 108l-180 936q-3 21 16 21h17q19 0 22 -21l164 -860h2l465 860q9 21 29 21h20q19 0 10 -21l-577 -1063q-80 -152 -148 -204q-61 -52 -145 -52zM569 1188q-162 0 -192 190q-3 13 8 17l25 6
q13 3 16 -10q13 -77 48 -114.5t104 -37.5q132 0 206 154q8 14 23 8l20 -8q14 -7 7 -17q-95 -188 -265 -188z" />
    <glyph glyph-name="uni045F" unicode="&#x45f;" horiz-adv-x="1069" 
d="M408 -297h-15q-21 0 -18 21l45 264q3 12 -8 12h-271q-21 0 -18 18l164 932q3 21 24 21h13q21 0 18 -21l-156 -887q-3 -12 11 -12h524q11 0 14 12l156 887q3 21 24 21h15q19 0 16 -21l-164 -932q-3 -18 -22 -18h-268q-14 0 -17 -12l-45 -264q-3 -21 -22 -21z" />
    <glyph glyph-name="uni0490" unicode="&#x490;" horiz-adv-x="970" 
d="M164 0h-17q-21 0 -18 20l240 1354q3 19 22 19h631q19 0 22 20l41 236q3 18 25 18h16q20 0 17 -18l-51 -291q-3 -19 -21 -19h-639q-11 0 -14 -12l-232 -1307q-3 -20 -22 -20z" />
    <glyph glyph-name="uni0491" unicode="&#x491;" horiz-adv-x="813" 
d="M156 0h-15q-19 0 -16 20l164 932q3 19 22 19h473q12 0 15 12l41 231q3 21 22 21h17q19 0 16 -21l-49 -276q-3 -18 -27 -18h-469q-11 0 -14 -13l-156 -887q-3 -20 -24 -20z" />
    <glyph glyph-name="Wgrave" unicode="&#x1e80;" horiz-adv-x="1603" 
d="M1104 0h-17q-17 0 -20 20l-119 1250h-4l-561 -1250q-9 -20 -29 -20h-16q-18 0 -21 20l-73 1350q0 23 20 23h15q22 0 22 -23l68 -1247h4l555 1249q9 21 28 21h17q19 0 22 -21l117 -1249h4l506 1249q9 21 31 21h16q24 0 14 -23l-550 -1350q-9 -20 -29 -20zM985 1569h-6
q-19 0 -33 20l-131 209q-4 8 -1 14.5t11 6.5h21q19 0 31 -21l118 -209q14 -20 -10 -20z" />
    <glyph glyph-name="wgrave" unicode="&#x1e81;" horiz-adv-x="1431" 
d="M946 0h-12q-18 0 -21 20l-120 863h-2l-426 -863q-11 -20 -29 -20h-12q-18 0 -21 20l-125 930q-3 21 17 21h14q19 0 22 -21l115 -852h2l420 852q9 21 27 21h14q19 0 22 -21l125 -852h2l412 852q9 21 29 21h16q21 0 12 -21l-454 -930q-9 -20 -27 -20zM823 1147h-4
q-20 0 -31 20l-120 246q-5 7 -0.5 14t14.5 7h18q18 0 27 -21l111 -246q9 -20 -15 -20z" />
    <glyph glyph-name="Wacute" unicode="&#x1e82;" horiz-adv-x="1603" 
d="M1104 0h-17q-17 0 -20 20l-119 1250h-4l-561 -1250q-9 -20 -29 -20h-16q-18 0 -21 20l-73 1350q0 23 20 23h15q22 0 22 -23l68 -1247h4l555 1249q9 21 28 21h17q19 0 22 -21l117 -1249h4l506 1249q9 21 31 21h16q24 0 14 -23l-550 -1350q-9 -20 -29 -20zM1024 1569h-10
q-24 0 -2 22l186 207q18 21 39 21h23q10 0 12 -6.5t-6 -14.5l-203 -209q-20 -20 -39 -20z" />
    <glyph glyph-name="wacute" unicode="&#x1e83;" horiz-adv-x="1431" 
d="M946 0h-12q-18 0 -21 20l-120 863h-2l-426 -863q-11 -20 -29 -20h-12q-18 0 -21 20l-125 930q-3 21 17 21h14q19 0 22 -21l115 -852h2l420 852q9 21 27 21h14q19 0 22 -21l125 -852h2l412 852q9 21 29 21h16q21 0 12 -21l-454 -930q-9 -20 -27 -20zM860 1147h-8
q-20 0 -6 20l192 246q15 21 37 21h23q8 0 11 -7t-3 -14l-209 -246q-17 -20 -37 -20z" />
    <glyph glyph-name="Wdieresis" unicode="&#x1e84;" horiz-adv-x="1603" 
d="M1104 0h-17q-17 0 -20 20l-119 1250h-4l-561 -1250q-9 -20 -29 -20h-16q-18 0 -21 20l-73 1350q0 23 20 23h15q22 0 22 -23l68 -1247h4l555 1249q9 21 28 21h17q19 0 22 -21l117 -1249h4l506 1249q9 21 31 21h16q24 0 14 -23l-550 -1350q-9 -20 -29 -20zM1227 1630h-45
q-20 0 -17 21l15 78q3 20 22 20h45q20 0 17 -20l-15 -78q-3 -21 -22 -21zM831 1630h-45q-19 0 -16 21l14 78q3 20 23 20h45q19 0 16 -20l-14 -78q-3 -21 -23 -21z" />
    <glyph glyph-name="wdieresis" unicode="&#x1e85;" horiz-adv-x="1431" 
d="M946 0h-12q-18 0 -21 20l-120 863h-2l-426 -863q-11 -20 -29 -20h-12q-18 0 -21 20l-125 930q-3 21 17 21h14q19 0 22 -21l115 -852h2l420 852q9 21 27 21h14q19 0 22 -21l125 -852h2l412 852q9 21 29 21h16q21 0 12 -21l-454 -930q-9 -20 -27 -20zM1098 1274h-45
q-20 0 -17 20l15 78q3 21 22 21h45q20 0 17 -21l-15 -78q-3 -20 -22 -20zM702 1274h-45q-19 0 -16 20l14 78q3 21 23 21h45q19 0 16 -21l-14 -78q-3 -20 -23 -20z" />
    <glyph glyph-name="Ygrave" unicode="&#x1ef2;" horiz-adv-x="995" 
d="M432 0h-18q-20 0 -17 20l97 553l-263 795q-6 25 17 25h12q20 0 29 -21l241 -729h5l499 729q12 21 35 21h16q10 0 13.5 -8.5t-2.5 -16.5l-545 -797l-96 -551q-3 -20 -23 -20zM684 1569h-6q-19 0 -33 20l-131 209q-4 8 -1 14.5t11 6.5h21q18 0 30 -21l119 -209
q14 -20 -10 -20z" />
    <glyph glyph-name="ygrave" unicode="&#x1ef3;" horiz-adv-x="903" 
d="M43 -369h-31q-19 0 -16 21l2 10q3 21 25 21h32q68 0 113 45q52 49 121 178l59 108l-180 936q-3 21 16 21h17q19 0 22 -21l164 -860h2l465 860q9 21 29 21h20q19 0 10 -21l-577 -1063q-80 -152 -148 -204q-61 -52 -145 -52zM563 1147h-4q-20 0 -31 20l-120 246
q-5 7 -0.5 14t14.5 7h18q18 0 27 -21l111 -246q9 -20 -15 -20z" />
    <glyph glyph-name="uni2010" unicode="&#x2010;" horiz-adv-x="722" 
d="M618 522h-483q-19 0 -16 21l2 12q3 16 22 16h484q19 0 16 -20l-2 -12q-3 -17 -23 -17z" />
    <glyph glyph-name="endash" unicode="&#x2013;" horiz-adv-x="976" 
d="M911 522h-815q-19 0 -16 21l2 12q3 16 22 16h816q19 0 16 -20l-2 -12q-3 -17 -23 -17z" />
    <glyph glyph-name="emdash" unicode="&#x2014;" horiz-adv-x="1597" 
d="M1532 522h-1436q-19 0 -16 21l2 12q3 16 22 16h1436q19 0 16 -20l-2 -12q-3 -17 -22 -17z" />
    <glyph glyph-name="quoteleft" unicode="&#x2018;" horiz-adv-x="393" 
d="M334 1104h-39q-17 0 -14 20l20 113q7 35 14 47l47 92q10 19 23 19q17 0 14 -19l-43 -252q-3 -20 -22 -20z" />
    <glyph glyph-name="quoteright" unicode="&#x2019;" horiz-adv-x="393" 
d="M293 1102q-17 0 -14 18l43 252q3 21 22 21h39q17 0 14 -21l-20 -112q-7 -34 -15 -48l-47 -92q-9 -18 -22 -18z" />
    <glyph glyph-name="quotesinglbase" unicode="&#x201a;" horiz-adv-x="393" 
d="M72 -164q-18 0 -15 19l43 251q3 21 23 21h39q17 0 14 -21l-20 -112q-7 -33 -15 -47l-47 -92q-10 -19 -22 -19z" />
    <glyph glyph-name="quotedblleft" unicode="&#x201c;" horiz-adv-x="632" 
d="M573 1104h-38q-18 0 -15 20l21 113q7 35 14 47l47 92q10 19 23 19q17 0 14 -19l-43 -252q-3 -20 -23 -20zM334 1104h-39q-17 0 -14 20l20 113q7 35 14 47l47 92q10 19 23 19q17 0 14 -19l-43 -252q-3 -20 -22 -20z" />
    <glyph glyph-name="quotedblright" unicode="&#x201d;" horiz-adv-x="632" 
d="M532 1102q-17 0 -14 18l43 252q3 21 23 21h39q17 0 14 -21l-21 -112q-7 -37 -14 -48l-47 -92q-9 -18 -23 -18zM293 1102q-17 0 -14 18l43 252q3 21 22 21h39q17 0 14 -21l-20 -112q-7 -34 -15 -48l-47 -92q-9 -18 -22 -18z" />
    <glyph glyph-name="quotedblbase" unicode="&#x201e;" horiz-adv-x="632" 
d="M72 -164q-18 0 -15 19l43 251q3 21 23 21h39q17 0 14 -21l-20 -112q-7 -33 -15 -47l-47 -92q-10 -19 -22 -19zM311 -164q-17 0 -14 19l43 251q3 21 22 21h39q18 0 15 -21l-21 -112q-7 -36 -14 -47l-47 -92q-10 -19 -23 -19z" />
    <glyph glyph-name="dagger" unicode="&#x2020;" horiz-adv-x="798" 
d="M276 -369h-14q-19 0 -16 21l200 1139q3 12 -8 12h-262q-19 0 -16 20l2 13q3 16 22 16h260q12 0 15 12l90 508q3 21 22 21h15q19 0 16 -21l-90 -508q-3 -12 10 -12h260q20 0 17 -21l-2 -12q-3 -16 -23 -16h-260q-11 0 -14 -12l-201 -1139q-3 -21 -23 -21z" />
    <glyph glyph-name="daggerdbl" unicode="&#x2021;" horiz-adv-x="798" 
d="M266 -369h-14q-22 0 -16 21l79 454q3 13 -8 13h-262q-19 0 -16 20l2 13q3 16 22 16h260q12 0 15 12l118 670q3 12 -8 12h-262q-19 0 -16 21l2 12q3 16 22 16h260q12 0 15 13l80 448q3 21 22 21h14q20 0 17 -21l-80 -448q-3 -13 10 -13h260q20 0 17 -20l-2 -12
q-3 -17 -23 -17h-260q-11 0 -14 -12l-119 -670q-3 -12 10 -12h260q20 0 17 -21l-2 -12q-3 -16 -23 -16h-260q-11 0 -14 -13l-80 -454q-6 -21 -23 -21z" />
    <glyph glyph-name="bullet" unicode="&#x2022;" horiz-adv-x="700" 
d="M537 479q-61 -61 -152 -61t-152 61t-61 152q0 90 61 151q62 62 152 62t152 -62q61 -61 61 -151q0 -91 -61 -152z" />
    <glyph glyph-name="ellipsis" unicode="&#x2026;" horiz-adv-x="1198" 
d="M950 0h-51q-19 0 -16 20l16 99q3 20 23 20h51q19 0 16 -20l-16 -99q-3 -20 -23 -20zM551 0h-51q-20 0 -17 20l17 99q3 20 22 20h51q20 0 17 -20l-17 -99q-3 -20 -22 -20zM152 0h-52q-19 0 -16 20l16 99q3 20 23 20h51q19 0 16 -20l-16 -99q-3 -20 -22 -20z" />
    <glyph glyph-name="perthousand" unicode="&#x2030;" horiz-adv-x="2064" 
d="M295 -20h-19q-22 0 -8 20l1018 1393q14 20 31 20h18q22 0 8 -20l-1015 -1393q-17 -20 -33 -20zM467 676q-85 0 -132.5 48.5t-47.5 135.5q0 76 26 209q26 134 56 195q71 145 217 145q85 0 132.5 -48.5t47.5 -135.5q0 -61 -29 -209q-28 -144 -53 -195q-71 -145 -217 -145z
M471 723q105 0 164 108q30 64 53 187q27 129 27 205q0 139 -133 139q-105 0 -164 -109q-30 -66 -56 -188q-24 -126 -24 -203q0 -139 133 -139zM1616 -16q-85 0 -132.5 48.5t-47.5 135.5q0 76 26 209q26 132 56 194q71 146 217 146q85 0 132.5 -48.5t47.5 -136.5
q0 -60 -29 -208q-28 -144 -53 -195q-71 -145 -217 -145zM1028 -16q-85 0 -132.5 48.5t-47.5 135.5q0 76 26 209q26 132 56 194q71 146 217 146q85 0 132.5 -48.5t47.5 -136.5q0 -60 -29 -208q-28 -144 -53 -195q-71 -145 -217 -145zM1620 31q106 0 164 108q30 64 53 187
q27 129 27 204q0 140 -133 140q-105 0 -164 -109q-30 -66 -56 -188q-24 -126 -24 -203q0 -139 133 -139zM1032 31q106 0 164 108q30 64 53 187q27 129 27 204q0 140 -133 140q-105 0 -164 -109q-29 -62 -55 -188q-25 -131 -25 -203q0 -139 133 -139z" />
    <glyph glyph-name="guilsinglleft" unicode="&#x2039;" horiz-adv-x="604" 
d="M387 201l-250 325q-13 16 4 29l365 324q6 6 13 2.5t5 -11.5l-4 -30q-3 -20 -18 -35l-291 -260q-7 -7 -4 -17l196 -260q11 -19 9 -35l-4 -26q0 -9 -9 -10.5t-12 4.5z" />
    <glyph glyph-name="guilsinglright" unicode="&#x203a;" horiz-adv-x="604" 
d="M502 524l-365 -323q-6 -6 -13 -3t-5 11l4 31q3 19 18 34l291 261q7 7 4 16l-196 260q-11 19 -9 35l5 26q0 9 8.5 11t11.5 -4l250 -326q13 -16 -4 -29z" />
    <glyph glyph-name="interrobang" unicode="&#x203d;" horiz-adv-x="862" 
d="M406 338h-17q-19 0 -16 20l110 648q3 20 23 20h20q20 0 17 -20l-78 -398h4l143 158q110 122 153.5 203.5t43.5 167.5q0 104 -62 164.5t-163 60.5q-110 0 -195.5 -70.5t-128.5 -195.5q-7 -20 -24 -17l-17 4q-17 3 -10 23q44 143 145.5 225t237.5 82q126 0 198 -74t72 -198
q0 -173 -196 -381l-109 -117q-63 -69 -80 -100q-18 -34 -33 -103l-16 -82q-3 -20 -22 -20zM305 20l17 99q3 20 22 20h51q20 0 17 -20l-17 -99q-3 -20 -22 -20h-51q-20 0 -17 20z" />
    <glyph glyph-name="fraction" unicode="&#x2044;" horiz-adv-x="382" 
d="M-264 -20h-19q-22 0 -8 20l1018 1393q14 20 31 20h18q22 0 8 -20l-1015 -1393q-17 -20 -33 -20z" />
    <glyph glyph-name="zero.superior" unicode="&#x2070;" horiz-adv-x="634" 
d="M391 868q-88 0 -139 50.5t-51 138.5q0 67 37 264q38 201 61 252q74 151 240 151q88 0 139 -50t51 -138q0 -67 -37 -264q-38 -201 -61 -252q-74 -152 -240 -152zM397 918q126 0 187 122q22 44 59 236q33 174 33 246q0 153 -144 153q-124 0 -186 -123q-23 -44 -59 -235
q-33 -174 -33 -246q0 -153 143 -153z" />
    <glyph glyph-name="four.superior" unicode="&#x2074;" horiz-adv-x="634" 
d="M518 881h-14q-18 0 -15 20l25 141q3 13 -10 13h-318q-19 0 -16 20l2 10q5 16 14 29l373 578q11 20 27 20h22q8 0 11 -6t-3 -14l-378 -586v-2h274q11 0 14 12l39 221q3 21 23 21h14q17 0 14 -21l-36 -221q-3 -12 10 -12h86q19 0 16 -21l-2 -10q-3 -18 -20 -18h-90
q-12 0 -15 -13l-24 -141q-3 -20 -23 -20z" />
    <glyph glyph-name="five.superior" unicode="&#x2075;" horiz-adv-x="634" 
d="M410 868q-168 0 -189 164q-3 24 12 27l17 4q15 3 18 -12q11 -69 44.5 -101t103.5 -32q121 0 178 112q17 39 31 105q14 69 14 112q0 131 -139 131q-118 0 -172 -100q-9 -21 -27 -21h-10q-20 0 -17 21l74 414q3 20 23 20h372q20 0 17 -20l-2 -11q-3 -18 -21 -18h-329
q-12 0 -15 -12l-55 -303h2q52 79 174 79q80 0 128 -45.5t48 -124.5q0 -43 -16 -131q-13 -70 -35 -120q-67 -138 -229 -138z" />
    <glyph glyph-name="six.superior" unicode="&#x2076;" horiz-adv-x="634" 
d="M389 868q-92 0 -145.5 53t-53.5 144q0 111 89 238l278 393q10 16 25 16h22q10 0 12 -6t-4 -14l-254 -359l2 -2q47 35 119 35q88 0 142.5 -53.5t54.5 -141.5q0 -128 -80 -217q-80 -86 -207 -86zM397 918q97 0 162.5 70.5t65.5 174.5q0 72 -42 113t-114 41q-97 0 -162 -71
t-65 -175q0 -72 41.5 -112.5t113.5 -40.5z" />
    <glyph glyph-name="seven.superior" unicode="&#x2077;" horiz-adv-x="634" 
d="M303 881h-18q-11 0 -13.5 5.5t4.5 16.5l447 758v2h-326q-11 0 -14 -12l-16 -84q-3 -21 -21 -21h-12q-20 0 -17 21l23 125q3 20 22 20h404q19 0 16 -20l-2 -17q-3 -15 -12 -30l-438 -748q-10 -16 -27 -16z" />
    <glyph glyph-name="eight.superior" unicode="&#x2078;" horiz-adv-x="634" 
d="M389 868q-92 0 -148.5 52.5t-56.5 140.5t46.5 158t131.5 100v4q-83 41 -83 150q0 104 75 176q75 75 185 75q82 0 135 -49t53 -127q0 -72 -42 -135t-110 -94v-4q44 -18 72.5 -62t28.5 -100q0 -123 -81.5 -204t-205.5 -81zM475 1341q76 0 137 58q64 58 64 141
q0 60 -41.5 97.5t-104.5 37.5q-74 0 -139 -59q-61 -58 -61 -139q0 -60 41 -98t104 -38zM397 918q92 0 158 63q70 64 70 160q0 69 -43.5 110t-118.5 41q-89 0 -160 -65q-67 -64 -67 -158q0 -69 43 -110t118 -41z" />
    <glyph glyph-name="nine.superior" unicode="&#x2079;" horiz-adv-x="634" 
d="M348 881h-22q-10 0 -12.5 6.5t3.5 13.5l254 359l-2 2q-47 -35 -118 -35q-88 0 -142.5 53.5t-54.5 140.5q0 129 80 215q79 88 207 88q92 0 145 -52.5t53 -143.5q0 -113 -88 -238l-278 -393q-10 -16 -25 -16zM461 1276q97 0 162 71t65 175q0 72 -42 112.5t-114 40.5
q-97 0 -162 -70.5t-65 -174.5q0 -72 42 -113t114 -41z" />
    <glyph glyph-name="zero.inferior" unicode="&#x2080;" horiz-adv-x="634" 
d="M182 -332q-88 0 -139 50.5t-51 138.5q0 67 37 264q38 201 61 252q74 151 240 151q88 0 139 -50t51 -138q0 -67 -37 -264q-38 -201 -61 -252q-74 -152 -240 -152zM188 -283q126 0 187 123q22 44 59 236q33 174 33 246q0 153 -143 153q-126 0 -187 -123q-23 -44 -59 -235
q-33 -174 -33 -246q0 -154 143 -154z" />
    <glyph glyph-name="one.inferior" unicode="&#x2081;" horiz-adv-x="634" 
d="M221 -319h-10q-19 0 -16 20l129 741h-2l-158 -100q-19 -6 -19 10l2 17q3 18 19 28l158 103q18 12 32 12h11q21 0 18 -20l-139 -791q-3 -20 -25 -20z" />
    <glyph glyph-name="two.inferior" unicode="&#x2082;" horiz-adv-x="634" 
d="M397 -319h-424q-19 0 -16 20l2 8q4 17 16 29l387 395q109 115 109 209q0 61 -37 97t-100 36q-137 0 -195 -143q-7 -20 -24 -17l-13 2q-16 3 -10 25q27 80 93.5 131t152.5 51q84 0 134 -49.5t50 -124.5q0 -124 -123 -250l-364 -368v-2h371q19 0 16 -21l-2 -8
q-3 -20 -23 -20z" />
    <glyph glyph-name="three.inferior" unicode="&#x2083;" horiz-adv-x="634" 
d="M184 -332q-84 0 -137.5 45.5t-64.5 114.5q-3 22 14 25l12 4q20 7 23 -15q21 -125 159 -125q92 0 155 65t63 159q0 66 -41.5 107.5t-110.5 41.5h-33q-17 0 -14 21l2 10q3 18 22 18h27q80 0 140.5 61t60.5 146q0 58 -37 93.5t-102 35.5q-132 0 -187 -117q-9 -19 -24 -16
l-13 2q-16 3 -10 25q31 70 92 112.5t148 42.5q86 0 135 -46.5t49 -125.5q0 -162 -150 -235v-2q41 -20 69 -64t28 -102q0 -122 -76.5 -201.5t-198.5 -79.5z" />
    <glyph glyph-name="four.inferior" unicode="&#x2084;" horiz-adv-x="634" 
d="M309 -319h-14q-17 0 -14 20l24 141q3 13 -10 13h-318q-19 0 -16 20l2 10q5 16 14 29l373 578q11 20 27 20h22q8 0 11.5 -6t-2.5 -14l-379 -586v-2h274q11 0 14 12l39 221q3 21 23 21h14q18 0 15 -21l-37 -221q-3 -12 10 -12h86q19 0 16 -21l-2 -10q-3 -18 -20 -18h-90
q-12 0 -15 -13l-24 -141q-3 -20 -23 -20z" />
    <glyph glyph-name="five.inferior" unicode="&#x2085;" horiz-adv-x="634" 
d="M201 -332q-168 0 -189 164q-3 24 13 27l16 4q15 3 18 -13q11 -69 44.5 -101t103.5 -32q120 0 178 113q17 40 31 107q14 66 14 110q0 131 -139 131q-118 0 -172 -100q-9 -21 -27 -21h-10q-19 0 -16 21l73 414q3 20 23 20h373q19 0 16 -20l-2 -11q-3 -18 -21 -18h-329
q-12 0 -15 -12l-55 -304h2q53 80 174 80q80 0 128 -45.5t48 -124.5q0 -43 -16 -131q-13 -72 -35 -121q-67 -137 -229 -137z" />
    <glyph glyph-name="six.inferior" unicode="&#x2086;" horiz-adv-x="634" 
d="M180 -332q-92 0 -145 53t-53 144q0 112 88 237l278 394q10 16 25 16h22q10 0 12 -6t-4 -14l-253 -359l2 -2q47 35 118 35q88 0 142.5 -53.5t54.5 -141.5q0 -129 -80 -215q-79 -88 -207 -88zM188 -283q97 0 162.5 71t65.5 175q0 72 -42 113t-114 41q-97 0 -162 -71
t-65 -175q0 -72 41.5 -113t113.5 -41z" />
    <glyph glyph-name="seven.inferior" unicode="&#x2087;" horiz-adv-x="634" 
d="M94 -319h-18q-24 0 -8 22l446 758v2h-326q-11 0 -14 -12l-16 -84q-3 -21 -21 -21h-12q-19 0 -16 21l22 125q3 20 23 20h403q19 0 16 -20l-2 -17q-3 -17 -12 -31l-438 -747q-10 -16 -27 -16z" />
    <glyph glyph-name="eight.inferior" unicode="&#x2088;" horiz-adv-x="634" 
d="M180 -332q-92 0 -148.5 52.5t-56.5 140.5t47 158t132 100v4q-84 41 -84 149q0 105 75 177q75 75 185 75q82 0 135 -49t53 -127q0 -72 -41.5 -135t-109.5 -94v-4q44 -18 72 -62t28 -100q0 -123 -81.5 -204t-205.5 -81zM266 141q76 0 137 58q64 58 64 141q0 60 -41 97.5
t-104 37.5q-75 0 -140 -59q-61 -58 -61 -140q0 -60 41 -97.5t104 -37.5zM188 -283q89 0 158 66q70 64 70 158q0 69 -43.5 110t-118.5 41q-89 0 -160 -65q-67 -64 -67 -158q0 -69 43 -110.5t118 -41.5z" />
    <glyph glyph-name="nine.inferior" unicode="&#x2089;" horiz-adv-x="634" 
d="M139 -319h-22q-10 0 -12 6.5t4 13.5l253 358l-2 2q-46 -34 -118 -34q-88 0 -142.5 53.5t-54.5 140.5q0 129 80 215q79 88 207 88q92 0 145 -52.5t53 -143.5q0 -113 -88 -238l-278 -393q-10 -16 -25 -16zM252 76q97 0 162 71t65 175q0 72 -41.5 112.5t-113.5 40.5
q-97 0 -162.5 -71t-65.5 -175q0 -72 42 -112.5t114 -40.5z" />
    <glyph glyph-name="Euro" unicode="&#x20ac;" 
d="M508 -20q-138 0 -213.5 77.5t-75.5 227.5q0 77 31 258q3 12 -10 12h-101q-19 0 -16 20l2 11q3 20 25 20h98q11 0 14 12l31 170q3 13 -8 13h-103q-19 0 -16 20l2 10q3 21 25 21h98q11 0 14 10q48 240 86 318q114 233 369 233q119 0 193.5 -65.5t95.5 -171.5q3 -19 -13 -25
l-12 -4q-17 -7 -23 12q-27 102 -87 152.5t-162 50.5q-100 0 -183 -51.5t-127 -143.5q-48 -97 -84 -303q-3 -12 11 -12h424q19 0 16 -21l-2 -10q-3 -20 -25 -20h-424q-11 0 -14 -13l-29 -170q-3 -12 11 -12h362q20 0 17 -20l-3 -11q-3 -20 -24 -20h-363q-11 0 -14 -12
q-31 -200 -31 -246q0 -266 246 -266q196 0 322 202q10 19 26 13l10 -4q16 -6 7 -27q-59 -106 -155 -170.5t-218 -64.5z" />
    <glyph glyph-name="afii61248" unicode="&#x2105;" horiz-adv-x="1499" 
d="M266 0l1018 1393q14 20 31 20h18q22 0 8 -20l-1015 -1393q-17 -20 -33 -20h-19q-22 0 -8 20zM463 676q-199 0 -199 235q0 176 68 318q85 180 262 180q150 0 190 -143q3 -13 -8 -19l-20 -14q-13 -6 -19 6q-19 66 -55.5 94.5t-103.5 28.5q-121 0 -195 -145
q-66 -135 -66 -295q0 -199 154 -199q110 0 193 121q8 10 22 2l14 -12q9 -9 0 -23q-94 -135 -237 -135zM1026 -20q-103 0 -149 57.5t-46 175.5q0 70 23 178q19 93 47 154q43 90 102.5 131t147.5 41q103 0 149 -58t46 -178q0 -70 -23 -178q-19 -90 -47 -151
q-43 -91 -101.5 -131.5t-148.5 -40.5zM1028 31q73 0 120 34t83 115q17 42 39 133q20 87 20 156q0 108 -33 154.5t-118 46.5q-69 0 -112.5 -34t-78.5 -114q-19 -42 -41 -135q-20 -84 -20 -156q0 -106 31 -153t110 -47z" />
    <glyph glyph-name="afii61289" unicode="&#x2113;" horiz-adv-x="663" 
d="M252 561l-72 -61q-16 -16 -26 2l-9 10q-9 16 7 29l112 96l80 446q30 176 82 253t133 77q57 0 91 -45.5t34 -124.5q0 -289 -367 -627l-79 -456q-24 -129 71 -129q64 0 135 71q15 15 27 0l6 -6q14 -14 0 -28q-82 -88 -174 -88q-74 0 -106 48.5t-15 135.5zM399 1077
l-67 -379q151 151 223 277.5t72 271.5q0 115 -74 115q-105 0 -154 -285z" />
    <glyph glyph-name="uni2116" unicode="&#x2116;" horiz-adv-x="1843" 
d="M164 0h-17q-21 0 -18 20l240 1354q3 19 22 19h39q14 0 21 -17l501 -1284h6l228 1282q3 19 18 19h19q10 0 16 -5.5t4 -13.5l-239 -1354q-3 -20 -25 -20h-47q-11 0 -14 10l-500 1295h-6l-226 -1285q-3 -20 -22 -20zM1704 346h-420q-17 0 -14 23l2 12q3 18 22 18h420
q20 0 17 -22l-2 -12q-3 -19 -25 -19zM1530 494q-99 0 -153 58.5t-54 166.5q0 174 86 289q77 102 213 102q98 0 153.5 -60.5t55.5 -168.5q0 -195 -111 -306q-81 -81 -190 -81zM1532 547q94 0 162 80q82 98 82 256q0 174 -156 174q-118 0 -182 -105q-60 -97 -60 -233
q0 -172 154 -172z" />
    <glyph glyph-name="published" unicode="&#x2117;" horiz-adv-x="1703" 
d="M1362 184q-204 -204 -510 -204q-308 0 -512 204q-205 205 -205 512q0 305 205 510q207 207 512 207q303 0 510 -207t207 -510q0 -305 -207 -512zM381 221q188 -188 471 -188t471 188q188 191 188 475q0 285 -188 473q-188 191 -471 191t-471 -191q-188 -188 -188 -473
q0 -284 188 -475zM692 287h-18q-19 0 -19 18v754q0 18 19 18h164q166 0 246.5 -53t80.5 -182q0 -141 -81 -201.5t-246 -60.5h-117q-10 0 -10 -11v-264q0 -18 -19 -18zM721 631h117q142 0 206 45.5t64 165.5q0 106 -63 145t-207 39h-117q-10 0 -10 -12v-371q0 -12 10 -12z
" />
    <glyph glyph-name="trademark" unicode="&#x2122;" horiz-adv-x="1714" 
d="M1597 586h-10q-20 0 -20 20v670h-4l-273 -561q-10 -17 -22 -17h-15q-12 0 -22 17l-273 561h-4v-670q0 -20 -20 -20h-10q-21 0 -21 20v766q0 21 21 21h18q15 0 25 -17l295 -610h4l288 610q10 17 25 17h18q21 0 21 -21v-766q0 -20 -21 -20zM459 586h-10q-21 0 -21 20v727
q0 13 -12 13h-238q-20 0 -20 20v6q0 21 20 21h549q21 0 21 -21v-6q0 -20 -21 -20h-235q-13 0 -13 -13v-727q0 -20 -20 -20z" />
    <glyph glyph-name="Omega" unicode="&#x2126;" horiz-adv-x="1239" 
d="M459 0h-318q-19 0 -16 20l2 13q3 18 20 18h209l2 4q-92 48 -134 125t-42 203q0 117 35 313q49 273 115 414q146 303 467 303q178 0 278.5 -101.5t100.5 -283.5q0 -130 -35 -332q-52 -295 -133 -436q-76 -133 -228 -205v-4h211q20 0 17 -18l-2 -13q-3 -20 -21 -20h-319
q-20 0 -17 20l2 19q3 14 23 20q196 71 272 197q79 125 137 440q35 196 35 322q0 164 -85.5 253t-243.5 89q-278 0 -404 -262q-67 -143 -115 -402q-32 -168 -32 -301q0 -138 51.5 -212t177.5 -124q19 -6 16 -20l-4 -19q-3 -20 -22 -20z" />
    <glyph glyph-name="estimated" unicode="&#x212e;" horiz-adv-x="1359" 
d="M700 -20q-209 0 -342 145q-129 147 -129 362q0 217 129 361q131 143 342 143q213 0 342 -141q131 -137 134 -363h-740v-333q108 -105 264 -105q223 0 353 219l65 -41q-87 -132 -183 -189.5t-235 -57.5zM436 553h533v266q-120 111 -269 111q-156 0 -264 -111v-266z" />
    <glyph glyph-name="onethird" unicode="&#x2153;" horiz-adv-x="1675" 
d="M1223 -12q-85 0 -138.5 45t-64.5 114q-3 22 14 25l13 4q19 6 22 -14q21 -125 160 -125q92 0 154.5 64.5t62.5 158.5q0 66 -42 108t-110 42h-32q-18 0 -15 20l2 10q3 19 23 19h26q80 0 140.5 61t60.5 146q0 58 -37 93.5t-102 35.5q-130 0 -186 -117q-10 -19 -25 -16l-12 2
q-17 3 -11 24q31 70 92.5 113t147.5 43t135 -46.5t49 -125.5q0 -163 -149 -236v-2q41 -20 68.5 -64t27.5 -102q0 -122 -76 -201t-198 -79zM424 561h-10q-20 0 -17 21l129 741h-2l-157 -100q-19 -6 -19 10l2 16q3 20 19 29l157 102q19 13 33 13h10q22 0 19 -21l-139 -790
q-3 -21 -25 -21zM346 -20h-18q-23 0 -9 20l1018 1393q14 20 31 20h18q23 0 9 -20l-1016 -1393q-17 -20 -33 -20z" />
    <glyph glyph-name="twothirds" unicode="&#x2154;" horiz-adv-x="1865" 
d="M1401 -12q-85 0 -138.5 45t-64.5 114q-3 22 14 25l13 4q19 6 22 -14q21 -125 160 -125q92 0 154.5 64.5t62.5 158.5q0 67 -41.5 108.5t-109.5 41.5h-33q-18 0 -15 20l2 10q3 19 23 19h27q80 0 140 61t60 146q0 58 -37 93.5t-102 35.5q-130 0 -186 -117q-10 -19 -25 -16
l-12 2q-16 3 -10 24q31 70 92 113t147 43t135.5 -46.5t49.5 -125.5q0 -162 -150 -236v-2q41 -20 68.5 -64t27.5 -102q0 -122 -76 -201t-198 -79zM668 561h-424q-20 0 -17 21l2 8q4 15 17 28l387 396q108 114 108 209q0 61 -37 97t-100 36q-136 0 -194 -144q-6 -19 -25 -16
l-12 2q-17 3 -11 25q27 80 93.5 131t152.5 51q84 0 134.5 -49.5t50.5 -124.5q0 -124 -123 -250l-365 -369v-2h371q19 0 16 -20l-2 -8q-3 -21 -22 -21zM524 -20h-18q-22 0 -8 20l1018 1393q14 20 30 20h19q22 0 8 -20l-1016 -1393q-17 -20 -33 -20z" />
    </font>
</defs>
</svg>
